<svg width="71" height="71" viewBox="0 0 71 71" fill="none" xmlns="http://www.w3.org/2000/svg">
<circle cx="35.5" cy="35.5" r="35.5" fill="#36BBD9"/>
<g clip-path="url(#clip0_54_471)">
<path d="M53.9152 46.6811C52.5078 44.0212 47.3164 40.9788 47.3164 40.9788C46.1418 40.3092 44.7247 40.2343 44.0544 41.4281C44.0544 41.4281 42.3682 43.451 41.9388 43.7417C39.979 45.0697 38.1637 45.0186 36.3314 43.1855L32.0729 38.927L27.8143 34.6684C25.9813 32.8353 25.9301 31.0208 27.2582 29.061C27.5488 28.6316 29.5717 26.9454 29.5717 26.9454C30.7648 26.2751 30.6907 24.858 30.0211 23.6835C30.0211 23.6835 26.9786 18.4921 24.3188 17.0846C23.1872 16.4855 21.7976 16.6946 20.8922 17.6L19.0102 19.4798C13.0446 25.4453 15.9818 32.1813 21.9474 38.1469L27.3998 43.5993L32.8522 49.0517C38.8178 55.0173 45.5538 57.9552 51.5193 51.9889L53.4006 50.1077C54.3052 49.2023 54.5143 47.8119 53.9152 46.6811Z" fill="#69BC45"/>
<path d="M54.5707 46.3342C53.0817 43.5194 47.9111 40.4673 47.6842 40.3338C47.0198 39.9556 46.3264 39.7554 45.6776 39.7554C44.7129 39.7554 43.9232 40.1974 43.4449 41.0012C42.6885 41.9058 41.7498 42.9632 41.5229 43.1271C39.761 44.3225 38.381 44.1868 36.8557 42.6607L28.3378 34.1428C26.8222 32.6264 26.6827 31.2301 27.8692 29.4786C28.0353 29.2488 29.0927 28.3107 29.9981 27.5529C30.575 27.2096 30.971 26.7001 31.1438 26.0736C31.3751 25.2416 31.2046 24.2613 30.6603 23.3069C30.532 23.0874 27.4791 17.9161 24.6651 16.4278C24.1401 16.1498 23.5483 16.0029 22.9551 16.0029C21.9778 16.0029 21.0583 16.3841 20.3679 17.0744L18.4852 18.9557C15.5087 21.9314 14.4313 25.3046 15.2811 28.9811C15.99 32.0451 18.0559 35.3055 21.4224 38.6713L32.3265 49.5754C36.5873 53.8362 40.6493 55.997 44.4 55.997C44.4 55.997 44.4 55.997 44.4007 55.997C47.1592 55.997 49.7308 54.8247 52.0421 52.5133L53.9234 50.6321C55.0668 49.4901 55.3263 47.7631 54.5707 46.3342ZM52.8756 49.5836L50.9943 51.4648C48.9707 53.4884 46.7528 54.514 44.4015 54.514C41.0579 54.514 37.3481 52.4992 33.3757 48.5269L22.4716 37.6228C19.3046 34.4557 17.3714 31.4355 16.7263 28.6466C15.9892 25.4574 16.9072 22.6307 19.5337 20.0042L21.415 18.1229C21.8258 17.7121 22.3723 17.486 22.9536 17.486C23.3066 17.486 23.6573 17.5735 23.9703 17.7388C26.4128 19.0313 29.3507 24.0077 29.376 24.0499C29.7089 24.6335 29.8357 25.2423 29.7148 25.6783C29.6407 25.9453 29.4753 26.1477 29.2084 26.2975L29.0964 26.3746C28.4639 26.9018 26.9593 28.1787 26.6434 28.6444C26.1896 29.3148 25.8886 29.974 25.7314 30.6213C25.2042 29.5698 24.7778 28.3515 24.6376 27.0019C24.5954 26.5956 24.2328 26.3116 23.8234 26.3405C23.4163 26.3835 23.1197 26.7476 23.162 27.1554C23.6974 32.3113 27.7068 35.6674 27.8773 35.8075C27.8959 35.8231 27.9189 35.829 27.9381 35.8424L35.8065 43.71C35.8391 43.7426 35.8732 43.7715 35.9058 43.8034C35.9325 43.8427 35.9496 43.8857 35.9844 43.9198C36.1246 44.0585 39.4725 47.3063 44.5854 47.8373C44.6113 47.8395 44.6373 47.841 44.6625 47.841C45.0377 47.841 45.3595 47.557 45.3995 47.1766C45.4418 46.7687 45.1459 46.4047 44.7381 46.3616C43.172 46.1993 41.7846 45.7402 40.6278 45.2078C41.1929 45.0365 41.7683 44.7525 42.3541 44.3558C42.8198 44.0407 44.0967 42.5354 44.6239 41.9029L44.701 41.7909C44.9094 41.4201 45.229 41.2392 45.6776 41.2392C46.0632 41.2392 46.5148 41.3764 46.9419 41.6189C48.3352 42.436 52.186 44.9995 53.2604 47.029C53.7091 47.8773 53.5548 48.9043 52.8756 49.5836Z" fill="#449E46"/>
<path d="M24.5976 54.5621C29.1024 54.5621 32.7543 50.9101 32.7543 46.4053C32.7543 41.9004 29.1024 38.2485 24.5976 38.2485C20.0927 38.2485 16.4408 41.9004 16.4408 46.4053C16.4408 50.9101 20.0927 54.5621 24.5976 54.5621Z" fill="#B1D3EF"/>
<path d="M29.0467 45.664H25.3391V41.9564C25.3391 41.547 25.0077 41.2148 24.5976 41.2148C24.1875 41.2148 23.8561 41.547 23.8561 41.9564V46.4055C23.8561 46.8148 24.1875 47.147 24.5976 47.147H29.0467C29.4568 47.147 29.7883 46.8148 29.7883 46.4055C29.7883 45.9962 29.4561 45.664 29.0467 45.664Z" fill="white"/>
</g>
<defs>
<clipPath id="clip0_54_471">
<rect width="40" height="40" fill="white" transform="translate(15 16)"/>
</clipPath>
</defs>
</svg>
