<svg width="98" height="98" viewBox="0 0 98 98" fill="none" xmlns="http://www.w3.org/2000/svg">
<circle cx="49" cy="49" r="49" fill="#916969"/>
<path d="M20.351 49.3981C19.4687 50.052 18.3577 50.4436 17.1505 50.4436C15.9734 50.4436 14.8868 50.0716 14.0155 49.4463C11.172 49.8793 9.00001 52.2018 9 55.0029C9 58.1125 11.6756 56.091 14.9761 56.091L19.7972 56.0911C23.0979 56.0909 25.7737 58.1125 25.7737 55.0029C25.7737 52.0697 23.3918 49.6612 20.351 49.3981Z" fill="black"/>
<path d="M17.1505 49.7883C19.6265 49.7883 21.6407 47.8906 21.6407 45.558C21.6407 43.2256 19.6265 41.3279 17.1505 41.3279C14.6746 41.3279 12.6602 43.2256 12.6602 45.558C12.6604 47.8906 14.6747 49.7883 17.1505 49.7883Z" fill="black"/>
<path d="M51.298 14.0703C50.4157 14.7243 49.3047 15.1159 48.0975 15.1159C46.9204 15.1159 45.8338 14.7438 44.9626 14.1186C42.119 14.5516 39.947 16.8742 39.947 19.6753C39.947 22.785 42.6226 20.7634 45.9231 20.7634L50.7443 20.7635C54.045 20.7634 56.7207 22.785 56.7207 19.6753C56.7207 16.7421 54.3389 14.3335 51.298 14.0703Z" fill="black"/>
<path d="M48.0976 14.461C50.5736 14.461 52.5877 12.5632 52.5877 10.2304C52.5877 7.89782 50.5736 6 48.0976 6C45.6216 6 43.6073 7.89785 43.6073 10.2304C43.6075 12.5632 45.6218 14.461 48.0976 14.461Z" fill="black"/>
<path d="M83.5773 49.3981C82.695 50.0521 81.584 50.4436 80.3768 50.4436C79.1997 50.4436 78.1131 50.0716 77.2418 49.4463C74.3983 49.8793 72.2263 52.2018 72.2263 55.0029C72.2263 58.1125 74.9019 56.091 78.2024 56.091L83.0235 56.0912C86.3242 56.091 89 58.1125 89 55.0029C89 52.0698 86.6182 49.6612 83.5773 49.3981Z" fill="black"/>
<path d="M80.3769 49.7883C82.8529 49.7883 84.8671 47.8906 84.867 45.558C84.8671 43.2256 82.8529 41.3279 80.3769 41.3279C77.9009 41.3279 75.8866 43.2256 75.8865 45.558C75.8867 47.8906 77.9011 49.7883 80.3769 49.7883Z" fill="black"/>
<path d="M51.298 78.6613C50.4157 79.3153 49.3047 79.7068 48.0976 79.7068C46.9204 79.7068 45.8338 79.3347 44.9625 78.7095C42.119 79.1425 39.947 81.465 39.947 84.2661C39.947 87.3757 42.6226 85.3542 45.9231 85.3541L50.7443 85.3543C54.045 85.3541 56.7207 87.3757 56.7207 84.2661C56.7207 81.333 54.3389 78.9244 51.298 78.6613Z" fill="black"/>
<path d="M48.0976 79.0517C50.5735 79.0517 52.5877 77.154 52.5877 74.8214C52.5877 72.489 50.5735 70.5913 48.0976 70.5913C45.6216 70.5913 43.6072 72.489 43.6072 74.8214C43.6074 77.154 45.6218 79.0517 48.0976 79.0517Z" fill="black"/>
<path d="M80.2324 61.9864V61.9865C78.6619 65.5559 76.4292 68.8001 73.6791 71.5836L72.0126 70.1226C74.5807 67.5234 76.6642 64.4952 78.1293 61.1653L80.2324 61.9864Z" fill="black"/>
<path d="M72.834 72.4095V72.4097C69.9776 75.1026 66.616 77.3211 62.8937 78.928L61.9453 76.9784C65.4183 75.4791 68.5561 73.4086 71.2236 70.8937L72.834 72.4095Z" fill="black"/>
<path d="M35.6595 79.4084V79.4086C31.8688 77.9321 28.423 75.8314 25.4659 73.2432L27.0154 71.6721C29.7766 74.0888 32.9932 76.0493 36.5293 77.4266L35.6595 79.4084Z" fill="black"/>
<path d="M24.5889 72.4475V72.4476C21.7275 69.759 19.3698 66.5945 17.6608 63.0897L19.7296 62.1947C21.324 65.4646 23.5247 68.4187 26.1966 70.9292L24.5889 72.4475Z" fill="black"/>
<path d="M17.1273 37.4347V37.4349C18.6913 33.8625 20.9182 30.6147 23.663 27.827L25.3321 29.2854C22.769 31.8885 20.6909 34.9199 19.2318 38.2524L17.1273 37.4347Z" fill="black"/>
<path d="M24.5065 26.9999V27C27.3581 24.3022 30.7159 22.0784 34.4349 20.4657L35.3869 22.4137C31.9171 23.9183 28.7825 25.9939 26.1196 28.513L24.5065 26.9999Z" fill="black"/>
<path d="M61.6685 19.941V19.9412C65.4621 21.4114 68.9115 23.5064 71.8731 26.0897L70.3264 27.6633C67.561 25.2511 64.3412 23.2959 60.8023 21.9243L61.6685 19.941Z" fill="black"/>
<path d="M72.7515 26.8833V26.8835C75.6178 29.5675 77.9813 32.7286 79.6965 36.2306L77.6293 37.129C76.029 33.8616 73.8231 30.9108 71.1465 28.4043L72.7515 26.8833Z" fill="black"/>
</svg>
