<svg width="50" height="59" viewBox="0 0 50 59" fill="none" xmlns="http://www.w3.org/2000/svg">
<path fill-rule="evenodd" clip-rule="evenodd" d="M22.6835 28.8796C24.6988 27.9305 27.1771 28.2886 28.8429 29.9541C30.5088 31.6195 30.8669 34.0971 29.9176 36.112L35.4988 44.2922L27.3165 38.7124C25.3012 39.6615 22.8229 39.3035 21.1571 37.638C19.4912 35.9726 19.1331 33.4949 20.0824 31.4801L14.5012 23.2998L22.6835 28.8796V28.8796ZM24.0392 32.8355C24.5699 32.305 25.4301 32.305 25.9608 32.8355C26.4914 33.366 26.4914 34.226 25.9608 34.7566C25.4301 35.2871 24.5699 35.2871 24.0392 34.7566C23.5086 34.226 23.5086 33.366 24.0392 32.8355ZM27.7263 8.95063C40.2506 10.3089 50 20.9134 50 33.796C50 47.5998 38.8072 58.7899 25 58.7899C11.1928 58.7899 0 47.5998 0 33.796C0 20.9134 9.74936 10.3089 22.2737 8.95063C20.9679 8.07257 20.1087 6.58165 20.1087 4.8901C20.1087 2.18936 22.2986 0 25 0C27.7014 0 29.8913 2.18936 29.8913 4.8901C29.8913 6.58165 29.0321 8.07257 27.7263 8.95063V8.95063ZM25 1.0867C27.1011 1.0867 28.8043 2.78953 28.8043 4.8901C28.8043 6.99068 27.1011 8.69351 25 8.69351C22.8989 8.69351 21.1957 6.99068 21.1957 4.8901C21.1957 2.78953 22.8989 1.0867 25 1.0867V1.0867ZM5.99663 32.981H11.7687C12.2189 32.981 12.5839 33.3459 12.5839 33.796C12.5839 34.2461 12.2189 34.6111 11.7687 34.6111H5.99663C6.41241 44.4651 14.3282 52.3789 24.1848 52.7945V47.0241C24.1848 46.574 24.5498 46.2091 25 46.2091C25.4502 46.2091 25.8152 46.574 25.8152 47.0241V52.7945C35.6718 52.3789 43.5876 44.4651 44.0034 34.6111H38.2313C37.7811 34.6111 37.4161 34.2461 37.4161 33.796C37.4161 33.3459 37.7811 32.981 38.2313 32.981H44.0034C43.5876 23.1269 35.6718 15.2132 25.8152 14.7976V20.568C25.8152 21.0181 25.4502 21.383 25 21.383C24.5498 21.383 24.1848 21.0181 24.1848 20.568V14.7976C14.3282 15.2132 6.41241 23.1269 5.99663 32.981V32.981Z" fill="#449FB2"/>
</svg>
