<svg width="98" height="98" viewBox="0 0 98 98" fill="none" xmlns="http://www.w3.org/2000/svg">
<circle cx="49" cy="49" r="49" fill="#514141"/>
<path d="M67.8666 19.9973C67.1062 19.6026 65.9063 20.0739 64.8107 22.0528C63.9892 23.7721 63.1864 25.2282 62.1157 26.9416C59.9192 30.4562 57.7298 33.1724 53.2254 37.971C49.0764 42.391 47.7375 44.0062 46.3207 46.3006C44.5238 49.2105 43.5186 52.38 43.3649 55.6199C43.3374 56.2 43.3332 56.2101 43.0383 56.4258C42.4839 56.8314 42.3796 57.5723 42.763 58.3814C42.9414 58.7579 42.9454 58.8004 42.8276 59.0739C41.2812 62.6621 40.445 64.5347 40.3796 64.556C40.3349 64.5706 40.0074 64.5815 39.6521 64.5803C39.1402 64.5787 38.8717 64.6146 38.3576 64.7549C37.0335 65.1162 36.3823 65.6092 34.6164 67.5876C32.7034 69.731 32.1961 70.1382 30.793 70.656C30.0818 70.9185 29.8568 70.9755 29.2655 71.0425C28.8841 71.0858 28.3632 71.1112 28.1079 71.0991C27.7518 71.0822 27.5887 71.1045 27.4081 71.1947C27.1999 71.2986 27.1371 71.3001 26.8684 71.2086C26.4732 71.074 26.2683 71.1422 26.1754 71.4393C26.0792 71.7468 26.1653 71.8447 27.423 72.8542C28.5625 73.7688 29.8267 74.608 31.0237 75.2443C31.9256 75.7239 33.5563 76.3761 34.4046 76.5965C35.6044 76.9083 37.3112 76.9994 38.4697 76.8134C39.1281 76.7078 40.5818 76.1626 41.1876 75.7941C41.9108 75.3542 42.6877 74.6949 43.3131 73.9905C45.2326 71.8284 45.7795 69.2702 44.7423 67.3051L44.5163 66.8769L44.7078 66.6609C44.8131 66.5421 45.8579 65.2719 47.0296 63.8381L49.1598 61.231L49.7008 61.0206C50.6429 60.6539 51.0609 60.0874 50.9111 59.3803C50.8745 59.2075 50.8554 59.0278 50.8688 58.9811C50.8822 58.9343 51.0427 58.7781 51.2253 58.6337C52.3961 57.7081 54.3615 55.643 55.4423 54.2027C56.4639 52.8412 57.4653 51.1459 58.218 49.5032C59.108 47.5608 59.8593 45.3232 61.4213 39.963C62.9471 34.7275 64.0081 31.7928 65.5377 28.5778C66.4363 26.6891 67.3585 24.6342 68.2846 23.1375C68.9477 21.6526 68.6269 20.392 67.8666 19.9973L67.8666 19.9973ZM44.3937 56.875C44.5116 56.924 44.5281 57.0097 44.3904 57.0547C44.1367 57.1374 43.9559 57.3443 43.9694 57.5363C43.9779 57.657 44.0855 57.8911 44.2669 58.1837C44.4442 58.4698 44.5559 58.7112 44.564 58.8255C44.5711 58.9263 43.9845 60.3182 43.2605 61.9186C42.5364 63.5189 41.9027 64.8508 41.8521 64.8783C41.77 64.923 41.4612 64.8323 41.4091 64.7483C41.3979 64.7302 41.9505 63.3949 42.6371 61.7807C43.3932 60.0032 43.8731 58.7773 43.854 58.6723C43.8366 58.5769 43.6955 58.3057 43.5405 58.0696C43.2846 57.6801 43.2635 57.6217 43.3114 57.4403C43.4152 57.047 43.7973 56.8016 44.2442 56.8411C44.3039 56.8464 44.3545 56.8587 44.3937 56.875L44.3937 56.875Z" fill="#020202"/>
</svg>
