<svg width="25" height="21" viewBox="0 0 25 21" fill="none" xmlns="http://www.w3.org/2000/svg">
<path d="M5.28931 18.4235H22.6081C22.6081 18.4235 17.8028 7.91912 16.8541 7.7173C15.9053 7.51546 11.7576 14.7212 11.7576 14.7212C11.7576 14.7212 9.48705 10.1257 8.56618 10.2415C7.64537 10.3574 5.28969 18.4237 5.28969 18.4237L5.28931 18.4235Z" fill="#5AC7DF"/>
<path opacity="0.97" d="M10.7364 8.32092C11.6294 8.32092 12.3533 7.54324 12.3533 6.58392C12.3533 5.62461 11.6294 4.84692 10.7364 4.84692C9.84339 4.84692 9.11946 5.62461 9.11946 6.58392C9.11946 7.54324 9.84339 8.32092 10.7364 8.32092Z" fill="#5AC7DF"/>
<path d="M2.89703 2.7312V20.5392H25V2.7312H2.89703V2.7312ZM4.27847 3.9184H23.6186V19.352H4.27847V3.9184V3.9184Z" fill="#5AC7DF"/>
<path d="M0 0V17.808H2.2103V16.6208H1.38144V1.1872H20.7215V2.09927H22.103V0H0V0Z" fill="#5AC7DF"/>
</svg>
