<svg width="25" height="23" viewBox="0 0 25 23" fill="none" xmlns="http://www.w3.org/2000/svg">
<path d="M21.2768 12.112L12.5028 4.85718L3.72339 12.115V22.4857C3.72339 22.7535 3.95521 22.9684 4.24209 22.9684H9.72874V18.4213C9.72874 18.1534 9.95887 17.937 10.2458 17.937H14.7541C15.0409 17.937 15.2711 18.1534 15.2711 18.4213V22.9684H20.7593C21.0462 22.9684 21.2764 22.7535 21.2764 22.4857V12.1114L21.2768 12.112Z" fill="#5AC7DF"/>
<path d="M12.4515 0.886475L0 11.1797L1.3116 12.5612L12.5026 3.30945L23.6909 12.5612L25 11.1797L12.5512 0.886475L12.5028 0.938786L12.4518 0.886475H12.4515Z" fill="#5AC7DF"/>
<path d="M3.72341 2.3689H6.87986L6.85236 4.11434L3.72339 6.75341V2.3689H3.72341Z" fill="#5AC7DF"/>
</svg>
