<svg width="25" height="24" viewBox="0 0 25 24" fill="none" xmlns="http://www.w3.org/2000/svg">
<path d="M25 11.5741C24.9936 17.9448 19.4397 23.1521 12.4915 23.1481C5.58993 23.1442 -0.0021184 17.986 6.02019e-07 11.5682C0.00211961 5.14251 5.61748 0.0019626 12.5021 5.56371e-07C19.4016 -0.00196148 25 5.18567 25 11.5741V11.5741ZM14.6593 14.109C14.6593 12.6826 14.6571 11.2582 14.6614 9.83178C14.6635 9.29222 14.4558 8.83507 14.0257 8.47994C13.3476 7.91879 12.5593 7.80107 11.7138 8.07772C10.9065 8.34259 10.3662 9.0607 10.3704 9.87299C10.3874 12.714 10.3789 15.5551 10.3746 18.3961C10.3746 20.001 11.8601 20.2718 12.5699 20.2698C13.6379 20.2659 14.6868 19.4693 14.6656 18.3255C14.6381 16.9206 14.6593 15.5138 14.6593 14.109ZM14.8055 4.99339C14.8034 3.80832 13.782 2.86458 12.5 2.86458C11.2159 2.86458 10.1903 3.81617 10.1924 5.00516C10.1945 6.18043 11.2307 7.1379 12.5021 7.1379C13.782 7.1379 14.8055 6.18435 14.8055 4.99339V4.99339Z" fill="#5AC7DF"/>
</svg>
