<svg width="72" height="73" viewBox="0 0 72 73" fill="none" xmlns="http://www.w3.org/2000/svg">
<path d="M35.7464 72.6748C16.1815 72.6748 0.37146 56.4826 0.37146 36.4447C0.37146 16.4067 16.2803 0.113281 35.8452 0.113281C55.3113 0.113281 71.2201 16.4067 71.2201 36.4447C71.2201 56.4826 55.3113 72.6748 35.7464 72.6748Z" fill="url(#paint0_radial_54_635)"/>
<path d="M35.7464 20.1511C40.9834 20.1511 41.5763 20.1511 43.5526 20.2523C45.43 20.3535 46.5169 20.6571 47.2086 20.9607C48.0979 21.3655 48.7896 21.7703 49.4813 22.4787C50.173 23.1871 50.5683 23.7943 50.9635 24.8063C51.26 25.5148 51.5564 26.5268 51.6552 28.5508C51.754 30.676 51.754 31.2832 51.754 36.5457C51.754 41.9094 51.754 42.5166 51.6552 44.5407C51.5564 46.4635 51.26 47.5767 50.9635 48.2851C50.5683 49.1959 50.173 49.9043 49.4813 50.6128C48.7896 51.3212 48.1968 51.726 47.2086 52.1308C46.5169 52.4344 45.5288 52.738 43.5526 52.8392C41.4775 52.9404 40.8846 52.9404 35.7464 52.9404C30.5093 52.9404 29.9164 52.9404 27.9402 52.8392C26.0627 52.738 24.9758 52.4344 24.2841 52.1308C23.3948 51.726 22.7031 51.3212 22.0114 50.6128C21.3197 49.9043 20.9245 49.2971 20.5292 48.2851C20.2328 47.5767 19.9363 46.5647 19.8375 44.5407C19.7387 42.4154 19.7387 41.8082 19.7387 36.5457C19.7387 31.182 19.7387 30.5748 19.8375 28.5508C19.9363 26.628 20.2328 25.5148 20.5292 24.8063C20.9245 23.8955 21.3197 23.1871 22.0114 22.4787C22.7031 21.7703 23.296 21.3655 24.2841 20.9607C24.9758 20.6571 25.9639 20.3535 27.9402 20.2523C30.0152 20.1511 30.6081 20.1511 35.7464 20.1511ZM35.7464 16.5078C30.5093 16.5078 29.8176 16.5078 27.7425 16.609C25.6675 16.7102 24.2841 17.0138 22.9995 17.5198C21.715 18.0258 20.628 18.7342 19.5411 19.8475C18.4542 20.9607 17.7625 22.0739 17.2684 23.3895C16.7743 24.7051 16.4779 26.122 16.3791 28.2472C16.2803 30.3724 16.2803 31.0808 16.2803 36.4445C16.2803 41.8082 16.2803 42.5166 16.3791 44.6419C16.4779 46.7671 16.7743 48.1839 17.2684 49.4995C17.7625 50.8152 18.4542 51.9284 19.5411 53.0416C20.628 54.1548 21.715 54.8632 22.9995 55.3692C24.2841 55.8752 25.6675 56.1788 27.7425 56.28C29.8176 56.3812 30.5093 56.3812 35.7464 56.3812C40.9834 56.3812 41.6751 56.3812 43.7502 56.28C45.8253 56.1788 47.2086 55.8752 48.4932 55.3692C49.7778 54.8632 50.8647 54.1548 51.9516 53.0416C53.0386 51.9284 53.7303 50.8152 54.2243 49.4995C54.7184 48.1839 55.0148 46.7671 55.1137 44.6419C55.2125 42.5166 55.2125 41.8082 55.2125 36.4445C55.2125 31.0808 55.2125 30.3724 55.1137 28.2472C55.0148 26.122 54.7184 24.7051 54.2243 23.3895C53.7303 22.0739 53.0386 20.9607 51.9516 19.8475C50.8647 18.7342 49.7778 18.0258 48.4932 17.5198C47.2086 17.0138 45.8253 16.7102 43.7502 16.609C41.7739 16.5078 41.0823 16.5078 35.7464 16.5078Z" fill="white"/>
<path d="M35.7464 26.2231C30.2129 26.2231 25.7663 30.7772 25.7663 36.4445C25.7663 42.1118 30.2129 46.6659 35.7464 46.6659C41.2799 46.6659 45.7264 42.1118 45.7264 36.4445C45.7264 30.7772 41.2799 26.2231 35.7464 26.2231ZM35.7464 43.0226C32.1891 43.0226 29.2247 40.0878 29.2247 36.3433C29.2247 32.7 32.0903 29.664 35.7464 29.664C39.3036 29.664 42.268 32.5988 42.268 36.3433C42.268 40.0878 39.4024 43.0226 35.7464 43.0226Z" fill="white"/>
<path d="M48.4932 25.8185C48.4932 27.1341 47.4063 28.2473 46.1217 28.2473C44.8371 28.2473 43.7502 27.1341 43.7502 25.8185C43.7502 24.5029 44.8371 23.3896 46.1217 23.3896C47.4063 23.3896 48.4932 24.5029 48.4932 25.8185Z" fill="white"/>
<defs>
<radialGradient id="paint0_radial_54_635" cx="0" cy="0" r="1" gradientUnits="userSpaceOnUse" gradientTransform="translate(-1.42377 72.9574) scale(131.041 134.209)">
<stop stop-color="#F4EC55"/>
<stop offset="0.2412" stop-color="#E48242"/>
<stop offset="0.3463" stop-color="#D66863"/>
<stop offset="0.4422" stop-color="#CD4F74"/>
<stop offset="0.4888" stop-color="#C94379"/>
<stop offset="1" stop-color="#3F56A6"/>
</radialGradient>
</defs>
</svg>
