<svg width="70" height="52" viewBox="0 0 70 52" fill="none" xmlns="http://www.w3.org/2000/svg">
<path d="M0 5C0 2.23858 2.23858 0 5 0H26C28.7614 0 31 2.23858 31 5V27C31 29.7614 28.7614 32 26 32H5C2.23858 32 0 29.7614 0 27V5Z" fill="#DFD9D9"/>
<path d="M43 5C43 2.23858 45.2386 0 48 0H65C67.7614 0 70 2.23858 70 5V27C70 29.7614 67.7614 32 65 32H48C45.2386 32 43 29.7614 43 27V5Z" fill="#C4C4C4"/>
<path d="M26 25C26 22.2386 28.2386 20 31 20H49C51.7614 20 54 22.2386 54 25V47C54 49.7614 51.7614 52 49 52H31C28.2386 52 26 49.7614 26 47V25Z" fill="#F1E9E9"/>
<path d="M20.72 26H18.728L15.728 17.072H15.56L12.392 26H10.4L5.504 10.616H7.424L7.688 12.104L11.432 23.864H11.6L14.912 14.504L13.616 10.616H15.584L15.944 12.272L19.736 23.864H19.88L24.056 12.2L24.416 10.616H26.24L20.72 26Z" fill="black"/>
<path d="M57.032 10.888C58.424 10.888 59.48 11.352 60.2 12.28C60.936 13.192 61.304 14.488 61.304 16.168C61.304 18.088 60.84 19.576 59.912 20.632C58.984 21.672 57.688 22.192 56.024 22.192C55.256 22.192 54.472 22.016 53.672 21.664L52.352 22.264L52.016 22.072L52.16 17.392L52.04 5.32L53.936 5.152L53.864 12.52H54.008C54.552 12.072 55.048 11.728 55.496 11.488C55.944 11.248 56.456 11.048 57.032 10.888ZM56.192 20.8C57.216 20.8 58.024 20.44 58.616 19.72C59.208 19 59.504 17.936 59.504 16.528C59.504 15.232 59.272 14.232 58.808 13.528C58.36 12.808 57.712 12.448 56.864 12.448C56.368 12.448 55.872 12.584 55.376 12.856C54.896 13.128 54.384 13.552 53.84 14.128L53.816 17.176L53.888 20.032C54.656 20.544 55.424 20.8 56.192 20.8Z" fill="black"/>
<path d="M40.904 29.912C42.104 29.912 43.032 30.272 43.688 30.992C44.36 31.696 44.696 32.688 44.696 33.968C44.696 34.288 44.672 34.616 44.624 34.952L44.432 35.168L37.328 35.216V35.576C37.328 37 37.648 38.112 38.288 38.912C38.944 39.712 39.856 40.112 41.024 40.112C41.6 40.112 42.168 40.024 42.728 39.848C43.288 39.656 43.784 39.4 44.216 39.08L44.384 39.176L44.216 40.256C43.176 40.848 42.064 41.144 40.88 41.144C39.424 41.144 38.272 40.656 37.424 39.68C36.592 38.688 36.176 37.336 36.176 35.624C36.176 34.472 36.368 33.464 36.752 32.6C37.136 31.736 37.688 31.072 38.408 30.608C39.128 30.144 39.96 29.912 40.904 29.912ZM43.544 33.8C43.544 32.872 43.312 32.152 42.848 31.64C42.384 31.112 41.728 30.848 40.88 30.848C39.968 30.848 39.208 31.16 38.6 31.784C37.992 32.392 37.6 33.232 37.424 34.304L43.496 34.208L43.544 33.8Z" fill="black"/>
</svg>
