<svg width="202" height="60" viewBox="0 0 202 60" fill="none" xmlns="http://www.w3.org/2000/svg">
<g filter="url(#filter0_d_3_30)">
<path d="M128 5C128 2.23858 130.239 0 133 0H154C156.761 0 159 2.23858 159 5V27C159 29.7614 156.761 32 154 32H133C130.239 32 128 29.7614 128 27V5Z" fill="#DFD9D9"/>
<path d="M171 5C171 2.23858 173.239 0 176 0H193C195.761 0 198 2.23858 198 5V27C198 29.7614 195.761 32 193 32H176C173.239 32 171 29.7614 171 27V5Z" fill="#C4C4C4"/>
<path d="M154 25C154 22.2386 156.239 20 159 20H177C179.761 20 182 22.2386 182 25V47C182 49.7614 179.761 52 177 52H159C156.239 52 154 49.7614 154 47V25Z" fill="#F1E9E9"/>
<path d="M148.72 26H146.728L143.728 17.072H143.56L140.392 26H138.4L133.504 10.616H135.424L135.688 12.104L139.432 23.864H139.6L142.912 14.504L141.616 10.616H143.584L143.944 12.272L147.736 23.864H147.88L152.056 12.2L152.416 10.616H154.24L148.72 26Z" fill="black"/>
<path d="M185.032 10.888C186.424 10.888 187.48 11.352 188.2 12.28C188.936 13.192 189.304 14.488 189.304 16.168C189.304 18.088 188.84 19.576 187.912 20.632C186.984 21.672 185.688 22.192 184.024 22.192C183.256 22.192 182.472 22.016 181.672 21.664L180.352 22.264L180.016 22.072L180.16 17.392L180.04 5.32L181.936 5.152L181.864 12.52H182.008C182.552 12.072 183.048 11.728 183.496 11.488C183.944 11.248 184.456 11.048 185.032 10.888ZM184.192 20.8C185.216 20.8 186.024 20.44 186.616 19.72C187.208 19 187.504 17.936 187.504 16.528C187.504 15.232 187.272 14.232 186.808 13.528C186.36 12.808 185.712 12.448 184.864 12.448C184.368 12.448 183.872 12.584 183.376 12.856C182.896 13.128 182.384 13.552 181.84 14.128L181.816 17.176L181.888 20.032C182.656 20.544 183.424 20.8 184.192 20.8Z" fill="black"/>
<path d="M168.904 29.912C170.104 29.912 171.032 30.272 171.688 30.992C172.36 31.696 172.696 32.688 172.696 33.968C172.696 34.288 172.672 34.616 172.624 34.952L172.432 35.168L165.328 35.216V35.576C165.328 37 165.648 38.112 166.288 38.912C166.944 39.712 167.856 40.112 169.024 40.112C169.6 40.112 170.168 40.024 170.728 39.848C171.288 39.656 171.784 39.4 172.216 39.08L172.384 39.176L172.216 40.256C171.176 40.848 170.064 41.144 168.88 41.144C167.424 41.144 166.272 40.656 165.424 39.68C164.592 38.688 164.176 37.336 164.176 35.624C164.176 34.472 164.368 33.464 164.752 32.6C165.136 31.736 165.688 31.072 166.408 30.608C167.128 30.144 167.96 29.912 168.904 29.912ZM171.544 33.8C171.544 32.872 171.312 32.152 170.848 31.64C170.384 31.112 169.728 30.848 168.88 30.848C167.968 30.848 167.208 31.16 166.6 31.784C165.992 32.392 165.6 33.232 165.424 34.304L171.496 34.208L171.544 33.8Z" fill="black"/>
</g>
<g filter="url(#filter1_d_3_30)">
<path d="M5.624 26.272L5.672 31H4.424L4.472 26.344L4.424 15.664H5.672L5.624 26.272ZM7.52 22.84C9.712 25.592 12.064 28.224 14.576 30.736V30.904C14.336 31 13.96 31.096 13.448 31.192L13.28 31.12C10.624 28.336 8.248 25.6 6.152 22.912V22.816L11.672 16.888L12.68 15.664H14.168L7.52 22.84ZM19.9978 19.912C21.1978 19.912 22.1258 20.272 22.7818 20.992C23.4538 21.696 23.7898 22.688 23.7898 23.968C23.7898 24.288 23.7658 24.616 23.7178 24.952L23.5258 25.168L16.4218 25.216V25.576C16.4218 27 16.7418 28.112 17.3818 28.912C18.0378 29.712 18.9498 30.112 20.1178 30.112C20.6938 30.112 21.2618 30.024 21.8218 29.848C22.3818 29.656 22.8778 29.4 23.3098 29.08L23.4778 29.176L23.3098 30.256C22.2698 30.848 21.1578 31.144 19.9738 31.144C18.5178 31.144 17.3658 30.656 16.5178 29.68C15.6858 28.688 15.2698 27.336 15.2698 25.624C15.2698 24.472 15.4618 23.464 15.8458 22.6C16.2298 21.736 16.7818 21.072 17.5018 20.608C18.2218 20.144 19.0538 19.912 19.9978 19.912ZM22.6378 23.8C22.6378 22.872 22.4058 22.152 21.9418 21.64C21.4778 21.112 20.8218 20.848 19.9738 20.848C19.0618 20.848 18.3018 21.16 17.6938 21.784C17.0858 22.392 16.6938 23.232 16.5178 24.304L22.5898 24.208L22.6378 23.8ZM34.0882 23.44C34.1042 22.672 33.9122 22.08 33.5122 21.664C33.1282 21.232 32.5762 21.016 31.8562 21.016C31.2802 21.016 30.6882 21.192 30.0802 21.544C29.4722 21.88 28.8882 22.368 28.3282 23.008L28.3042 26.248L28.3762 31H27.1282L27.2002 26.32L27.1522 20.176L28.3282 20.032V21.784H28.4482C28.9922 21.256 29.5522 20.832 30.1282 20.512C30.7202 20.192 31.2882 20 31.8322 19.936C32.9362 19.936 33.7842 20.224 34.3762 20.8C34.9682 21.36 35.2562 22.16 35.2402 23.2L35.2162 26.272L35.2642 31H34.0162L34.0882 23.44ZM40.0591 20.08H45.1711L45.9631 20.056L45.9871 20.848L39.4351 30.064H44.4271L45.9871 29.968L46.0831 30.088L45.9391 31.024L44.1151 31H38.9551L38.0671 31.024L38.0431 30.232L44.5951 20.992H39.8431L38.4031 21.112L38.2831 20.968L38.4271 20.032L40.0591 20.08ZM53.8891 19.936C55.0091 19.936 55.8651 20.224 56.4571 20.8C57.0491 21.36 57.3371 22.16 57.3211 23.2L57.2731 26.272L57.3211 31H56.0731L56.1691 23.44C56.1691 22.672 55.9691 22.08 55.5691 21.664C55.1851 21.232 54.6331 21.016 53.9131 21.016C52.7771 21.016 51.6011 21.672 50.3851 22.984L50.3611 26.248L50.4331 31H49.2091L49.2811 26.32L49.2091 14.272L50.4571 14.152L50.3851 21.784H50.5291C51.0731 21.256 51.6331 20.832 52.2091 20.512C52.8011 20.192 53.3611 20 53.8891 19.936ZM65.1618 19.912C66.3618 19.912 67.2898 20.272 67.9458 20.992C68.6178 21.696 68.9538 22.688 68.9538 23.968C68.9538 24.288 68.9298 24.616 68.8818 24.952L68.6898 25.168L61.5858 25.216V25.576C61.5858 27 61.9058 28.112 62.5458 28.912C63.2018 29.712 64.1138 30.112 65.2818 30.112C65.8578 30.112 66.4258 30.024 66.9858 29.848C67.5458 29.656 68.0418 29.4 68.4738 29.08L68.6418 29.176L68.4738 30.256C67.4338 30.848 66.3218 31.144 65.1378 31.144C63.6818 31.144 62.5298 30.656 61.6818 29.68C60.8498 28.688 60.4338 27.336 60.4338 25.624C60.4338 24.472 60.6258 23.464 61.0098 22.6C61.3938 21.736 61.9458 21.072 62.6658 20.608C63.3858 20.144 64.2178 19.912 65.1618 19.912ZM67.8018 23.8C67.8018 22.872 67.5698 22.152 67.1058 21.64C66.6418 21.112 65.9858 20.848 65.1378 20.848C64.2258 20.848 63.4658 21.16 62.8578 21.784C62.2498 22.392 61.8578 23.232 61.6818 24.304L67.7538 24.208L67.8018 23.8ZM76.9963 19.96C78.3243 19.96 79.3483 20.424 80.0683 21.352C80.8043 22.28 81.1723 23.576 81.1723 25.24C81.1723 27.112 80.7163 28.568 79.8043 29.608C78.8923 30.648 77.6203 31.168 75.9883 31.168C75.1723 31.168 74.3563 31.016 73.5403 30.712L72.6523 31.144L72.4123 31L72.4843 26.368L72.4123 14.272L73.6603 14.152L73.6123 21.64H73.7323C74.7083 20.68 75.7963 20.12 76.9963 19.96ZM76.0603 30.208C77.2923 30.208 78.2523 29.8 78.9403 28.984C79.6443 28.152 79.9963 26.96 79.9963 25.408C79.9963 24.016 79.7243 22.936 79.1803 22.168C78.6523 21.4 77.8923 21.016 76.9003 21.016C75.7323 21.016 74.6363 21.624 73.6123 22.84L73.5883 26.248L73.6123 29.536C74.4923 29.984 75.3083 30.208 76.0603 30.208ZM87.7432 19.912C88.7192 19.912 89.4792 20.16 90.0232 20.656C90.5672 21.152 90.8392 21.84 90.8392 22.72C90.8392 23.056 90.8232 23.504 90.7912 24.064C90.7592 24.608 90.7352 25.192 90.7192 25.816C90.6232 27.64 90.5752 28.672 90.5752 28.912C90.5752 29.328 90.6312 29.624 90.7432 29.8C90.8712 29.96 91.0792 30.04 91.3672 30.04C91.6552 30.04 91.9592 29.96 92.2792 29.8L92.4472 29.92L92.3032 30.712C91.9192 30.952 91.5112 31.08 91.0792 31.096C90.1192 31.064 89.6152 30.464 89.5672 29.296H89.4472C88.5352 30.336 87.5912 30.952 86.6152 31.144C85.6552 31.144 84.9032 30.896 84.3592 30.4C83.8152 29.888 83.5432 29.184 83.5432 28.288C83.5432 26.992 84.2472 26.184 85.6552 25.864L89.6392 24.928L89.6872 22.984C89.6872 22.296 89.5032 21.776 89.1352 21.424C88.7672 21.056 88.2472 20.872 87.5752 20.872C86.5512 20.872 85.4312 21.392 84.2152 22.432L84.0712 22.36L83.8792 21.472C85.1912 20.432 86.4792 19.912 87.7432 19.912ZM85.8952 26.704C85.0792 26.896 84.6712 27.376 84.6712 28.144C84.6712 28.752 84.8392 29.232 85.1752 29.584C85.5112 29.92 85.9752 30.088 86.5672 30.088C87.0472 30.088 87.5352 29.92 88.0312 29.584C88.5432 29.248 89.0392 28.768 89.5192 28.144L89.6152 25.816L85.8952 26.704ZM94.7626 21.28L97.7386 29.488H97.8826L100.979 21.352L101.339 20.08H102.515L98.4346 30.784C98.0186 31.872 97.5866 32.72 97.1386 33.328C96.7066 33.936 96.1786 34.4 95.5546 34.72C94.9466 35.056 94.1386 35.336 93.1306 35.56H92.9866C92.7626 35.352 92.5946 35.112 92.4826 34.84L92.5066 34.648C93.3866 34.488 94.0986 34.28 94.6426 34.024C95.1866 33.768 95.6586 33.408 96.0586 32.944C96.4586 32.48 96.8506 31.832 97.2346 31L93.2266 20.128L94.4026 20.008L94.7626 21.28ZM108.427 19.912C109.627 19.912 110.555 20.272 111.211 20.992C111.883 21.696 112.219 22.688 112.219 23.968C112.219 24.288 112.195 24.616 112.147 24.952L111.955 25.168L104.851 25.216V25.576C104.851 27 105.171 28.112 105.811 28.912C106.467 29.712 107.379 30.112 108.547 30.112C109.123 30.112 109.691 30.024 110.251 29.848C110.811 29.656 111.307 29.4 111.739 29.08L111.907 29.176L111.739 30.256C110.699 30.848 109.587 31.144 108.403 31.144C106.947 31.144 105.795 30.656 104.947 29.68C104.115 28.688 103.699 27.336 103.699 25.624C103.699 24.472 103.891 23.464 104.275 22.6C104.659 21.736 105.211 21.072 105.931 20.608C106.651 20.144 107.483 19.912 108.427 19.912ZM111.067 23.8C111.067 22.872 110.835 22.152 110.371 21.64C109.907 21.112 109.251 20.848 108.403 20.848C107.491 20.848 106.731 21.16 106.123 21.784C105.515 22.392 105.123 23.232 104.947 24.304L111.019 24.208L111.067 23.8ZM115.366 21.304L118.102 29.632H118.222L121.414 21.352L121.774 20.08H122.95L118.75 31H117.43L113.878 20.128L115.054 20.008L115.366 21.304ZM124.151 29.44C124.407 29.44 124.599 29.512 124.727 29.656C124.871 29.8 124.943 29.992 124.943 30.232C124.943 30.488 124.871 30.696 124.727 30.856C124.583 31 124.383 31.072 124.127 31.072C123.871 31.072 123.671 31.008 123.527 30.88C123.399 30.736 123.335 30.536 123.335 30.28C123.335 30.024 123.407 29.824 123.551 29.68C123.695 29.52 123.895 29.44 124.151 29.44Z" fill="black"/>
</g>
<defs>
<filter id="filter0_d_3_30" x="124" y="0" width="78" height="60" filterUnits="userSpaceOnUse" color-interpolation-filters="sRGB">
<feFlood flood-opacity="0" result="BackgroundImageFix"/>
<feColorMatrix in="SourceAlpha" type="matrix" values="0 0 0 0 0 0 0 0 0 0 0 0 0 0 0 0 0 0 127 0" result="hardAlpha"/>
<feOffset dy="4"/>
<feGaussianBlur stdDeviation="2"/>
<feComposite in2="hardAlpha" operator="out"/>
<feColorMatrix type="matrix" values="0 0 0 0 0 0 0 0 0 0 0 0 0 0 0 0 0 0 0.25 0"/>
<feBlend mode="normal" in2="BackgroundImageFix" result="effect1_dropShadow_3_30"/>
<feBlend mode="normal" in="SourceGraphic" in2="effect1_dropShadow_3_30" result="shape"/>
</filter>
<filter id="filter1_d_3_30" x="0.42395" y="14.152" width="128.519" height="29.408" filterUnits="userSpaceOnUse" color-interpolation-filters="sRGB">
<feFlood flood-opacity="0" result="BackgroundImageFix"/>
<feColorMatrix in="SourceAlpha" type="matrix" values="0 0 0 0 0 0 0 0 0 0 0 0 0 0 0 0 0 0 127 0" result="hardAlpha"/>
<feOffset dy="4"/>
<feGaussianBlur stdDeviation="2"/>
<feComposite in2="hardAlpha" operator="out"/>
<feColorMatrix type="matrix" values="0 0 0 0 0 0 0 0 0 0 0 0 0 0 0 0 0 0 0.25 0"/>
<feBlend mode="normal" in2="BackgroundImageFix" result="effect1_dropShadow_3_30"/>
<feBlend mode="normal" in="SourceGraphic" in2="effect1_dropShadow_3_30" result="shape"/>
</filter>
</defs>
</svg>
