<svg width="25" height="25" viewBox="0 0 25 25" fill="none" xmlns="http://www.w3.org/2000/svg">
<g clip-path="url(#clip0_241_31)">
<path fill-rule="evenodd" clip-rule="evenodd" d="M10.3746 9.65132C8.03824 11.0001 11.6029 17.683 14.1595 16.2069L16.5298 20.3125C15.4512 20.9353 14.5381 21.3279 13.2876 20.613C9.81546 18.6281 5.99336 12.0109 6.10231 8.06367C6.14008 6.69275 6.94777 6.15562 8.00427 5.54565L10.3746 9.65121L10.3746 9.65132Z" fill="#5AC7DF"/>
<path fill-rule="evenodd" clip-rule="evenodd" d="M11.3544 9.5399C11.102 9.68565 10.7772 9.59865 10.6314 9.34619L8.39679 5.47572C8.25101 5.22323 8.33801 4.89841 8.59046 4.75264L9.76492 4.07458C10.0174 3.9288 10.3423 4.01588 10.488 4.26833L12.7226 8.13878C12.8684 8.39122 12.7814 8.71606 12.5289 8.86181L11.3544 9.5399V9.5399Z" fill="#5AC7DF"/>
<path fill-rule="evenodd" clip-rule="evenodd" d="M17.4592 20.1136C17.2068 20.2594 16.8819 20.1724 16.7361 19.9199L14.5015 16.0494C14.3558 15.797 14.4428 15.4721 14.6952 15.3264L15.8697 14.6483C16.1221 14.5025 16.447 14.5896 16.5928 14.842L18.8274 18.7125C18.9731 18.9649 18.8861 19.2898 18.6337 19.4355L17.4592 20.1136V20.1136Z" fill="#5AC7DF"/>
<path d="M12.5 0H12.5002V0.00291256C15.9532 0.00296404 19.0781 1.40129 21.3383 3.66168C23.5984 5.92207 24.9968 9.0467 24.9969 12.4997H24.9998V12.5003H24.9969C24.9968 15.9534 23.5985 19.0783 21.3381 21.3384C19.0777 23.5985 15.9531 24.9969 12.5001 24.997V24.9999H12.4995V24.997C9.04645 24.997 5.92156 23.5986 3.66142 21.3383C1.40129 19.0779 0.00287628 15.9532 0.00279049 12.5002H-0.00012207V12.4996H0.00279049C0.00284197 9.04657 1.40116 5.92168 3.66155 3.66155C5.92194 1.40141 9.04658 0.00299835 12.4996 0.00291256V0H12.5V0ZM12.5002 1.49094V1.49385H12.4996V1.49094C9.463 1.49102 6.71138 2.7243 4.71805 4.71775C2.72473 6.71121 1.49111 9.46321 1.49111 12.4997H1.49403V12.5003H1.49111C1.4912 15.5369 2.72447 18.2886 4.71793 20.2819C6.71138 22.2752 9.46339 23.5088 12.4999 23.5088V23.5059H12.5005V23.5088C15.5371 23.5087 18.2887 22.2755 20.2821 20.282C22.2754 18.2886 23.509 15.5366 23.509 12.5H23.5061V12.4994H23.509C23.5089 9.46283 22.2756 6.71121 20.2822 4.71788C18.2887 2.72456 15.5367 1.49094 12.5002 1.49094V1.49094Z" fill="#5AC7DF"/>
</g>
<defs>
<clipPath id="clip0_241_31">
<rect width="25" height="25" fill="white"/>
</clipPath>
</defs>
</svg>
