<svg width="27" height="29" viewBox="0 0 27 29" fill="none" xmlns="http://www.w3.org/2000/svg">
<path fill-rule="evenodd" clip-rule="evenodd" d="M22.341 7.7755C21.7433 8.31804 20.8654 8.18579 20.3803 7.48013C19.8952 6.77446 19.9865 5.76255 20.5842 5.22001C21.1819 4.67746 22.0597 4.80971 22.5448 5.51538C23.0299 6.22105 22.9387 7.23296 22.341 7.7755ZM15.9886 1.0914L21.8703 1.97753L25.3839 7.08857L24.7723 13.8688L9.62096 27.622L0.837365 14.8444L15.9887 1.0912L15.9886 1.0914Z" fill="#5AC7DF"/>
<path d="M13.4773 19.0909V8.18182H14.1761V19.0909H13.4773ZM15.8295 11.4545C15.7784 11.0227 15.571 10.6875 15.2074 10.4489C14.8438 10.2102 14.3977 10.0909 13.8693 10.0909C13.483 10.0909 13.1449 10.1534 12.8551 10.2784C12.5682 10.4034 12.3438 10.5753 12.1818 10.794C12.0227 11.0128 11.9432 11.2614 11.9432 11.5398C11.9432 11.7727 11.9986 11.973 12.1094 12.1406C12.223 12.3054 12.3679 12.4432 12.544 12.554C12.7202 12.6619 12.9048 12.7514 13.098 12.8224C13.2912 12.8906 13.4688 12.946 13.6307 12.9886L14.517 13.2273C14.7443 13.2869 14.9972 13.3693 15.2756 13.4744C15.5568 13.5795 15.8253 13.723 16.081 13.9048C16.3395 14.0838 16.5526 14.3139 16.7202 14.5952C16.8878 14.8764 16.9716 15.2216 16.9716 15.6307C16.9716 16.1023 16.848 16.5284 16.6009 16.9091C16.3565 17.2898 15.9986 17.5923 15.527 17.8168C15.0582 18.0412 14.4886 18.1534 13.8182 18.1534C13.1932 18.1534 12.652 18.0526 12.1946 17.8509C11.7401 17.6491 11.3821 17.3679 11.1207 17.0071C10.8622 16.6463 10.7159 16.2273 10.6818 15.75H11.7727C11.8011 16.0795 11.9119 16.3523 12.1051 16.5682C12.3011 16.7812 12.5483 16.9403 12.8466 17.0455C13.1477 17.1477 13.4716 17.1989 13.8182 17.1989C14.2216 17.1989 14.5838 17.1335 14.9048 17.0028C15.2259 16.8693 15.4801 16.6847 15.6676 16.4489C15.8551 16.2102 15.9489 15.9318 15.9489 15.6136C15.9489 15.3239 15.8679 15.0881 15.706 14.9062C15.544 14.7244 15.331 14.5767 15.0668 14.4631C14.8026 14.3494 14.517 14.25 14.2102 14.1648L13.1364 13.858C12.4545 13.6619 11.9148 13.3821 11.517 13.0185C11.1193 12.6548 10.9205 12.179 10.9205 11.5909C10.9205 11.1023 11.0526 10.6761 11.3168 10.3125C11.5838 9.94602 11.9418 9.66193 12.3906 9.46023C12.8423 9.25568 13.3466 9.15341 13.9034 9.15341C14.4659 9.15341 14.9659 9.25426 15.4034 9.45597C15.8409 9.65483 16.1875 9.92756 16.4432 10.2741C16.7017 10.6207 16.8381 11.0142 16.8523 11.4545H15.8295Z" fill="white"/>
</svg>
