<svg width="96" height="98" viewBox="0 0 96 98" fill="none" xmlns="http://www.w3.org/2000/svg">
<ellipse cx="47.7732" cy="49" rx="47.7732" ry="49" fill="#D9BCBC"/>
<path d="M47.7467 8.0099C47.6294 8.01838 47.215 8.04393 46.8279 8.06947C40.4587 8.48202 34.1756 10.7917 28.823 14.6836C26.6765 16.2446 25.0461 17.7035 23.1928 19.7197C21.4256 21.6422 20.0493 23.4415 18.7825 25.4789C18.2586 26.321 18.1452 26.6443 18.1178 27.3717C18.0905 28.1288 18.2195 28.6435 18.5753 29.2092L18.7278 29.4474L18.4932 29.9153C17.895 31.0934 17.0856 33.0075 16.6164 34.3346C15.2676 38.15 14.5168 42.0334 14.3174 46.2018C14.294 46.6909 14.2666 47.0993 14.2588 47.1078C14.251 47.1163 14.2158 47.0525 14.1806 46.9632C14.0164 46.5293 13.5863 46.2869 13.1718 46.3974C13.0076 46.44 12.9255 46.4953 12.7457 46.6909L12.5228 46.9333L12.5111 45.6318L12.4994 44.3302L12.3742 44.041C12.2257 43.7007 11.8972 43.3052 11.6275 43.1478C10.5992 42.5396 9.36366 43.1308 9.05478 44.3728C9.01178 44.5472 9.00004 45.5638 9.00003 49.8172C9.00003 55.5296 8.99221 55.2957 9.22288 55.7551C9.35191 56.0188 9.60995 56.3123 9.85628 56.4782C10.0831 56.627 10.0792 56.6143 10.1143 57.4097C10.1417 58.0988 10.2316 59.0302 10.3528 59.9618C11.5414 69.0345 16.5147 77.2224 23.7597 82.0416C27.2551 84.364 30.9851 85.7974 35.0592 86.3801C36.3182 86.5588 36.9242 86.597 39.0902 86.6183L41.2094 86.6396L41.2289 87.4137C41.2406 87.9709 41.2641 88.2474 41.3149 88.4175C41.6473 89.5872 42.613 90.187 43.8407 89.9913C44.2043 89.936 44.955 89.7786 45.3812 89.6723C46.996 89.2682 50.7025 88.1665 51.2694 87.9283C52.3681 87.4562 52.9546 86.5545 52.7982 85.5634C52.6769 84.802 52.2625 84.2788 51.4493 83.8662C50.722 83.4962 45.8934 82.0969 44.2473 81.7778C43.1057 81.5567 42.4019 81.7182 41.8388 82.3308C41.3775 82.8369 41.2172 83.3729 41.2172 84.4405V85.0573L39.3717 85.0572C37.1549 85.0573 36.2908 85.002 34.7581 84.7595C28.909 83.8323 23.3452 80.74 19.2204 76.1122C18.6261 75.4487 17.7424 74.3598 17.7268 74.2747C17.7151 74.2194 18.0005 74.2109 19.8264 74.2109C21.1987 74.2109 22.012 74.1939 22.1449 74.1641C22.489 74.0876 22.9113 73.8366 23.1772 73.5516C23.4391 73.2667 23.5877 73.0199 23.7363 72.5989L23.8379 72.3181L23.8496 59.6087C23.8614 45.5127 23.8809 46.5931 23.5994 45.9721C23.3296 45.3766 22.7314 44.8704 22.145 44.7386C22.0081 44.7088 21.1128 44.6918 19.5058 44.6918C16.8706 44.6918 16.8041 44.7003 16.3858 44.93L16.1864 45.0363L16.2137 44.7046C16.4679 41.5145 17.2616 37.8777 18.3602 34.8535C18.8372 33.5477 19.5723 31.8251 20.0923 30.8042L20.2448 30.5107L20.8313 30.5065C21.3552 30.5022 21.4451 30.4937 21.7266 30.3874C22.4187 30.1364 22.8175 29.7749 23.3727 28.9029C25.918 24.8962 29.0107 21.6678 32.7094 19.1625C34.3711 18.0311 36.2674 17.0102 38.0894 16.2574C44.7634 13.5011 52.0905 13.3012 58.8506 15.6917C65.3683 17.9971 71.0337 22.5823 74.9161 28.6988C75.0999 28.988 75.3619 29.3495 75.4987 29.4942C76.0539 30.0939 76.8359 30.4044 77.6335 30.3449C77.8094 30.3321 77.9775 30.3151 78.0088 30.3066C78.0753 30.2895 78.2317 30.5831 78.8104 31.8251C80.6049 35.6872 81.7036 39.7195 82.1533 44.1218C82.1963 44.5387 82.2315 44.9172 82.2315 44.9555C82.2315 45.0151 82.2002 45.0108 81.9891 44.9087C81.8522 44.8407 81.6489 44.7641 81.5355 44.7386C81.2501 44.6748 76.57 44.6748 76.2807 44.7386C75.4948 44.9172 74.795 45.6828 74.6268 46.5506C74.5408 46.9801 74.5408 71.9182 74.6229 72.3436C74.795 73.2241 75.4909 73.9897 76.2807 74.1641C76.5661 74.2279 81.2501 74.2279 81.5355 74.164C82.3292 73.9854 83.0213 73.2326 83.1894 72.3606C83.2363 72.1054 83.248 71.2037 83.248 66.2526V60.4381L83.4201 60.4126C83.7094 60.3658 83.9987 60.0851 84.1004 59.7533C84.1629 59.5662 84.1668 47.5331 84.1082 46.2613C83.9049 41.8122 83.0682 37.6821 81.5512 33.6285C81.0703 32.3397 80.2492 30.498 79.6666 29.3964C79.6001 29.2687 79.6001 29.2645 79.7252 29.0646C80.3078 28.1458 80.3782 26.9123 79.9012 25.934C79.7331 25.581 78.8494 24.2369 78.1769 23.3096C76.1869 20.5534 73.8722 18.0906 71.3035 15.9937C66.6586 12.2038 61.4077 9.71556 55.7032 8.60112C54.542 8.37571 53.0328 8.17581 51.6761 8.06947C51.1052 8.02269 48.1768 7.98011 47.7467 8.0099ZM14.4152 59.966C14.5716 60.2085 14.8101 60.3871 15.0134 60.4169L15.1776 60.4424L15.1776 65.351C15.1776 68.3199 15.162 70.251 15.1424 70.2382C15.0994 70.2084 14.6067 69.2259 14.3057 68.5751C12.7261 65.134 11.7877 61.3101 11.5414 57.3246C11.4984 56.627 11.4984 56.6228 11.5805 56.559C12.0693 56.1889 12.3156 55.8614 12.4407 55.419C12.5111 55.1766 12.5189 55.0235 12.5189 53.9389C12.5189 53.2753 12.5306 52.7309 12.5502 52.7309C12.5658 52.7351 12.6127 52.7947 12.6557 52.867C12.7926 53.1052 13.035 53.2583 13.3126 53.2753C13.7036 53.3008 13.9968 53.1222 14.1689 52.7394L14.2588 52.5395L14.2783 56.1634L14.2979 59.7831L14.4152 59.966Z" fill="black"/>
</svg>
