<svg width="98" height="98" viewBox="0 0 98 98" fill="none" xmlns="http://www.w3.org/2000/svg">
<circle cx="49" cy="49" r="49" fill="#D9BCBC"/>
<path d="M48.9728 8.0099C48.8525 8.01838 48.4274 8.04393 48.0304 8.06947C41.4977 8.48202 35.0533 10.7917 29.5632 14.6836C27.3616 16.2446 25.6893 17.7035 23.7884 19.7197C21.9758 21.6422 20.5642 23.4415 19.2648 25.4789C18.7275 26.321 18.6112 26.6443 18.5831 27.3717C18.555 28.1288 18.6874 28.6435 19.0523 29.2092L19.2087 29.4474L18.9681 29.9153C18.3545 31.0934 17.5244 33.0075 17.0432 34.3346C15.6596 38.15 14.8897 42.0334 14.6851 46.2018C14.6611 46.6909 14.633 47.0993 14.625 47.1078C14.617 47.1163 14.5809 47.0525 14.5448 46.9631C14.3763 46.5293 13.9352 46.2869 13.5101 46.3974C13.3417 46.44 13.2575 46.4953 13.073 46.6909L12.8444 46.9333L12.8324 45.6318L12.8204 44.3302L12.692 44.041C12.5396 43.7007 12.2028 43.3052 11.9261 43.1478C10.8714 42.5396 9.60414 43.1308 9.28733 44.3728C9.24322 44.5472 9.23118 45.5638 9.23117 49.8172C9.23117 55.5296 9.22315 55.2957 9.45974 55.7551C9.59208 56.0188 9.85675 56.3123 10.1094 56.4782C10.342 56.627 10.338 56.6143 10.3741 57.4097C10.4022 58.0988 10.4944 59.0302 10.6187 59.9618C11.8378 69.0345 16.9389 77.2224 24.3699 82.0416C27.955 84.364 31.7808 85.7974 35.9595 86.3801C37.2508 86.5588 37.8724 86.597 40.0941 86.6183L42.2676 86.6396L42.2877 87.4137C42.2997 87.9709 42.3238 88.2474 42.3759 88.4175C42.7168 89.5872 43.7073 90.187 44.9666 89.9913C45.3395 89.936 46.1094 89.7786 46.5466 89.6723C48.2028 89.2682 52.0045 88.1665 52.586 87.9283C53.7129 87.4562 54.3145 86.5545 54.154 85.5634C54.0297 84.802 53.6046 84.2788 52.7705 83.8662C52.0246 83.4962 47.0719 82.0969 45.3836 81.7778C44.2126 81.5567 43.4908 81.7182 42.9133 82.3308C42.4401 82.8369 42.2757 83.3729 42.2757 84.4405V85.0573L40.3828 85.0572C38.109 85.0573 37.2227 85.002 35.6507 84.7595C29.6514 83.8323 23.9448 80.74 19.714 76.1122C19.1044 75.4487 18.1981 74.3598 18.182 74.2747C18.17 74.2194 18.4628 74.2109 20.3356 74.2109C21.7431 74.2109 22.5773 74.1939 22.7136 74.1641C23.0665 74.0876 23.4996 73.8366 23.7724 73.5516C24.041 73.2667 24.1934 73.0199 24.3458 72.5989L24.4501 72.3181L24.4621 59.6087C24.4742 45.5127 24.4942 46.5931 24.2055 45.9721C23.9287 45.3766 23.3152 44.8704 22.7137 44.7386C22.5733 44.7088 21.655 44.6918 20.0067 44.6918C17.3038 44.6918 17.2357 44.7003 16.8066 44.93L16.602 45.0363L16.6301 44.7046C16.8908 41.5144 17.7049 37.8777 18.8317 34.8535C19.321 33.5477 20.0749 31.8251 20.6083 30.8042L20.7647 30.5107L21.3662 30.5065C21.9036 30.5022 21.9958 30.4937 22.2846 30.3874C22.9944 30.1364 23.4034 29.7749 23.9729 28.9029C26.5836 24.8962 29.7557 21.6678 33.5494 19.1625C35.2538 18.0311 37.1987 17.0102 39.0675 16.2574C45.913 13.5011 53.4282 13.3012 60.3619 15.6917C67.047 17.9971 72.8579 22.5823 76.84 28.6988C77.0285 28.988 77.2972 29.3495 77.4375 29.4942C78.007 30.0939 78.809 30.4044 79.6271 30.3449C79.8076 30.3321 79.98 30.3151 80.0121 30.3066C80.0803 30.2895 80.2407 30.5831 80.8342 31.8251C82.6749 35.6872 83.8018 39.7195 84.263 44.1218C84.3071 44.5387 84.3432 44.9172 84.3432 44.9555C84.3432 45.0151 84.3111 45.0108 84.0945 44.9087C83.9542 44.8407 83.7456 44.7641 83.6293 44.7386C83.3366 44.6748 78.5364 44.6748 78.2396 44.7386C77.4335 44.9172 76.7157 45.6828 76.5433 46.5506C76.455 46.9801 76.455 71.9182 76.5392 72.3436C76.7157 73.224 77.4295 73.9897 78.2396 74.1641C78.5323 74.2279 83.3366 74.2279 83.6293 74.164C84.4434 73.9854 85.1533 73.2326 85.3257 72.3606C85.3738 72.1054 85.3859 71.2037 85.3859 66.2526V60.4381L85.5623 60.4126C85.8591 60.3658 86.1558 60.0851 86.2601 59.7533C86.3242 59.5661 86.3283 47.5331 86.2681 46.2613C86.0596 41.8122 85.2014 37.6821 83.6454 33.6285C83.1521 32.3397 82.31 30.498 81.7124 29.3964C81.6443 29.2687 81.6443 29.2645 81.7726 29.0646C82.3701 28.1458 82.4423 26.9123 81.953 25.934C81.7806 25.581 80.8743 24.2369 80.1845 23.3096C78.1433 20.5534 75.7693 18.0906 73.1346 15.9937C68.3704 12.2038 62.9846 9.71556 57.1337 8.60112C55.9426 8.37571 54.3947 8.17581 53.0031 8.06947C52.4176 8.02269 49.414 7.98011 48.9728 8.0099ZM14.7854 59.966C14.9458 60.2085 15.1904 60.3871 15.399 60.4169L15.5674 60.4424L15.5674 65.351C15.5674 68.3199 15.5513 70.251 15.5313 70.2382C15.4872 70.2084 14.9819 69.2259 14.6731 68.5751C13.0529 65.134 12.0905 61.3101 11.8378 57.3246C11.7937 56.627 11.7937 56.6228 11.8779 56.559C12.3792 56.1889 12.6319 55.8614 12.7602 55.419C12.8324 55.1766 12.8404 55.0235 12.8404 53.9389C12.8404 53.2753 12.8524 52.7309 12.8725 52.7309C12.8885 52.7351 12.9367 52.7947 12.9808 52.867C13.1211 53.1052 13.3697 53.2583 13.6545 53.2753C14.0555 53.3009 14.3563 53.1222 14.5327 52.7394L14.625 52.5395L14.645 56.1634L14.6651 59.7831L14.7854 59.966Z" fill="black"/>
</svg>
