<svg width="71" height="71" viewBox="0 0 71 71" fill="none" xmlns="http://www.w3.org/2000/svg">
<g clip-path="url(#clip0_54_266)">
<path d="M35.5 71C55.1061 71 71 55.1061 71 35.5C71 15.8939 55.1061 0 35.5 0C15.8939 0 0 15.8939 0 35.5C0 55.1061 15.8939 71 35.5 71Z" fill="#7AA5DA"/>
<path d="M70.9895 34.6789L55.2307 18.9463L29.5614 50.2348L48.0442 68.7176C61.459 63.649 71 50.6897 71 35.5002C71 35.2255 70.9957 34.9518 70.9895 34.6789Z" fill="#5786B5"/>
<path d="M53.2108 18.5154C54.6261 17.9632 56.089 19.2015 55.7783 20.6884L49.4313 51.0271C49.1348 52.4495 47.4638 53.0902 46.2924 52.2296L36.711 45.1965L31.8272 50.1833C30.9689 51.0583 29.4891 50.7021 29.121 49.5354L25.5973 38.3499L16.1521 35.5601C14.9114 35.1943 14.8397 33.4684 16.0421 32.9974L53.2108 18.5154ZM48.5515 25.2472C48.9651 24.8814 48.4846 24.236 48.016 24.5276L27.6291 37.1713C27.2705 37.3936 27.1057 37.8311 27.2323 38.2351L30.0125 50.4437C30.0675 50.6303 30.3352 50.6039 30.3592 50.4103L30.9807 41.1063C31.0046 40.8768 31.1145 40.6664 31.2868 40.5134L48.5515 25.2472Z" fill="white"/>
<path d="M48.0161 24.5276C48.4847 24.236 48.9652 24.8814 48.5517 25.2472L31.287 40.5135C31.1149 40.6664 31.005 40.8768 30.981 41.1063L30.3595 50.4103C30.3356 50.6039 30.0678 50.6303 30.0128 50.4437L27.2325 38.2351C27.1058 37.8311 27.2708 37.3936 27.6294 37.1713L48.0161 24.5276Z" fill="#9EC2E5"/>
<path d="M30.1132 50.5703C29.6637 50.4102 29.2836 50.0516 29.1211 49.5352L25.5974 38.3496L16.1522 35.5598C14.9115 35.194 14.8398 33.4681 16.0423 32.9972L53.2108 18.5152C54.1239 18.159 55.0587 18.5487 55.5201 19.2707C55.434 19.1393 55.3312 19.0174 55.2165 18.9098L30.0007 39.4949V40.3961L29.862 40.2957L30.0007 45.971V50.5226C30.0366 50.5394 30.0747 50.5537 30.113 50.5656V50.5703H30.1132Z" fill="white"/>
<path d="M55.8189 20.1791C55.8261 20.3416 55.8142 20.5137 55.7782 20.6883L49.4312 51.0271C49.1348 52.4494 47.4638 53.0901 46.2924 52.2295L36.711 45.1964L30.0007 40.3962V39.495L55.2165 18.9097C55.3312 19.0173 55.4341 19.1392 55.52 19.2706C55.5368 19.2993 55.5535 19.3255 55.5702 19.3519C55.5845 19.3806 55.6013 19.4093 55.6157 19.4355C55.63 19.4642 55.6444 19.4929 55.6564 19.5216C55.6706 19.5527 55.6827 19.5814 55.6946 19.6125C55.7042 19.6388 55.7161 19.6674 55.7257 19.6986C55.7568 19.7918 55.7806 19.8874 55.7974 19.9878C55.8069 20.05 55.8142 20.1122 55.8189 20.1791Z" fill="#D1D1D1"/>
<path d="M36.711 45.1966L31.8271 50.1834C31.7865 50.224 31.7435 50.2646 31.7004 50.3006C31.6574 50.3365 31.6142 50.3675 31.5689 50.3986C31.5665 50.401 31.5665 50.401 31.5665 50.401C31.4757 50.4607 31.3825 50.5109 31.2845 50.5516C31.2343 50.5707 31.1864 50.5898 31.1362 50.6018C30.9282 50.6639 30.7155 50.6807 30.5051 50.6592C30.4502 50.6545 30.3952 50.6449 30.3426 50.6353C30.3354 50.6353 30.3283 50.633 30.3211 50.6306C30.2686 50.6163 30.2159 50.6019 30.1633 50.5851C30.1465 50.5804 30.1299 50.5756 30.1131 50.566L30.0008 45.9714V40.3965L36.711 45.1966Z" fill="#D1D1D1"/>
<path d="M31.7004 50.3003C31.6574 50.3362 31.6143 50.3696 31.5689 50.4007V50.3983C31.6144 50.3673 31.6574 50.3362 31.7004 50.3003Z" fill="#DADDE0"/>
<path d="M31.5696 50.3984V50.4015C31.5696 50.4015 31.5696 50.3984 31.5666 50.4015C31.5666 50.4015 31.5666 50.4015 31.5696 50.3984Z" fill="#DADDE0"/>
<path d="M31.2845 50.5515C31.3826 50.5108 31.4758 50.4606 31.5666 50.4009C31.4758 50.4605 31.3801 50.5107 31.2845 50.5515Z" fill="#DADDE0"/>
<path d="M30.5052 50.659C30.7156 50.6805 30.9283 50.6637 31.1363 50.6016C30.9857 50.6494 30.8302 50.6709 30.6749 50.6709C30.6271 50.6709 30.5792 50.6685 30.5339 50.6637C30.5243 50.6638 30.5148 50.6638 30.5052 50.659Z" fill="#DADDE0"/>
<path d="M30.6749 50.6708C30.6271 50.6708 30.5792 50.6684 30.5339 50.6636C30.5792 50.6684 30.6271 50.6708 30.6749 50.6708Z" fill="white"/>
<path d="M30.5052 50.659C30.5148 50.6637 30.5243 50.6637 30.5339 50.6637C30.4837 50.6613 30.4382 50.6541 30.3905 50.6445C30.4286 50.6519 30.4669 50.6566 30.5052 50.659Z" fill="white"/>
<path d="M30.5052 50.6591C30.4669 50.6567 30.4286 50.6519 30.3905 50.6448C30.3737 50.6425 30.3571 50.6401 30.3427 50.6353C30.3952 50.6448 30.4501 50.6544 30.5052 50.6591Z" fill="#DADDE0"/>
<path d="M30.1633 50.585C30.2159 50.6017 30.2686 50.616 30.3211 50.6304C30.2996 50.6257 30.2781 50.6209 30.2567 50.6162C30.2471 50.6138 30.2375 50.6114 30.2303 50.6066C30.2087 50.6017 30.1848 50.5945 30.1633 50.585Z" fill="#DADDE0"/>
<path d="M30.2565 50.6162C30.278 50.6209 30.2995 50.6258 30.321 50.6305C30.2995 50.6281 30.278 50.6234 30.2565 50.6162Z" fill="white"/>
<path d="M30.1634 50.5852C30.1849 50.5947 30.2089 50.6019 30.2303 50.6067C30.1944 50.5994 30.1587 50.5875 30.1227 50.5732C30.137 50.578 30.149 50.5828 30.1634 50.5852Z" fill="white"/>
<path d="M30.1634 50.5849C30.1491 50.5826 30.137 50.5777 30.1227 50.573C30.1204 50.5754 30.1155 50.573 30.1132 50.5706V50.5659C30.1298 50.5753 30.1466 50.5801 30.1634 50.5849Z" fill="#DADDE0"/>
<path d="M30.0007 45.9712L30.113 50.5658C30.0747 50.5539 30.0364 50.5395 30.0007 50.5228V45.9712Z" fill="#D1D1D1"/>
<path d="M30.0007 40.3963V45.9712L29.862 40.2959L30.0007 40.3963Z" fill="#DADDE0"/>
<path d="M48.5515 25.2471L31.2869 40.5134C31.1148 40.6663 31.0048 40.8767 30.9808 41.1062L30.3604 50.4111C30.3365 50.6047 30.0688 50.631 30.0113 50.4445L27.2324 38.2351C27.1056 37.8312 27.2706 37.3937 27.6292 37.1714L48.0161 24.5277C48.4847 24.2359 48.9652 24.8814 48.5515 25.2471Z" fill="#ADBCC9"/>
</g>
<defs>
<clipPath id="clip0_54_266">
<rect width="71" height="71" fill="white"/>
</clipPath>
</defs>
</svg>
