<svg width="71" height="71" viewBox="0 0 71 71" fill="none" xmlns="http://www.w3.org/2000/svg">
<path d="M35.5 71C55.1061 71 71 55.1061 71 35.5C71 15.8939 55.1061 0 35.5 0C15.8939 0 0 15.8939 0 35.5C0 55.1061 15.8939 71 35.5 71Z" fill="#25D366"/>
<path d="M15.62 55.4756L18.4281 45.2139C16.6924 42.2046 15.7807 38.7909 15.785 35.3169C15.785 24.402 24.6697 15.5215 35.5818 15.5215C38.183 15.5218 40.7587 16.0347 43.1617 17.0309C45.5646 18.027 47.7477 19.4868 49.5863 21.3269C51.4249 23.1671 52.8829 25.3514 53.877 27.7552C54.8711 30.159 55.3818 32.7351 55.38 35.3363C55.38 46.2512 46.4939 55.1331 35.5832 55.1331H35.5749C32.2696 55.1329 29.0171 54.3043 26.1147 52.723L15.62 55.4756ZM26.6 49.1383L27.2019 49.4947C29.7372 50.9963 32.6296 51.7885 35.5763 51.7883H35.5832C44.6523 51.7883 52.0338 44.4068 52.038 35.3335C52.0381 32.7841 51.4458 30.2695 50.3078 27.9881C49.1699 25.7067 47.5173 23.7209 45.4806 22.1875C43.4439 20.654 41.0788 19.6147 38.5717 19.1517C36.0647 18.6887 33.4843 18.8145 31.0342 19.5193C28.5841 20.2241 26.3313 21.4886 24.4535 23.213C22.5757 24.9374 21.1243 27.0745 20.2137 29.4558C19.3031 31.8371 18.9584 34.3974 19.2066 36.9348C19.4548 39.4721 20.2891 41.9171 21.6439 44.0768L22.035 44.6994L20.3709 50.7719L26.6 49.1383Z" fill="white"/>
<path fill-rule="evenodd" clip-rule="evenodd" d="M45.5565 40.0429C45.4331 39.8363 45.103 39.7129 44.608 39.4646C44.1129 39.2164 41.682 38.0211 41.2286 37.8574C40.7751 37.6938 40.4451 37.6092 40.1192 38.1057C39.7933 38.6021 38.842 39.7156 38.5536 40.0471C38.2651 40.3785 37.9767 40.4187 37.4816 40.1705C36.9866 39.9223 35.3932 39.4009 33.5045 37.7146C32.0332 36.4028 31.0403 34.7831 30.7533 34.288C30.4662 33.793 30.7228 33.5253 30.9696 33.2785C31.1929 33.0566 31.4647 32.7002 31.7115 32.4118C31.9154 32.1595 32.0821 31.8793 32.2066 31.5798C32.2721 31.4432 32.3026 31.2925 32.2954 31.1412C32.2881 30.9898 32.2433 30.8427 32.165 30.7131C32.0415 30.4648 31.0556 28.0312 30.6396 27.041C30.2388 26.0703 29.8297 26.209 29.5302 26.191C29.2307 26.173 28.9117 26.1743 28.5817 26.1743C28.3311 26.1809 28.0846 26.2393 27.8577 26.3457C27.6307 26.4522 27.4282 26.6044 27.2629 26.7928C26.8095 27.2879 25.5323 28.4846 25.5323 30.9197C25.5323 33.3548 27.3045 35.7066 27.5527 36.0367C27.801 36.3667 31.0403 41.3631 36.0034 43.5055C36.9245 43.9027 37.866 44.2508 38.824 44.5484C39.8328 44.8548 40.8993 44.9218 41.9386 44.7439C42.8898 44.6052 44.8659 43.5471 45.2778 42.3865C45.6896 41.2258 45.6799 40.2495 45.5565 40.0429Z" fill="white"/>
</svg>
