<svg width="50" height="50" viewBox="0 0 50 50" fill="none" xmlns="http://www.w3.org/2000/svg">
<path d="M50 25C50 11.1933 38.8067 -3.8147e-06 25 -3.8147e-06C23.2617 -3.8147e-06 21.5633 0.176662 19.925 0.514996C8.55167 2.86 0 12.9317 0 25C0 38.8067 11.1933 50 25 50C37.0683 50 47.14 41.4483 49.485 30.075C49.8233 28.4367 50 26.7383 50 25Z" fill="#00D49F"/>
<path d="M41.265 38.2949H10.0533V10.3882H41.265V38.2949Z" fill="#00A87E"/>
<path d="M39.9466 39.6116H8.73499V11.7049H39.9466V39.6116Z" fill="#4A4144"/>
<path d="M39.9466 39.6116H8.73499V35.7399H39.9466V39.6116Z" fill="#2E282B"/>
<path d="M11.1367 37.1266C11.4404 37.1266 11.6867 37.3728 11.6867 37.6766C11.6867 37.9803 11.4404 38.2266 11.1367 38.2266C10.8329 38.2266 10.5867 37.9803 10.5867 37.6766C10.5867 37.3728 10.8329 37.1266 11.1367 37.1266Z" fill="#FF363E"/>
<path d="M12.8367 37.1266C13.1404 37.1266 13.3867 37.3728 13.3867 37.6766C13.3867 37.9803 13.1404 38.2266 12.8367 38.2266C12.5329 38.2266 12.2867 37.9803 12.2867 37.6766C12.2867 37.3728 12.5329 37.1266 12.8367 37.1266Z" fill="#FFDF21"/>
<path d="M14.5366 37.1266C14.8404 37.1266 15.0866 37.3728 15.0866 37.6766C15.0866 37.9803 14.8404 38.2266 14.5366 38.2266C14.2329 38.2266 13.9866 37.9803 13.9866 37.6766C13.9866 37.3728 14.2329 37.1266 14.5366 37.1266Z" fill="#3CFFA1"/>
<path d="M20.6966 26.3549L18.2166 23.7333L20.695 21.1433L19.6233 20.0233L16.1066 23.7333L19.625 27.4583L20.6966 26.3549Z" fill="#3B3436"/>
<path d="M28.4516 29.4565L23.2066 18.2482H21.3516L26.5483 29.4565H28.4516Z" fill="#3B3436"/>
<path d="M30.2583 27.4583L33.7766 23.7333L30.2583 20.0233L29.1866 21.1433L31.665 23.7333L29.1866 26.3549L30.2583 27.4583Z" fill="#3B3436"/>
<path d="M20.0967 27.0317L17.6167 24.41L20.095 21.82L19.0233 20.7L15.505 24.41L19.0233 28.135L20.0967 27.0317Z" fill="#8DC63F"/>
<path d="M27.8517 30.1333L22.6067 18.925H20.7516L25.9483 30.1333H27.8517Z" fill="#8DC63F"/>
<path d="M29.6583 28.135L33.1767 24.41L29.6583 20.7L28.5867 21.82L31.065 24.41L28.5867 27.0317L29.6583 28.135Z" fill="#8DC63F"/>
</svg>


