<svg width="575" height="798" viewBox="0 0 575 798" fill="none" xmlns="http://www.w3.org/2000/svg">
<path d="M0 25C0 11.1929 11.1929 0 25 0H550C563.807 0 575 11.1929 575 25V652H0V25Z" fill="#E3E3E3"/>
<rect x="479" y="21" width="24" height="24" stroke="black" stroke-width="2"/>
<ellipse cx="44" cy="164.5" rx="11" ry="9.5" fill="#666666"/>
<line x1="523.727" y1="19.3134" x2="547.569" y2="44.5578" stroke="black" stroke-width="2"/>
<line x1="523.74" y1="43.8887" x2="548.293" y2="19.3355" stroke="black" stroke-width="2"/>
<line x1="433" y1="42" x2="459" y2="42" stroke="black" stroke-width="2"/>
<g filter="url(#filter0_d_20_103)">
<path fill-rule="evenodd" clip-rule="evenodd" d="M53 37C44.7157 37 38 43.7157 38 52V75H15V754H559V75H206V52C206 43.7157 199.284 37 191 37H53Z" fill="#FDFDFD"/>
</g>
<path d="M94.1016 60.2559H91.9102L91.8984 59.0488H93.7383C94.0625 59.0488 94.3281 59.0078 94.5352 58.9258C94.7422 58.8398 94.8965 58.7168 94.998 58.5566C95.1035 58.3926 95.1562 58.1934 95.1562 57.959C95.1562 57.6934 95.1055 57.4785 95.0039 57.3145C94.9062 57.1504 94.752 57.0312 94.541 56.957C94.334 56.8828 94.0664 56.8457 93.7383 56.8457H92.5195V64H90.7617V55.4688H93.7383C94.2344 55.4688 94.6777 55.5156 95.0684 55.6094C95.4629 55.7031 95.7969 55.8457 96.0703 56.0371C96.3438 56.2285 96.5527 56.4707 96.6973 56.7637C96.8418 57.0527 96.9141 57.3965 96.9141 57.7949C96.9141 58.1465 96.834 58.4707 96.6738 58.7676C96.5176 59.0645 96.2695 59.3066 95.9297 59.4941C95.5938 59.6816 95.1543 59.7852 94.6113 59.8047L94.1016 60.2559ZM94.0254 64H91.4297L92.1152 62.6289H94.0254C94.334 62.6289 94.5859 62.5801 94.7812 62.4824C94.9766 62.3809 95.1211 62.2441 95.2148 62.0723C95.3086 61.9004 95.3555 61.7031 95.3555 61.4805C95.3555 61.2305 95.3125 61.0137 95.2266 60.8301C95.1445 60.6465 95.0117 60.5059 94.8281 60.4082C94.6445 60.3066 94.4023 60.2559 94.1016 60.2559H92.4082L92.4199 59.0488H94.5293L94.9336 59.5234C95.4531 59.5156 95.8711 59.6074 96.1875 59.7988C96.5078 59.9863 96.7402 60.2305 96.8848 60.5312C97.0332 60.832 97.1074 61.1543 97.1074 61.498C97.1074 62.0449 96.9883 62.5059 96.75 62.8809C96.5117 63.252 96.1621 63.5312 95.7012 63.7188C95.2441 63.9062 94.6855 64 94.0254 64ZM100.008 59.043V64H98.3203V57.6602H99.9082L100.008 59.043ZM101.918 57.6191L101.889 59.1836C101.807 59.1719 101.707 59.1621 101.59 59.1543C101.477 59.1426 101.373 59.1367 101.279 59.1367C101.041 59.1367 100.834 59.168 100.658 59.2305C100.486 59.2891 100.342 59.377 100.225 59.4941C100.111 59.6113 100.025 59.7539 99.9668 59.9219C99.9121 60.0898 99.8809 60.2812 99.873 60.4961L99.5332 60.3906C99.5332 59.9805 99.5742 59.6035 99.6562 59.2598C99.7383 58.9121 99.8574 58.6094 100.014 58.3516C100.174 58.0938 100.369 57.8945 100.6 57.7539C100.83 57.6133 101.094 57.543 101.391 57.543C101.484 57.543 101.58 57.5508 101.678 57.5664C101.775 57.5781 101.855 57.5957 101.918 57.6191ZM105.938 62.5703V59.7461C105.938 59.543 105.904 59.3691 105.838 59.2246C105.771 59.0762 105.668 58.9609 105.527 58.8789C105.391 58.7969 105.213 58.7559 104.994 58.7559C104.807 58.7559 104.645 58.7891 104.508 58.8555C104.371 58.918 104.266 59.0098 104.191 59.1309C104.117 59.248 104.08 59.3867 104.08 59.5469H102.393C102.393 59.2773 102.455 59.0215 102.58 58.7793C102.705 58.5371 102.887 58.3242 103.125 58.1406C103.363 57.9531 103.646 57.8066 103.975 57.7012C104.307 57.5957 104.678 57.543 105.088 57.543C105.58 57.543 106.018 57.625 106.4 57.7891C106.783 57.9531 107.084 58.1992 107.303 58.5273C107.525 58.8555 107.637 59.2656 107.637 59.7578V62.4707C107.637 62.8184 107.658 63.1035 107.701 63.3262C107.744 63.5449 107.807 63.7363 107.889 63.9004V64H106.184C106.102 63.8281 106.039 63.6133 105.996 63.3555C105.957 63.0938 105.938 62.832 105.938 62.5703ZM106.16 60.1387L106.172 61.0938H105.229C105.006 61.0938 104.812 61.1191 104.648 61.1699C104.484 61.2207 104.35 61.293 104.244 61.3867C104.139 61.4766 104.061 61.582 104.01 61.7031C103.963 61.8242 103.939 61.957 103.939 62.1016C103.939 62.2461 103.973 62.377 104.039 62.4941C104.105 62.6074 104.201 62.6973 104.326 62.7637C104.451 62.8262 104.598 62.8574 104.766 62.8574C105.02 62.8574 105.24 62.8066 105.428 62.7051C105.615 62.6035 105.76 62.4785 105.861 62.3301C105.967 62.1816 106.021 62.041 106.025 61.9082L106.471 62.623C106.408 62.7832 106.322 62.9492 106.213 63.1211C106.107 63.293 105.973 63.4551 105.809 63.6074C105.645 63.7559 105.447 63.8789 105.217 63.9766C104.986 64.0703 104.713 64.1172 104.396 64.1172C103.994 64.1172 103.629 64.0371 103.301 63.877C102.977 63.7129 102.719 63.4883 102.527 63.2031C102.34 62.9141 102.246 62.5859 102.246 62.2188C102.246 61.8867 102.309 61.5918 102.434 61.334C102.559 61.0762 102.742 60.8594 102.984 60.6836C103.23 60.5039 103.537 60.3691 103.904 60.2793C104.271 60.1855 104.697 60.1387 105.182 60.1387H106.16ZM110.59 59.0137V64H108.902V57.6602H110.484L110.59 59.0137ZM110.344 60.6074H109.887C109.887 60.1387 109.947 59.7168 110.068 59.3418C110.189 58.9629 110.359 58.6406 110.578 58.375C110.797 58.1055 111.057 57.9004 111.357 57.7598C111.662 57.6152 112.002 57.543 112.377 57.543C112.674 57.543 112.945 57.5859 113.191 57.6719C113.438 57.7578 113.648 57.8945 113.824 58.082C114.004 58.2695 114.141 58.5176 114.234 58.8262C114.332 59.1348 114.381 59.5117 114.381 59.957V64H112.682V59.9512C112.682 59.6699 112.643 59.4512 112.564 59.2949C112.486 59.1387 112.371 59.0293 112.219 58.9668C112.07 58.9004 111.887 58.8672 111.668 58.8672C111.441 58.8672 111.244 58.9121 111.076 59.002C110.912 59.0918 110.775 59.2168 110.666 59.377C110.561 59.5332 110.48 59.7168 110.426 59.9277C110.371 60.1387 110.344 60.3652 110.344 60.6074ZM119.408 62.6172V55H121.107V64H119.578L119.408 62.6172ZM115.4 60.9062V60.7832C115.4 60.2988 115.455 59.8594 115.564 59.4648C115.674 59.0664 115.834 58.7246 116.045 58.4395C116.256 58.1543 116.516 57.9336 116.824 57.7773C117.133 57.6211 117.484 57.543 117.879 57.543C118.25 57.543 118.574 57.6211 118.852 57.7773C119.133 57.9336 119.371 58.1562 119.566 58.4453C119.766 58.7305 119.926 59.0684 120.047 59.459C120.168 59.8457 120.256 60.2695 120.311 60.7305V61C120.256 61.4414 120.168 61.8516 120.047 62.2305C119.926 62.6094 119.766 62.9414 119.566 63.2266C119.371 63.5078 119.133 63.7266 118.852 63.8828C118.57 64.0391 118.242 64.1172 117.867 64.1172C117.473 64.1172 117.121 64.0371 116.812 63.877C116.508 63.7168 116.25 63.4922 116.039 63.2031C115.832 62.9141 115.674 62.5742 115.564 62.1836C115.455 61.793 115.4 61.3672 115.4 60.9062ZM117.088 60.7832V60.9062C117.088 61.168 117.107 61.4121 117.146 61.6387C117.189 61.8652 117.258 62.0664 117.352 62.2422C117.449 62.4141 117.574 62.5488 117.727 62.6465C117.883 62.7402 118.072 62.7871 118.295 62.7871C118.584 62.7871 118.822 62.7227 119.01 62.5938C119.197 62.4609 119.34 62.2793 119.438 62.0488C119.539 61.8184 119.598 61.5527 119.613 61.252V60.4844C119.602 60.2383 119.566 60.0176 119.508 59.8223C119.453 59.623 119.371 59.4531 119.262 59.3125C119.156 59.1719 119.023 59.0625 118.863 58.9844C118.707 58.9062 118.521 58.8672 118.307 58.8672C118.088 58.8672 117.9 58.918 117.744 59.0195C117.588 59.1172 117.461 59.252 117.363 59.4238C117.27 59.5957 117.199 59.7988 117.152 60.0332C117.109 60.2637 117.088 60.5137 117.088 60.7832Z" fill="black"/>
<line x1="171.727" y1="50.3134" x2="188.206" y2="67.7617" stroke="black" stroke-width="2"/>
<line x1="171.293" y1="67.2929" x2="188.263" y2="50.3223" stroke="black" stroke-width="2"/>
<circle cx="57.5" cy="59.5" r="15.5" fill="#826C6C"/>
<rect x="40" y="92" width="493" height="25" rx="12.5" fill="#C4C4C4"/>
<path d="M59.4668 106.359L60.7852 101.66H61.8574L61.5117 103.506L60.1934 108H59.2969L59.4668 106.359ZM58.7988 101.66L59.7422 106.354L59.8301 108H58.7754L57.1699 101.66H58.7988ZM63.0645 106.277L63.9844 101.66H65.6191L64.0137 108H62.9648L63.0645 106.277ZM62.0039 101.66L63.3164 106.324L63.498 108H62.5957L61.2773 103.512L60.9434 101.66H62.0039ZM68.2793 106.359L69.5977 101.66H70.6699L70.3242 103.506L69.0059 108H68.1094L68.2793 106.359ZM67.6113 101.66L68.5547 106.354L68.6426 108H67.5879L65.9824 101.66H67.6113ZM71.877 106.277L72.7969 101.66H74.4316L72.8262 108H71.7773L71.877 106.277ZM70.8164 101.66L72.1289 106.324L72.3105 108H71.4082L70.0898 103.512L69.7559 101.66H70.8164ZM77.0918 106.359L78.4102 101.66H79.4824L79.1367 103.506L77.8184 108H76.9219L77.0918 106.359ZM76.4238 101.66L77.3672 106.354L77.4551 108H76.4004L74.7949 101.66H76.4238ZM80.6895 106.277L81.6094 101.66H83.2441L81.6387 108H80.5898L80.6895 106.277ZM79.6289 101.66L80.9414 106.324L81.123 108H80.2207L78.9023 103.512L78.5684 101.66H79.6289ZM83.4492 107.186C83.4492 106.936 83.5352 106.727 83.707 106.559C83.8828 106.391 84.1152 106.307 84.4043 106.307C84.6934 106.307 84.9238 106.391 85.0957 106.559C85.2715 106.727 85.3594 106.936 85.3594 107.186C85.3594 107.436 85.2715 107.645 85.0957 107.812C84.9238 107.98 84.6934 108.064 84.4043 108.064C84.1152 108.064 83.8828 107.98 83.707 107.812C83.5352 107.645 83.4492 107.436 83.4492 107.186ZM89.7656 108.117C89.2734 108.117 88.832 108.039 88.4414 107.883C88.0508 107.723 87.7188 107.502 87.4453 107.221C87.1758 106.939 86.9688 106.613 86.8242 106.242C86.6797 105.867 86.6074 105.469 86.6074 105.047V104.812C86.6074 104.332 86.6758 103.893 86.8125 103.494C86.9492 103.096 87.1445 102.75 87.3984 102.457C87.6562 102.164 87.9688 101.939 88.3359 101.783C88.7031 101.623 89.1172 101.543 89.5781 101.543C90.0273 101.543 90.4258 101.617 90.7734 101.766C91.1211 101.914 91.4121 102.125 91.6465 102.398C91.8848 102.672 92.0645 103 92.1855 103.383C92.3066 103.762 92.3672 104.184 92.3672 104.648V105.352H87.3281V104.227H90.709V104.098C90.709 103.863 90.666 103.654 90.5801 103.471C90.498 103.283 90.373 103.135 90.2051 103.025C90.0371 102.916 89.8223 102.861 89.5605 102.861C89.3379 102.861 89.1465 102.91 88.9863 103.008C88.8262 103.105 88.6953 103.242 88.5938 103.418C88.4961 103.594 88.4219 103.801 88.3711 104.039C88.3242 104.273 88.3008 104.531 88.3008 104.812V105.047C88.3008 105.301 88.3359 105.535 88.4062 105.75C88.4805 105.965 88.584 106.15 88.7168 106.307C88.8535 106.463 89.0176 106.584 89.209 106.67C89.4043 106.756 89.625 106.799 89.8711 106.799C90.1758 106.799 90.459 106.74 90.7207 106.623C90.9863 106.502 91.2148 106.32 91.4062 106.078L92.2266 106.969C92.0938 107.16 91.9121 107.344 91.6816 107.52C91.4551 107.695 91.1816 107.84 90.8613 107.953C90.541 108.062 90.1758 108.117 89.7656 108.117ZM94.6875 101.66L95.7363 103.588L96.8145 101.66H98.6133L96.8203 104.76L98.6953 108H96.8906L95.748 105.961L94.6055 108H92.8008L94.6758 104.76L92.8828 101.66H94.6875ZM102.855 106.57V103.746C102.855 103.543 102.822 103.369 102.756 103.225C102.689 103.076 102.586 102.961 102.445 102.879C102.309 102.797 102.131 102.756 101.912 102.756C101.725 102.756 101.562 102.789 101.426 102.855C101.289 102.918 101.184 103.01 101.109 103.131C101.035 103.248 100.998 103.387 100.998 103.547H99.3105C99.3105 103.277 99.373 103.021 99.498 102.779C99.623 102.537 99.8047 102.324 100.043 102.141C100.281 101.953 100.564 101.807 100.893 101.701C101.225 101.596 101.596 101.543 102.006 101.543C102.498 101.543 102.936 101.625 103.318 101.789C103.701 101.953 104.002 102.199 104.221 102.527C104.443 102.855 104.555 103.266 104.555 103.758V106.471C104.555 106.818 104.576 107.104 104.619 107.326C104.662 107.545 104.725 107.736 104.807 107.9V108H103.102C103.02 107.828 102.957 107.613 102.914 107.355C102.875 107.094 102.855 106.832 102.855 106.57ZM103.078 104.139L103.09 105.094H102.146C101.924 105.094 101.73 105.119 101.566 105.17C101.402 105.221 101.268 105.293 101.162 105.387C101.057 105.477 100.979 105.582 100.928 105.703C100.881 105.824 100.857 105.957 100.857 106.102C100.857 106.246 100.891 106.377 100.957 106.494C101.023 106.607 101.119 106.697 101.244 106.764C101.369 106.826 101.516 106.857 101.684 106.857C101.938 106.857 102.158 106.807 102.346 106.705C102.533 106.604 102.678 106.479 102.779 106.33C102.885 106.182 102.939 106.041 102.943 105.908L103.389 106.623C103.326 106.783 103.24 106.949 103.131 107.121C103.025 107.293 102.891 107.455 102.727 107.607C102.562 107.756 102.365 107.879 102.135 107.977C101.904 108.07 101.631 108.117 101.314 108.117C100.912 108.117 100.547 108.037 100.219 107.877C99.8945 107.713 99.6367 107.488 99.4453 107.203C99.2578 106.914 99.1641 106.586 99.1641 106.219C99.1641 105.887 99.2266 105.592 99.3516 105.334C99.4766 105.076 99.6602 104.859 99.9023 104.684C100.148 104.504 100.455 104.369 100.822 104.279C101.189 104.186 101.615 104.139 102.1 104.139H103.078ZM107.543 102.973V108H105.85V101.66H107.438L107.543 102.973ZM107.309 104.607H106.84C106.84 104.166 106.893 103.76 106.998 103.389C107.107 103.014 107.266 102.689 107.473 102.416C107.684 102.139 107.943 101.924 108.252 101.771C108.561 101.619 108.918 101.543 109.324 101.543C109.605 101.543 109.863 101.586 110.098 101.672C110.332 101.754 110.533 101.885 110.701 102.064C110.873 102.24 111.006 102.471 111.1 102.756C111.193 103.037 111.24 103.375 111.24 103.77V108H109.553V103.957C109.553 103.668 109.514 103.445 109.436 103.289C109.357 103.133 109.246 103.023 109.102 102.961C108.961 102.898 108.791 102.867 108.592 102.867C108.373 102.867 108.182 102.912 108.018 103.002C107.857 103.092 107.725 103.217 107.619 103.377C107.514 103.533 107.436 103.717 107.385 103.928C107.334 104.139 107.309 104.365 107.309 104.607ZM111.082 104.414L110.479 104.49C110.479 104.076 110.529 103.691 110.631 103.336C110.736 102.98 110.891 102.668 111.094 102.398C111.301 102.129 111.557 101.92 111.861 101.771C112.166 101.619 112.518 101.543 112.916 101.543C113.221 101.543 113.498 101.588 113.748 101.678C113.998 101.764 114.211 101.902 114.387 102.094C114.566 102.281 114.703 102.527 114.797 102.832C114.895 103.137 114.943 103.51 114.943 103.951V108H113.25V103.951C113.25 103.658 113.211 103.436 113.133 103.283C113.059 103.127 112.949 103.02 112.805 102.961C112.664 102.898 112.496 102.867 112.301 102.867C112.098 102.867 111.92 102.908 111.768 102.99C111.615 103.068 111.488 103.178 111.387 103.318C111.285 103.459 111.209 103.623 111.158 103.811C111.107 103.994 111.082 104.195 111.082 104.414ZM117.938 102.879V110.438H116.25V101.66H117.814L117.938 102.879ZM121.951 104.76V104.883C121.951 105.344 121.896 105.771 121.787 106.166C121.682 106.561 121.525 106.904 121.318 107.197C121.111 107.486 120.854 107.713 120.545 107.877C120.24 108.037 119.889 108.117 119.49 108.117C119.104 108.117 118.768 108.039 118.482 107.883C118.197 107.727 117.957 107.508 117.762 107.227C117.57 106.941 117.416 106.611 117.299 106.236C117.182 105.861 117.092 105.459 117.029 105.029V104.707C117.092 104.246 117.182 103.824 117.299 103.441C117.416 103.055 117.57 102.721 117.762 102.439C117.957 102.154 118.195 101.934 118.477 101.777C118.762 101.621 119.096 101.543 119.479 101.543C119.881 101.543 120.234 101.619 120.539 101.771C120.848 101.924 121.105 102.143 121.312 102.428C121.523 102.713 121.682 103.053 121.787 103.447C121.896 103.842 121.951 104.279 121.951 104.76ZM120.258 104.883V104.76C120.258 104.49 120.234 104.242 120.188 104.016C120.145 103.785 120.074 103.584 119.977 103.412C119.883 103.24 119.758 103.107 119.602 103.014C119.449 102.916 119.264 102.867 119.045 102.867C118.814 102.867 118.617 102.904 118.453 102.979C118.293 103.053 118.162 103.16 118.061 103.301C117.959 103.441 117.883 103.609 117.832 103.805C117.781 104 117.75 104.221 117.738 104.467V105.281C117.758 105.57 117.812 105.83 117.902 106.061C117.992 106.287 118.131 106.467 118.318 106.6C118.506 106.732 118.752 106.799 119.057 106.799C119.279 106.799 119.467 106.75 119.619 106.652C119.771 106.551 119.895 106.412 119.988 106.236C120.086 106.061 120.154 105.857 120.193 105.627C120.236 105.396 120.258 105.148 120.258 104.883ZM124.781 99V108H123.088V99H124.781ZM129.094 108.117C128.602 108.117 128.16 108.039 127.77 107.883C127.379 107.723 127.047 107.502 126.773 107.221C126.504 106.939 126.297 106.613 126.152 106.242C126.008 105.867 125.936 105.469 125.936 105.047V104.812C125.936 104.332 126.004 103.893 126.141 103.494C126.277 103.096 126.473 102.75 126.727 102.457C126.984 102.164 127.297 101.939 127.664 101.783C128.031 101.623 128.445 101.543 128.906 101.543C129.355 101.543 129.754 101.617 130.102 101.766C130.449 101.914 130.74 102.125 130.975 102.398C131.213 102.672 131.393 103 131.514 103.383C131.635 103.762 131.695 104.184 131.695 104.648V105.352H126.656V104.227H130.037V104.098C130.037 103.863 129.994 103.654 129.908 103.471C129.826 103.283 129.701 103.135 129.533 103.025C129.365 102.916 129.15 102.861 128.889 102.861C128.666 102.861 128.475 102.91 128.314 103.008C128.154 103.105 128.023 103.242 127.922 103.418C127.824 103.594 127.75 103.801 127.699 104.039C127.652 104.273 127.629 104.531 127.629 104.812V105.047C127.629 105.301 127.664 105.535 127.734 105.75C127.809 105.965 127.912 106.15 128.045 106.307C128.182 106.463 128.346 106.584 128.537 106.67C128.732 106.756 128.953 106.799 129.199 106.799C129.504 106.799 129.787 106.74 130.049 106.623C130.314 106.502 130.543 106.32 130.734 106.078L131.555 106.969C131.422 107.16 131.24 107.344 131.01 107.52C130.783 107.695 130.51 107.84 130.189 107.953C129.869 108.062 129.504 108.117 129.094 108.117ZM132.738 107.186C132.738 106.936 132.824 106.727 132.996 106.559C133.172 106.391 133.404 106.307 133.693 106.307C133.982 106.307 134.213 106.391 134.385 106.559C134.561 106.727 134.648 106.936 134.648 107.186C134.648 107.436 134.561 107.645 134.385 107.812C134.213 107.98 133.982 108.064 133.693 108.064C133.404 108.064 133.172 107.98 132.996 107.812C132.824 107.645 132.738 107.436 132.738 107.186ZM137.947 106.359L139.266 101.66H140.338L139.992 103.506L138.674 108H137.777L137.947 106.359ZM137.279 101.66L138.223 106.354L138.311 108H137.256L135.65 101.66H137.279ZM141.545 106.277L142.465 101.66H144.1L142.494 108H141.445L141.545 106.277ZM140.484 101.66L141.797 106.324L141.979 108H141.076L139.758 103.512L139.424 101.66H140.484ZM147.867 108.117C147.375 108.117 146.934 108.039 146.543 107.883C146.152 107.723 145.82 107.502 145.547 107.221C145.277 106.939 145.07 106.613 144.926 106.242C144.781 105.867 144.709 105.469 144.709 105.047V104.812C144.709 104.332 144.777 103.893 144.914 103.494C145.051 103.096 145.246 102.75 145.5 102.457C145.758 102.164 146.07 101.939 146.438 101.783C146.805 101.623 147.219 101.543 147.68 101.543C148.129 101.543 148.527 101.617 148.875 101.766C149.223 101.914 149.514 102.125 149.748 102.398C149.986 102.672 150.166 103 150.287 103.383C150.408 103.762 150.469 104.184 150.469 104.648V105.352H145.43V104.227H148.811V104.098C148.811 103.863 148.768 103.654 148.682 103.471C148.6 103.283 148.475 103.135 148.307 103.025C148.139 102.916 147.924 102.861 147.662 102.861C147.439 102.861 147.248 102.91 147.088 103.008C146.928 103.105 146.797 103.242 146.695 103.418C146.598 103.594 146.523 103.801 146.473 104.039C146.426 104.273 146.402 104.531 146.402 104.812V105.047C146.402 105.301 146.438 105.535 146.508 105.75C146.582 105.965 146.686 106.15 146.818 106.307C146.955 106.463 147.119 106.584 147.311 106.67C147.506 106.756 147.727 106.799 147.973 106.799C148.277 106.799 148.561 106.74 148.822 106.623C149.088 106.502 149.316 106.32 149.508 106.078L150.328 106.969C150.195 107.16 150.014 107.344 149.783 107.52C149.557 107.695 149.283 107.84 148.963 107.953C148.643 108.062 148.277 108.117 147.867 108.117ZM151.43 99H153.117V106.547L152.947 108H151.43V99ZM157.131 104.766V104.889C157.131 105.361 157.08 105.795 156.979 106.189C156.881 106.584 156.729 106.926 156.521 107.215C156.314 107.5 156.057 107.723 155.748 107.883C155.443 108.039 155.084 108.117 154.67 108.117C154.283 108.117 153.947 108.039 153.662 107.883C153.381 107.727 153.145 107.506 152.953 107.221C152.762 106.936 152.607 106.602 152.49 106.219C152.373 105.836 152.285 105.418 152.227 104.965V104.695C152.285 104.242 152.373 103.824 152.49 103.441C152.607 103.059 152.762 102.725 152.953 102.439C153.145 102.154 153.381 101.934 153.662 101.777C153.943 101.621 154.275 101.543 154.658 101.543C155.076 101.543 155.439 101.623 155.748 101.783C156.061 101.939 156.318 102.162 156.521 102.451C156.729 102.736 156.881 103.076 156.979 103.471C157.08 103.861 157.131 104.293 157.131 104.766ZM155.443 104.889V104.766C155.443 104.508 155.424 104.266 155.385 104.039C155.35 103.809 155.287 103.607 155.197 103.436C155.107 103.26 154.984 103.121 154.828 103.02C154.676 102.918 154.479 102.867 154.236 102.867C154.006 102.867 153.811 102.906 153.65 102.984C153.49 103.062 153.357 103.172 153.252 103.312C153.15 103.453 153.074 103.621 153.023 103.816C152.973 104.008 152.941 104.219 152.93 104.449V105.217C152.941 105.525 152.992 105.799 153.082 106.037C153.176 106.271 153.316 106.457 153.504 106.594C153.695 106.727 153.943 106.793 154.248 106.793C154.486 106.793 154.684 106.746 154.84 106.652C154.996 106.559 155.117 106.426 155.203 106.254C155.293 106.082 155.355 105.881 155.391 105.65C155.426 105.416 155.443 105.162 155.443 104.889Z" fill="black"/>
<rect x="15" y="128" width="544" height="626" fill="url(#paint0_linear_20_103)"/>
<rect x="116" y="562" width="64" height="4" fill="#232121"/>
<path d="M232.691 426.783L225.73 448H220.123L229.633 422.406H233.201L232.691 426.783ZM238.475 448L231.496 426.783L230.934 422.406H234.537L244.1 448H238.475ZM238.158 438.473V442.604H224.641V438.473H238.158ZM246.156 421H251.219V443.641L250.709 448H246.156V421ZM263.26 438.297V438.666C263.26 440.084 263.107 441.385 262.803 442.568C262.51 443.752 262.053 444.777 261.432 445.645C260.811 446.5 260.037 447.168 259.111 447.648C258.197 448.117 257.119 448.352 255.877 448.352C254.717 448.352 253.709 448.117 252.854 447.648C252.01 447.18 251.301 446.518 250.727 445.662C250.152 444.807 249.689 443.805 249.338 442.656C248.986 441.508 248.723 440.254 248.547 438.895V438.086C248.723 436.727 248.986 435.473 249.338 434.324C249.689 433.176 250.152 432.174 250.727 431.318C251.301 430.463 252.01 429.801 252.854 429.332C253.697 428.863 254.693 428.629 255.842 428.629C257.096 428.629 258.186 428.869 259.111 429.35C260.049 429.818 260.822 430.486 261.432 431.354C262.053 432.209 262.51 433.229 262.803 434.412C263.107 435.584 263.26 436.879 263.26 438.297ZM258.197 438.666V438.297C258.197 437.523 258.139 436.797 258.021 436.117C257.916 435.426 257.729 434.822 257.459 434.307C257.189 433.779 256.82 433.363 256.352 433.059C255.895 432.754 255.303 432.602 254.576 432.602C253.885 432.602 253.299 432.719 252.818 432.953C252.338 433.188 251.939 433.516 251.623 433.938C251.318 434.359 251.09 434.863 250.938 435.449C250.785 436.023 250.691 436.656 250.656 437.348V439.65C250.691 440.576 250.844 441.396 251.113 442.111C251.395 442.814 251.816 443.371 252.379 443.781C252.953 444.18 253.697 444.379 254.611 444.379C255.326 444.379 255.918 444.238 256.387 443.957C256.855 443.676 257.219 443.277 257.477 442.762C257.746 442.246 257.934 441.643 258.039 440.951C258.145 440.248 258.197 439.486 258.197 438.666ZM265.598 438.684V438.314C265.598 436.92 265.797 435.637 266.195 434.465C266.594 433.281 267.174 432.256 267.936 431.389C268.697 430.521 269.635 429.848 270.748 429.367C271.861 428.875 273.139 428.629 274.58 428.629C276.021 428.629 277.305 428.875 278.43 429.367C279.555 429.848 280.498 430.521 281.26 431.389C282.033 432.256 282.619 433.281 283.018 434.465C283.416 435.637 283.615 436.92 283.615 438.314V438.684C283.615 440.066 283.416 441.35 283.018 442.533C282.619 443.705 282.033 444.73 281.26 445.609C280.498 446.477 279.561 447.15 278.447 447.631C277.334 448.111 276.057 448.352 274.615 448.352C273.174 448.352 271.891 448.111 270.766 447.631C269.652 447.15 268.709 446.477 267.936 445.609C267.174 444.73 266.594 443.705 266.195 442.533C265.797 441.35 265.598 440.066 265.598 438.684ZM270.66 438.314V438.684C270.66 439.48 270.73 440.225 270.871 440.916C271.012 441.607 271.234 442.217 271.539 442.744C271.855 443.26 272.266 443.664 272.77 443.957C273.273 444.25 273.889 444.396 274.615 444.396C275.318 444.396 275.922 444.25 276.426 443.957C276.93 443.664 277.334 443.26 277.639 442.744C277.943 442.217 278.166 441.607 278.307 440.916C278.459 440.225 278.535 439.48 278.535 438.684V438.314C278.535 437.541 278.459 436.814 278.307 436.135C278.166 435.443 277.938 434.834 277.621 434.307C277.316 433.768 276.912 433.346 276.408 433.041C275.904 432.736 275.295 432.584 274.58 432.584C273.865 432.584 273.256 432.736 272.752 433.041C272.26 433.346 271.855 433.768 271.539 434.307C271.234 434.834 271.012 435.443 270.871 436.135C270.73 436.814 270.66 437.541 270.66 438.314ZM297.977 443.447V428.98H303.039V448H298.275L297.977 443.447ZM298.539 439.545L300.033 439.51C300.033 440.775 299.887 441.953 299.594 443.043C299.301 444.121 298.861 445.059 298.275 445.855C297.689 446.641 296.951 447.256 296.061 447.701C295.17 448.135 294.121 448.352 292.914 448.352C291.988 448.352 291.133 448.223 290.348 447.965C289.574 447.695 288.906 447.279 288.344 446.717C287.793 446.143 287.359 445.41 287.043 444.52C286.738 443.617 286.586 442.533 286.586 441.268V428.98H291.648V441.303C291.648 441.865 291.713 442.34 291.842 442.727C291.982 443.113 292.176 443.43 292.422 443.676C292.668 443.922 292.955 444.098 293.283 444.203C293.623 444.309 293.998 444.361 294.408 444.361C295.451 444.361 296.271 444.15 296.869 443.729C297.479 443.307 297.906 442.732 298.152 442.006C298.41 441.268 298.539 440.447 298.539 439.545ZM316.223 428.98V432.566H305.148V428.98H316.223ZM307.891 424.287H312.953V442.27C312.953 442.82 313.023 443.242 313.164 443.535C313.316 443.828 313.539 444.033 313.832 444.15C314.125 444.256 314.494 444.309 314.939 444.309C315.256 444.309 315.537 444.297 315.783 444.273C316.041 444.238 316.258 444.203 316.434 444.168L316.451 447.895C316.018 448.035 315.549 448.146 315.045 448.229C314.541 448.311 313.984 448.352 313.375 448.352C312.262 448.352 311.289 448.17 310.457 447.807C309.637 447.432 309.004 446.834 308.559 446.014C308.113 445.193 307.891 444.115 307.891 442.779V424.287ZM339.32 443.447V428.98H344.383V448H339.619L339.32 443.447ZM339.883 439.545L341.377 439.51C341.377 440.775 341.23 441.953 340.938 443.043C340.645 444.121 340.205 445.059 339.619 445.855C339.033 446.641 338.295 447.256 337.404 447.701C336.514 448.135 335.465 448.352 334.258 448.352C333.332 448.352 332.477 448.223 331.691 447.965C330.918 447.695 330.25 447.279 329.688 446.717C329.137 446.143 328.703 445.41 328.387 444.52C328.082 443.617 327.93 442.533 327.93 441.268V428.98H332.992V441.303C332.992 441.865 333.057 442.34 333.186 442.727C333.326 443.113 333.52 443.43 333.766 443.676C334.012 443.922 334.299 444.098 334.627 444.203C334.967 444.309 335.342 444.361 335.752 444.361C336.795 444.361 337.615 444.15 338.213 443.729C338.822 443.307 339.25 442.732 339.496 442.006C339.754 441.268 339.883 440.447 339.883 439.545ZM358.533 442.744C358.533 442.381 358.428 442.053 358.217 441.76C358.006 441.467 357.613 441.197 357.039 440.951C356.477 440.693 355.662 440.459 354.596 440.248C353.635 440.037 352.738 439.773 351.906 439.457C351.086 439.129 350.371 438.736 349.762 438.279C349.164 437.822 348.695 437.283 348.355 436.662C348.016 436.029 347.846 435.309 347.846 434.5C347.846 433.703 348.016 432.953 348.355 432.25C348.707 431.547 349.205 430.926 349.85 430.387C350.506 429.836 351.303 429.408 352.24 429.104C353.189 428.787 354.256 428.629 355.439 428.629C357.092 428.629 358.51 428.893 359.693 429.42C360.889 429.947 361.803 430.674 362.436 431.6C363.08 432.514 363.402 433.557 363.402 434.729H358.34C358.34 434.236 358.234 433.797 358.023 433.41C357.824 433.012 357.508 432.701 357.074 432.479C356.652 432.244 356.102 432.127 355.422 432.127C354.859 432.127 354.373 432.227 353.963 432.426C353.553 432.613 353.236 432.871 353.014 433.199C352.803 433.516 352.697 433.867 352.697 434.254C352.697 434.547 352.756 434.811 352.873 435.045C353.002 435.268 353.207 435.473 353.488 435.66C353.77 435.848 354.133 436.023 354.578 436.188C355.035 436.34 355.598 436.48 356.266 436.609C357.637 436.891 358.861 437.26 359.939 437.717C361.018 438.162 361.873 438.771 362.506 439.545C363.139 440.307 363.455 441.309 363.455 442.551C363.455 443.395 363.268 444.168 362.893 444.871C362.518 445.574 361.979 446.189 361.275 446.717C360.572 447.232 359.729 447.637 358.744 447.93C357.771 448.211 356.676 448.352 355.457 448.352C353.688 448.352 352.188 448.035 350.957 447.402C349.738 446.77 348.812 445.967 348.18 444.994C347.559 444.01 347.248 443.002 347.248 441.971H352.047C352.07 442.662 352.246 443.219 352.574 443.641C352.914 444.062 353.342 444.367 353.857 444.555C354.385 444.742 354.953 444.836 355.562 444.836C356.219 444.836 356.764 444.748 357.197 444.572C357.631 444.385 357.959 444.139 358.182 443.834C358.416 443.518 358.533 443.154 358.533 442.744Z" fill="black"/>
<path d="M168.553 159.469H170.041L172.232 165.732L174.424 159.469H175.912L172.83 168H171.635L168.553 159.469ZM167.75 159.469H169.232L169.502 165.574V168H167.75V159.469ZM175.232 159.469H176.721V168H174.963V165.574L175.232 159.469ZM181.578 166.57V163.746C181.578 163.543 181.545 163.369 181.479 163.225C181.412 163.076 181.309 162.961 181.168 162.879C181.031 162.797 180.854 162.756 180.635 162.756C180.447 162.756 180.285 162.789 180.148 162.855C180.012 162.918 179.906 163.01 179.832 163.131C179.758 163.248 179.721 163.387 179.721 163.547H178.033C178.033 163.277 178.096 163.021 178.221 162.779C178.346 162.537 178.527 162.324 178.766 162.141C179.004 161.953 179.287 161.807 179.615 161.701C179.947 161.596 180.318 161.543 180.729 161.543C181.221 161.543 181.658 161.625 182.041 161.789C182.424 161.953 182.725 162.199 182.943 162.527C183.166 162.855 183.277 163.266 183.277 163.758V166.471C183.277 166.818 183.299 167.104 183.342 167.326C183.385 167.545 183.447 167.736 183.529 167.9V168H181.824C181.742 167.828 181.68 167.613 181.637 167.355C181.598 167.094 181.578 166.832 181.578 166.57ZM181.801 164.139L181.812 165.094H180.869C180.646 165.094 180.453 165.119 180.289 165.17C180.125 165.221 179.99 165.293 179.885 165.387C179.779 165.477 179.701 165.582 179.65 165.703C179.604 165.824 179.58 165.957 179.58 166.102C179.58 166.246 179.613 166.377 179.68 166.494C179.746 166.607 179.842 166.697 179.967 166.764C180.092 166.826 180.238 166.857 180.406 166.857C180.66 166.857 180.881 166.807 181.068 166.705C181.256 166.604 181.4 166.479 181.502 166.33C181.607 166.182 181.662 166.041 181.666 165.908L182.111 166.623C182.049 166.783 181.963 166.949 181.854 167.121C181.748 167.293 181.613 167.455 181.449 167.607C181.285 167.756 181.088 167.879 180.857 167.977C180.627 168.07 180.354 168.117 180.037 168.117C179.635 168.117 179.27 168.037 178.941 167.877C178.617 167.713 178.359 167.488 178.168 167.203C177.98 166.914 177.887 166.586 177.887 166.219C177.887 165.887 177.949 165.592 178.074 165.334C178.199 165.076 178.383 164.859 178.625 164.684C178.871 164.504 179.178 164.369 179.545 164.279C179.912 164.186 180.338 164.139 180.822 164.139H181.801ZM186.359 161.66V168H184.666V161.66H186.359ZM184.561 160.008C184.561 159.762 184.646 159.559 184.818 159.398C184.99 159.238 185.221 159.158 185.51 159.158C185.795 159.158 186.023 159.238 186.195 159.398C186.371 159.559 186.459 159.762 186.459 160.008C186.459 160.254 186.371 160.457 186.195 160.617C186.023 160.777 185.795 160.857 185.51 160.857C185.221 160.857 184.99 160.777 184.818 160.617C184.646 160.457 184.561 160.254 184.561 160.008ZM189.406 163.014V168H187.719V161.66H189.301L189.406 163.014ZM189.16 164.607H188.703C188.703 164.139 188.764 163.717 188.885 163.342C189.006 162.963 189.176 162.641 189.395 162.375C189.613 162.105 189.873 161.9 190.174 161.76C190.479 161.615 190.818 161.543 191.193 161.543C191.49 161.543 191.762 161.586 192.008 161.672C192.254 161.758 192.465 161.895 192.641 162.082C192.82 162.27 192.957 162.518 193.051 162.826C193.148 163.135 193.197 163.512 193.197 163.957V168H191.498V163.951C191.498 163.67 191.459 163.451 191.381 163.295C191.303 163.139 191.188 163.029 191.035 162.967C190.887 162.9 190.703 162.867 190.484 162.867C190.258 162.867 190.061 162.912 189.893 163.002C189.729 163.092 189.592 163.217 189.482 163.377C189.377 163.533 189.297 163.717 189.242 163.928C189.188 164.139 189.16 164.365 189.16 164.607Z" fill="black"/>
<path d="M213.23 160.928L210.91 168H209.041L212.211 159.469H213.4L213.23 160.928ZM215.158 168L212.832 160.928L212.645 159.469H213.846L217.033 168H215.158ZM215.053 164.824V166.201H210.547V164.824H215.053ZM217.719 159H219.406V166.547L219.236 168H217.719V159ZM223.42 164.766V164.889C223.42 165.361 223.369 165.795 223.268 166.189C223.17 166.584 223.018 166.926 222.811 167.215C222.604 167.5 222.346 167.723 222.037 167.883C221.732 168.039 221.373 168.117 220.959 168.117C220.572 168.117 220.236 168.039 219.951 167.883C219.67 167.727 219.434 167.506 219.242 167.221C219.051 166.936 218.896 166.602 218.779 166.219C218.662 165.836 218.574 165.418 218.516 164.965V164.695C218.574 164.242 218.662 163.824 218.779 163.441C218.896 163.059 219.051 162.725 219.242 162.439C219.434 162.154 219.67 161.934 219.951 161.777C220.232 161.621 220.564 161.543 220.947 161.543C221.365 161.543 221.729 161.623 222.037 161.783C222.35 161.939 222.607 162.162 222.811 162.451C223.018 162.736 223.17 163.076 223.268 163.471C223.369 163.861 223.42 164.293 223.42 164.766ZM221.732 164.889V164.766C221.732 164.508 221.713 164.266 221.674 164.039C221.639 163.809 221.576 163.607 221.486 163.436C221.396 163.26 221.273 163.121 221.117 163.02C220.965 162.918 220.768 162.867 220.525 162.867C220.295 162.867 220.1 162.906 219.939 162.984C219.779 163.062 219.646 163.172 219.541 163.312C219.439 163.453 219.363 163.621 219.312 163.816C219.262 164.008 219.23 164.219 219.219 164.449V165.217C219.23 165.525 219.281 165.799 219.371 166.037C219.465 166.271 219.605 166.457 219.793 166.594C219.984 166.727 220.232 166.793 220.537 166.793C220.775 166.793 220.973 166.746 221.129 166.652C221.285 166.559 221.406 166.426 221.492 166.254C221.582 166.082 221.645 165.881 221.68 165.65C221.715 165.416 221.732 165.162 221.732 164.889ZM224.199 164.895V164.771C224.199 164.307 224.266 163.879 224.398 163.488C224.531 163.094 224.725 162.752 224.979 162.463C225.232 162.174 225.545 161.949 225.916 161.789C226.287 161.625 226.713 161.543 227.193 161.543C227.674 161.543 228.102 161.625 228.477 161.789C228.852 161.949 229.166 162.174 229.42 162.463C229.678 162.752 229.873 163.094 230.006 163.488C230.139 163.879 230.205 164.307 230.205 164.771V164.895C230.205 165.355 230.139 165.783 230.006 166.178C229.873 166.568 229.678 166.91 229.42 167.203C229.166 167.492 228.854 167.717 228.482 167.877C228.111 168.037 227.686 168.117 227.205 168.117C226.725 168.117 226.297 168.037 225.922 167.877C225.551 167.717 225.236 167.492 224.979 167.203C224.725 166.91 224.531 166.568 224.398 166.178C224.266 165.783 224.199 165.355 224.199 164.895ZM225.887 164.771V164.895C225.887 165.16 225.91 165.408 225.957 165.639C226.004 165.869 226.078 166.072 226.18 166.248C226.285 166.42 226.422 166.555 226.59 166.652C226.758 166.75 226.963 166.799 227.205 166.799C227.439 166.799 227.641 166.75 227.809 166.652C227.977 166.555 228.111 166.42 228.213 166.248C228.314 166.072 228.389 165.869 228.436 165.639C228.486 165.408 228.512 165.16 228.512 164.895V164.771C228.512 164.514 228.486 164.271 228.436 164.045C228.389 163.814 228.312 163.611 228.207 163.436C228.105 163.256 227.971 163.115 227.803 163.014C227.635 162.912 227.432 162.861 227.193 162.861C226.955 162.861 226.752 162.912 226.584 163.014C226.42 163.115 226.285 163.256 226.18 163.436C226.078 163.611 226.004 163.814 225.957 164.045C225.91 164.271 225.887 164.514 225.887 164.771ZM234.992 166.482V161.66H236.68V168H235.092L234.992 166.482ZM235.18 165.182L235.678 165.17C235.678 165.592 235.629 165.984 235.531 166.348C235.434 166.707 235.287 167.02 235.092 167.285C234.896 167.547 234.65 167.752 234.354 167.9C234.057 168.045 233.707 168.117 233.305 168.117C232.996 168.117 232.711 168.074 232.449 167.988C232.191 167.898 231.969 167.76 231.781 167.572C231.598 167.381 231.453 167.137 231.348 166.84C231.246 166.539 231.195 166.178 231.195 165.756V161.66H232.883V165.768C232.883 165.955 232.904 166.113 232.947 166.242C232.994 166.371 233.059 166.477 233.141 166.559C233.223 166.641 233.318 166.699 233.428 166.734C233.541 166.77 233.666 166.787 233.803 166.787C234.15 166.787 234.424 166.717 234.623 166.576C234.826 166.436 234.969 166.244 235.051 166.002C235.137 165.756 235.18 165.482 235.18 165.182ZM241.074 161.66V162.855H237.383V161.66H241.074ZM238.297 160.096H239.984V166.09C239.984 166.273 240.008 166.414 240.055 166.512C240.105 166.609 240.18 166.678 240.277 166.717C240.375 166.752 240.498 166.77 240.646 166.77C240.752 166.77 240.846 166.766 240.928 166.758C241.014 166.746 241.086 166.734 241.145 166.723L241.15 167.965C241.006 168.012 240.85 168.049 240.682 168.076C240.514 168.104 240.328 168.117 240.125 168.117C239.754 168.117 239.43 168.057 239.152 167.936C238.879 167.811 238.668 167.611 238.52 167.338C238.371 167.064 238.297 166.705 238.297 166.26V160.096ZM248.773 166.482V161.66H250.461V168H248.873L248.773 166.482ZM248.961 165.182L249.459 165.17C249.459 165.592 249.41 165.984 249.312 166.348C249.215 166.707 249.068 167.02 248.873 167.285C248.678 167.547 248.432 167.752 248.135 167.9C247.838 168.045 247.488 168.117 247.086 168.117C246.777 168.117 246.492 168.074 246.23 167.988C245.973 167.898 245.75 167.76 245.562 167.572C245.379 167.381 245.234 167.137 245.129 166.84C245.027 166.539 244.977 166.178 244.977 165.756V161.66H246.664V165.768C246.664 165.955 246.686 166.113 246.729 166.242C246.775 166.371 246.84 166.477 246.922 166.559C247.004 166.641 247.1 166.699 247.209 166.734C247.322 166.77 247.447 166.787 247.584 166.787C247.932 166.787 248.205 166.717 248.404 166.576C248.607 166.436 248.75 166.244 248.832 166.002C248.918 165.756 248.961 165.482 248.961 165.182ZM255.178 166.248C255.178 166.127 255.143 166.018 255.072 165.92C255.002 165.822 254.871 165.732 254.68 165.65C254.492 165.564 254.221 165.486 253.865 165.416C253.545 165.346 253.246 165.258 252.969 165.152C252.695 165.043 252.457 164.912 252.254 164.76C252.055 164.607 251.898 164.428 251.785 164.221C251.672 164.01 251.615 163.77 251.615 163.5C251.615 163.234 251.672 162.984 251.785 162.75C251.902 162.516 252.068 162.309 252.283 162.129C252.502 161.945 252.768 161.803 253.08 161.701C253.396 161.596 253.752 161.543 254.146 161.543C254.697 161.543 255.17 161.631 255.564 161.807C255.963 161.982 256.268 162.225 256.479 162.533C256.693 162.838 256.801 163.186 256.801 163.576H255.113C255.113 163.412 255.078 163.266 255.008 163.137C254.941 163.004 254.836 162.9 254.691 162.826C254.551 162.748 254.367 162.709 254.141 162.709C253.953 162.709 253.791 162.742 253.654 162.809C253.518 162.871 253.412 162.957 253.338 163.066C253.268 163.172 253.232 163.289 253.232 163.418C253.232 163.516 253.252 163.604 253.291 163.682C253.334 163.756 253.402 163.824 253.496 163.887C253.59 163.949 253.711 164.008 253.859 164.062C254.012 164.113 254.199 164.16 254.422 164.203C254.879 164.297 255.287 164.42 255.646 164.572C256.006 164.721 256.291 164.924 256.502 165.182C256.713 165.436 256.818 165.77 256.818 166.184C256.818 166.465 256.756 166.723 256.631 166.957C256.506 167.191 256.326 167.396 256.092 167.572C255.857 167.744 255.576 167.879 255.248 167.977C254.924 168.07 254.559 168.117 254.152 168.117C253.562 168.117 253.062 168.012 252.652 167.801C252.246 167.59 251.938 167.322 251.727 166.998C251.52 166.67 251.416 166.334 251.416 165.99H253.016C253.023 166.221 253.082 166.406 253.191 166.547C253.305 166.688 253.447 166.789 253.619 166.852C253.795 166.914 253.984 166.945 254.188 166.945C254.406 166.945 254.588 166.916 254.732 166.857C254.877 166.795 254.986 166.713 255.061 166.611C255.139 166.506 255.178 166.385 255.178 166.248Z" fill="black"/>
<path d="M280.523 163.541V166.922C280.391 167.082 280.186 167.256 279.908 167.443C279.631 167.627 279.273 167.785 278.836 167.918C278.398 168.051 277.869 168.117 277.248 168.117C276.697 168.117 276.195 168.027 275.742 167.848C275.289 167.664 274.898 167.396 274.57 167.045C274.246 166.693 273.996 166.264 273.82 165.756C273.645 165.244 273.557 164.66 273.557 164.004V163.471C273.557 162.814 273.641 162.23 273.809 161.719C273.98 161.207 274.225 160.775 274.541 160.424C274.857 160.072 275.234 159.805 275.672 159.621C276.109 159.438 276.596 159.346 277.131 159.346C277.873 159.346 278.482 159.467 278.959 159.709C279.436 159.947 279.799 160.279 280.049 160.705C280.303 161.127 280.459 161.611 280.518 162.158H278.812C278.77 161.869 278.688 161.617 278.566 161.402C278.445 161.188 278.271 161.02 278.045 160.898C277.822 160.777 277.533 160.717 277.178 160.717C276.885 160.717 276.623 160.777 276.393 160.898C276.166 161.016 275.975 161.189 275.818 161.42C275.662 161.65 275.543 161.936 275.461 162.275C275.379 162.615 275.338 163.01 275.338 163.459V164.004C275.338 164.449 275.381 164.844 275.467 165.188C275.553 165.527 275.68 165.814 275.848 166.049C276.02 166.279 276.23 166.453 276.48 166.57C276.73 166.688 277.021 166.746 277.354 166.746C277.631 166.746 277.861 166.723 278.045 166.676C278.232 166.629 278.383 166.572 278.496 166.506C278.613 166.436 278.703 166.369 278.766 166.307V164.795H277.16V163.541H280.523ZM285.258 166.57V163.746C285.258 163.543 285.225 163.369 285.158 163.225C285.092 163.076 284.988 162.961 284.848 162.879C284.711 162.797 284.533 162.756 284.314 162.756C284.127 162.756 283.965 162.789 283.828 162.855C283.691 162.918 283.586 163.01 283.512 163.131C283.438 163.248 283.4 163.387 283.4 163.547H281.713C281.713 163.277 281.775 163.021 281.9 162.779C282.025 162.537 282.207 162.324 282.445 162.141C282.684 161.953 282.967 161.807 283.295 161.701C283.627 161.596 283.998 161.543 284.408 161.543C284.9 161.543 285.338 161.625 285.721 161.789C286.104 161.953 286.404 162.199 286.623 162.527C286.846 162.855 286.957 163.266 286.957 163.758V166.471C286.957 166.818 286.979 167.104 287.021 167.326C287.064 167.545 287.127 167.736 287.209 167.9V168H285.504C285.422 167.828 285.359 167.613 285.316 167.355C285.277 167.094 285.258 166.832 285.258 166.57ZM285.48 164.139L285.492 165.094H284.549C284.326 165.094 284.133 165.119 283.969 165.17C283.805 165.221 283.67 165.293 283.564 165.387C283.459 165.477 283.381 165.582 283.33 165.703C283.283 165.824 283.26 165.957 283.26 166.102C283.26 166.246 283.293 166.377 283.359 166.494C283.426 166.607 283.521 166.697 283.646 166.764C283.771 166.826 283.918 166.857 284.086 166.857C284.34 166.857 284.561 166.807 284.748 166.705C284.936 166.604 285.08 166.479 285.182 166.33C285.287 166.182 285.342 166.041 285.346 165.908L285.791 166.623C285.729 166.783 285.643 166.949 285.533 167.121C285.428 167.293 285.293 167.455 285.129 167.607C284.965 167.756 284.768 167.879 284.537 167.977C284.307 168.07 284.033 168.117 283.717 168.117C283.314 168.117 282.949 168.037 282.621 167.877C282.297 167.713 282.039 167.488 281.848 167.203C281.66 166.914 281.566 166.586 281.566 166.219C281.566 165.887 281.629 165.592 281.754 165.334C281.879 165.076 282.062 164.859 282.305 164.684C282.551 164.504 282.857 164.369 283.225 164.279C283.592 164.186 284.018 164.139 284.502 164.139H285.48ZM290.039 159V168H288.346V159H290.039ZM293.215 159V168H291.521V159H293.215ZM298.031 166.57V163.746C298.031 163.543 297.998 163.369 297.932 163.225C297.865 163.076 297.762 162.961 297.621 162.879C297.484 162.797 297.307 162.756 297.088 162.756C296.9 162.756 296.738 162.789 296.602 162.855C296.465 162.918 296.359 163.01 296.285 163.131C296.211 163.248 296.174 163.387 296.174 163.547H294.486C294.486 163.277 294.549 163.021 294.674 162.779C294.799 162.537 294.98 162.324 295.219 162.141C295.457 161.953 295.74 161.807 296.068 161.701C296.4 161.596 296.771 161.543 297.182 161.543C297.674 161.543 298.111 161.625 298.494 161.789C298.877 161.953 299.178 162.199 299.396 162.527C299.619 162.855 299.73 163.266 299.73 163.758V166.471C299.73 166.818 299.752 167.104 299.795 167.326C299.838 167.545 299.9 167.736 299.982 167.9V168H298.277C298.195 167.828 298.133 167.613 298.09 167.355C298.051 167.094 298.031 166.832 298.031 166.57ZM298.254 164.139L298.266 165.094H297.322C297.1 165.094 296.906 165.119 296.742 165.17C296.578 165.221 296.443 165.293 296.338 165.387C296.232 165.477 296.154 165.582 296.104 165.703C296.057 165.824 296.033 165.957 296.033 166.102C296.033 166.246 296.066 166.377 296.133 166.494C296.199 166.607 296.295 166.697 296.42 166.764C296.545 166.826 296.691 166.857 296.859 166.857C297.113 166.857 297.334 166.807 297.521 166.705C297.709 166.604 297.854 166.479 297.955 166.33C298.061 166.182 298.115 166.041 298.119 165.908L298.564 166.623C298.502 166.783 298.416 166.949 298.307 167.121C298.201 167.293 298.066 167.455 297.902 167.607C297.738 167.756 297.541 167.879 297.311 167.977C297.08 168.07 296.807 168.117 296.49 168.117C296.088 168.117 295.723 168.037 295.395 167.877C295.07 167.713 294.812 167.488 294.621 167.203C294.434 166.914 294.34 166.586 294.34 166.219C294.34 165.887 294.402 165.592 294.527 165.334C294.652 165.076 294.836 164.859 295.078 164.684C295.324 164.504 295.631 164.369 295.998 164.279C296.365 164.186 296.791 164.139 297.275 164.139H298.254ZM302.719 163.043V168H301.031V161.66H302.619L302.719 163.043ZM304.629 161.619L304.6 163.184C304.518 163.172 304.418 163.162 304.301 163.154C304.188 163.143 304.084 163.137 303.99 163.137C303.752 163.137 303.545 163.168 303.369 163.23C303.197 163.289 303.053 163.377 302.936 163.494C302.822 163.611 302.736 163.754 302.678 163.922C302.623 164.09 302.592 164.281 302.584 164.496L302.244 164.391C302.244 163.98 302.285 163.604 302.367 163.26C302.449 162.912 302.568 162.609 302.725 162.352C302.885 162.094 303.08 161.895 303.311 161.754C303.541 161.613 303.805 161.543 304.102 161.543C304.195 161.543 304.291 161.551 304.389 161.566C304.486 161.578 304.566 161.596 304.629 161.619ZM307.412 167.285L309.094 161.66H310.904L308.355 168.955C308.301 169.115 308.227 169.287 308.133 169.471C308.043 169.654 307.92 169.828 307.764 169.992C307.611 170.16 307.418 170.297 307.184 170.402C306.953 170.508 306.67 170.561 306.334 170.561C306.174 170.561 306.043 170.551 305.941 170.531C305.84 170.512 305.719 170.484 305.578 170.449V169.213C305.621 169.213 305.666 169.213 305.713 169.213C305.76 169.217 305.805 169.219 305.848 169.219C306.07 169.219 306.252 169.193 306.393 169.143C306.533 169.092 306.646 169.014 306.732 168.908C306.818 168.807 306.887 168.674 306.938 168.51L307.412 167.285ZM306.709 161.66L308.086 166.254L308.326 168.041L307.178 168.164L304.898 161.66H306.709Z" fill="black"/>
<path d="M251.57 617.623V627.766C251.172 628.246 250.557 628.768 249.725 629.33C248.893 629.881 247.82 630.355 246.508 630.754C245.195 631.152 243.607 631.352 241.744 631.352C240.092 631.352 238.586 631.082 237.227 630.543C235.867 629.992 234.695 629.189 233.711 628.135C232.738 627.08 231.988 625.791 231.461 624.268C230.934 622.732 230.67 620.98 230.67 619.012V617.412C230.67 615.443 230.922 613.691 231.426 612.156C231.941 610.621 232.674 609.326 233.623 608.271C234.572 607.217 235.703 606.414 237.016 605.863C238.328 605.312 239.787 605.037 241.393 605.037C243.619 605.037 245.447 605.4 246.877 606.127C248.307 606.842 249.396 607.838 250.146 609.115C250.908 610.381 251.377 611.834 251.553 613.475H246.438C246.309 612.607 246.062 611.852 245.699 611.207C245.336 610.562 244.814 610.059 244.135 609.695C243.467 609.332 242.6 609.15 241.533 609.15C240.654 609.15 239.869 609.332 239.178 609.695C238.498 610.047 237.924 610.568 237.455 611.26C236.986 611.951 236.629 612.807 236.383 613.826C236.137 614.846 236.014 616.029 236.014 617.377V619.012C236.014 620.348 236.143 621.531 236.4 622.562C236.658 623.582 237.039 624.443 237.543 625.146C238.059 625.838 238.691 626.359 239.441 626.711C240.191 627.062 241.064 627.238 242.061 627.238C242.893 627.238 243.584 627.168 244.135 627.027C244.697 626.887 245.148 626.717 245.488 626.518C245.84 626.307 246.109 626.107 246.297 625.92V621.385H241.48V617.623H251.57ZM265.773 626.711V618.238C265.773 617.629 265.674 617.107 265.475 616.674C265.275 616.229 264.965 615.883 264.543 615.637C264.133 615.391 263.6 615.268 262.943 615.268C262.381 615.268 261.895 615.367 261.484 615.566C261.074 615.754 260.758 616.029 260.535 616.393C260.312 616.744 260.201 617.16 260.201 617.641H255.139C255.139 616.832 255.326 616.064 255.701 615.338C256.076 614.611 256.621 613.973 257.336 613.422C258.051 612.859 258.9 612.42 259.885 612.104C260.881 611.787 261.994 611.629 263.225 611.629C264.701 611.629 266.014 611.875 267.162 612.367C268.311 612.859 269.213 613.598 269.869 614.582C270.537 615.566 270.871 616.797 270.871 618.273V626.412C270.871 627.455 270.936 628.311 271.064 628.979C271.193 629.635 271.381 630.209 271.627 630.701V631H266.512C266.266 630.484 266.078 629.84 265.949 629.066C265.832 628.281 265.773 627.496 265.773 626.711ZM266.441 619.416L266.477 622.281H263.646C262.979 622.281 262.398 622.357 261.906 622.51C261.414 622.662 261.01 622.879 260.693 623.16C260.377 623.43 260.143 623.746 259.99 624.109C259.85 624.473 259.779 624.871 259.779 625.305C259.779 625.738 259.879 626.131 260.078 626.482C260.277 626.822 260.564 627.092 260.939 627.291C261.314 627.479 261.754 627.572 262.258 627.572C263.02 627.572 263.682 627.42 264.244 627.115C264.807 626.811 265.24 626.436 265.545 625.99C265.861 625.545 266.025 625.123 266.037 624.725L267.373 626.869C267.186 627.35 266.928 627.848 266.6 628.363C266.283 628.879 265.879 629.365 265.387 629.822C264.895 630.268 264.303 630.637 263.611 630.93C262.92 631.211 262.1 631.352 261.15 631.352C259.943 631.352 258.848 631.111 257.863 630.631C256.891 630.139 256.117 629.465 255.543 628.609C254.98 627.742 254.699 626.758 254.699 625.656C254.699 624.66 254.887 623.775 255.262 623.002C255.637 622.229 256.188 621.578 256.914 621.051C257.652 620.512 258.572 620.107 259.674 619.838C260.775 619.557 262.053 619.416 263.506 619.416H266.441ZM280.117 604V631H275.037V604H280.117ZM289.645 604V631H284.564V604H289.645ZM304.094 626.711V618.238C304.094 617.629 303.994 617.107 303.795 616.674C303.596 616.229 303.285 615.883 302.863 615.637C302.453 615.391 301.92 615.268 301.264 615.268C300.701 615.268 300.215 615.367 299.805 615.566C299.395 615.754 299.078 616.029 298.855 616.393C298.633 616.744 298.521 617.16 298.521 617.641H293.459C293.459 616.832 293.646 616.064 294.021 615.338C294.396 614.611 294.941 613.973 295.656 613.422C296.371 612.859 297.221 612.42 298.205 612.104C299.201 611.787 300.314 611.629 301.545 611.629C303.021 611.629 304.334 611.875 305.482 612.367C306.631 612.859 307.533 613.598 308.189 614.582C308.857 615.566 309.191 616.797 309.191 618.273V626.412C309.191 627.455 309.256 628.311 309.385 628.979C309.514 629.635 309.701 630.209 309.947 630.701V631H304.832C304.586 630.484 304.398 629.84 304.27 629.066C304.152 628.281 304.094 627.496 304.094 626.711ZM304.762 619.416L304.797 622.281H301.967C301.299 622.281 300.719 622.357 300.227 622.51C299.734 622.662 299.33 622.879 299.014 623.16C298.697 623.43 298.463 623.746 298.311 624.109C298.17 624.473 298.1 624.871 298.1 625.305C298.1 625.738 298.199 626.131 298.398 626.482C298.598 626.822 298.885 627.092 299.26 627.291C299.635 627.479 300.074 627.572 300.578 627.572C301.34 627.572 302.002 627.42 302.564 627.115C303.127 626.811 303.561 626.436 303.865 625.99C304.182 625.545 304.346 625.123 304.357 624.725L305.693 626.869C305.506 627.35 305.248 627.848 304.92 628.363C304.604 628.879 304.199 629.365 303.707 629.822C303.215 630.268 302.623 630.637 301.932 630.93C301.24 631.211 300.42 631.352 299.471 631.352C298.264 631.352 297.168 631.111 296.184 630.631C295.211 630.139 294.438 629.465 293.863 628.609C293.301 627.742 293.02 626.758 293.02 625.656C293.02 624.66 293.207 623.775 293.582 623.002C293.957 622.229 294.508 621.578 295.234 621.051C295.973 620.512 296.893 620.107 297.994 619.838C299.096 619.557 300.373 619.416 301.826 619.416H304.762ZM318.156 616.129V631H313.094V611.98H317.857L318.156 616.129ZM323.887 611.857L323.799 616.551C323.553 616.516 323.254 616.486 322.902 616.463C322.562 616.428 322.252 616.41 321.971 616.41C321.256 616.41 320.635 616.504 320.107 616.691C319.592 616.867 319.158 617.131 318.807 617.482C318.467 617.834 318.209 618.262 318.033 618.766C317.869 619.27 317.775 619.844 317.752 620.488L316.732 620.172C316.732 618.941 316.855 617.811 317.102 616.779C317.348 615.736 317.705 614.828 318.174 614.055C318.654 613.281 319.24 612.684 319.932 612.262C320.623 611.84 321.414 611.629 322.305 611.629C322.586 611.629 322.873 611.652 323.166 611.699C323.459 611.734 323.699 611.787 323.887 611.857ZM332.236 628.855L337.281 611.98H342.713L335.066 633.865C334.902 634.346 334.68 634.861 334.398 635.412C334.129 635.963 333.76 636.484 333.291 636.977C332.834 637.48 332.254 637.891 331.551 638.207C330.859 638.523 330.01 638.682 329.002 638.682C328.521 638.682 328.129 638.652 327.824 638.594C327.52 638.535 327.156 638.453 326.734 638.348V634.639C326.863 634.639 326.998 634.639 327.139 634.639C327.279 634.65 327.414 634.656 327.543 634.656C328.211 634.656 328.756 634.58 329.178 634.428C329.6 634.275 329.939 634.041 330.197 633.725C330.455 633.42 330.66 633.021 330.812 632.529L332.236 628.855ZM330.127 611.98L334.258 625.762L334.979 631.123L331.533 631.492L324.695 611.98H330.127Z" fill="black"/>
<path d="M331.707 165.17H333.459C333.424 165.744 333.266 166.254 332.984 166.699C332.707 167.145 332.318 167.492 331.818 167.742C331.322 167.992 330.725 168.117 330.025 168.117C329.479 168.117 328.988 168.023 328.555 167.836C328.121 167.645 327.75 167.371 327.441 167.016C327.137 166.66 326.904 166.23 326.744 165.727C326.584 165.223 326.504 164.658 326.504 164.033V163.441C326.504 162.816 326.586 162.252 326.75 161.748C326.918 161.24 327.156 160.809 327.465 160.453C327.777 160.098 328.15 159.824 328.584 159.633C329.018 159.441 329.502 159.346 330.037 159.346C330.748 159.346 331.348 159.475 331.836 159.732C332.328 159.99 332.709 160.346 332.979 160.799C333.252 161.252 333.416 161.768 333.471 162.346H331.713C331.693 162.002 331.625 161.711 331.508 161.473C331.391 161.23 331.213 161.049 330.975 160.928C330.74 160.803 330.428 160.74 330.037 160.74C329.744 160.74 329.488 160.795 329.27 160.904C329.051 161.014 328.867 161.18 328.719 161.402C328.57 161.625 328.459 161.906 328.385 162.246C328.314 162.582 328.279 162.977 328.279 163.43V164.033C328.279 164.475 328.312 164.863 328.379 165.199C328.445 165.531 328.547 165.812 328.684 166.043C328.824 166.27 329.004 166.441 329.223 166.559C329.445 166.672 329.713 166.729 330.025 166.729C330.393 166.729 330.695 166.67 330.934 166.553C331.172 166.436 331.354 166.262 331.479 166.031C331.607 165.801 331.684 165.514 331.707 165.17ZM334.238 164.895V164.771C334.238 164.307 334.305 163.879 334.438 163.488C334.57 163.094 334.764 162.752 335.018 162.463C335.271 162.174 335.584 161.949 335.955 161.789C336.326 161.625 336.752 161.543 337.232 161.543C337.713 161.543 338.141 161.625 338.516 161.789C338.891 161.949 339.205 162.174 339.459 162.463C339.717 162.752 339.912 163.094 340.045 163.488C340.178 163.879 340.244 164.307 340.244 164.771V164.895C340.244 165.355 340.178 165.783 340.045 166.178C339.912 166.568 339.717 166.91 339.459 167.203C339.205 167.492 338.893 167.717 338.521 167.877C338.15 168.037 337.725 168.117 337.244 168.117C336.764 168.117 336.336 168.037 335.961 167.877C335.59 167.717 335.275 167.492 335.018 167.203C334.764 166.91 334.57 166.568 334.438 166.178C334.305 165.783 334.238 165.355 334.238 164.895ZM335.926 164.771V164.895C335.926 165.16 335.949 165.408 335.996 165.639C336.043 165.869 336.117 166.072 336.219 166.248C336.324 166.42 336.461 166.555 336.629 166.652C336.797 166.75 337.002 166.799 337.244 166.799C337.479 166.799 337.68 166.75 337.848 166.652C338.016 166.555 338.15 166.42 338.252 166.248C338.354 166.072 338.428 165.869 338.475 165.639C338.525 165.408 338.551 165.16 338.551 164.895V164.771C338.551 164.514 338.525 164.271 338.475 164.045C338.428 163.814 338.352 163.611 338.246 163.436C338.145 163.256 338.01 163.115 337.842 163.014C337.674 162.912 337.471 162.861 337.232 162.861C336.994 162.861 336.791 162.912 336.623 163.014C336.459 163.115 336.324 163.256 336.219 163.436C336.117 163.611 336.043 163.814 335.996 164.045C335.949 164.271 335.926 164.514 335.926 164.771ZM342.934 163.014V168H341.246V161.66H342.828L342.934 163.014ZM342.688 164.607H342.23C342.23 164.139 342.291 163.717 342.412 163.342C342.533 162.963 342.703 162.641 342.922 162.375C343.141 162.105 343.4 161.9 343.701 161.76C344.006 161.615 344.346 161.543 344.721 161.543C345.018 161.543 345.289 161.586 345.535 161.672C345.781 161.758 345.992 161.895 346.168 162.082C346.348 162.27 346.484 162.518 346.578 162.826C346.676 163.135 346.725 163.512 346.725 163.957V168H345.025V163.951C345.025 163.67 344.986 163.451 344.908 163.295C344.83 163.139 344.715 163.029 344.562 162.967C344.414 162.9 344.23 162.867 344.012 162.867C343.785 162.867 343.588 162.912 343.42 163.002C343.256 163.092 343.119 163.217 343.01 163.377C342.904 163.533 342.824 163.717 342.77 163.928C342.715 164.139 342.688 164.365 342.688 164.607ZM351.113 161.66V162.855H347.422V161.66H351.113ZM348.336 160.096H350.023V166.09C350.023 166.273 350.047 166.414 350.094 166.512C350.145 166.609 350.219 166.678 350.316 166.717C350.414 166.752 350.537 166.77 350.686 166.77C350.791 166.77 350.885 166.766 350.967 166.758C351.053 166.746 351.125 166.734 351.184 166.723L351.189 167.965C351.045 168.012 350.889 168.049 350.721 168.076C350.553 168.104 350.367 168.117 350.164 168.117C349.793 168.117 349.469 168.057 349.191 167.936C348.918 167.811 348.707 167.611 348.559 167.338C348.41 167.064 348.336 166.705 348.336 166.26V160.096ZM355.496 166.57V163.746C355.496 163.543 355.463 163.369 355.396 163.225C355.33 163.076 355.227 162.961 355.086 162.879C354.949 162.797 354.771 162.756 354.553 162.756C354.365 162.756 354.203 162.789 354.066 162.855C353.93 162.918 353.824 163.01 353.75 163.131C353.676 163.248 353.639 163.387 353.639 163.547H351.951C351.951 163.277 352.014 163.021 352.139 162.779C352.264 162.537 352.445 162.324 352.684 162.141C352.922 161.953 353.205 161.807 353.533 161.701C353.865 161.596 354.236 161.543 354.646 161.543C355.139 161.543 355.576 161.625 355.959 161.789C356.342 161.953 356.643 162.199 356.861 162.527C357.084 162.855 357.195 163.266 357.195 163.758V166.471C357.195 166.818 357.217 167.104 357.26 167.326C357.303 167.545 357.365 167.736 357.447 167.9V168H355.742C355.66 167.828 355.598 167.613 355.555 167.355C355.516 167.094 355.496 166.832 355.496 166.57ZM355.719 164.139L355.73 165.094H354.787C354.564 165.094 354.371 165.119 354.207 165.17C354.043 165.221 353.908 165.293 353.803 165.387C353.697 165.477 353.619 165.582 353.568 165.703C353.521 165.824 353.498 165.957 353.498 166.102C353.498 166.246 353.531 166.377 353.598 166.494C353.664 166.607 353.76 166.697 353.885 166.764C354.01 166.826 354.156 166.857 354.324 166.857C354.578 166.857 354.799 166.807 354.986 166.705C355.174 166.604 355.318 166.479 355.42 166.33C355.525 166.182 355.58 166.041 355.584 165.908L356.029 166.623C355.967 166.783 355.881 166.949 355.771 167.121C355.666 167.293 355.531 167.455 355.367 167.607C355.203 167.756 355.006 167.879 354.775 167.977C354.545 168.07 354.271 168.117 353.955 168.117C353.553 168.117 353.188 168.037 352.859 167.877C352.535 167.713 352.277 167.488 352.086 167.203C351.898 166.914 351.805 166.586 351.805 166.219C351.805 165.887 351.867 165.592 351.992 165.334C352.117 165.076 352.301 164.859 352.543 164.684C352.789 164.504 353.096 164.369 353.463 164.279C353.83 164.186 354.256 164.139 354.74 164.139H355.719ZM361.115 166.799C361.322 166.799 361.506 166.76 361.666 166.682C361.826 166.6 361.951 166.486 362.041 166.342C362.135 166.193 362.184 166.02 362.188 165.82H363.775C363.771 166.266 363.652 166.662 363.418 167.01C363.184 167.354 362.869 167.625 362.475 167.824C362.08 168.02 361.639 168.117 361.15 168.117C360.658 168.117 360.229 168.035 359.861 167.871C359.498 167.707 359.195 167.48 358.953 167.191C358.711 166.898 358.529 166.559 358.408 166.172C358.287 165.781 358.227 165.363 358.227 164.918V164.748C358.227 164.299 358.287 163.881 358.408 163.494C358.529 163.104 358.711 162.764 358.953 162.475C359.195 162.182 359.498 161.953 359.861 161.789C360.225 161.625 360.65 161.543 361.139 161.543C361.658 161.543 362.113 161.643 362.504 161.842C362.898 162.041 363.207 162.326 363.43 162.697C363.656 163.064 363.771 163.5 363.775 164.004H362.188C362.184 163.793 362.139 163.602 362.053 163.43C361.971 163.258 361.85 163.121 361.689 163.02C361.533 162.914 361.34 162.861 361.109 162.861C360.863 162.861 360.662 162.914 360.506 163.02C360.35 163.121 360.229 163.262 360.143 163.441C360.057 163.617 359.996 163.818 359.961 164.045C359.93 164.268 359.914 164.502 359.914 164.748V164.918C359.914 165.164 359.93 165.4 359.961 165.627C359.992 165.854 360.051 166.055 360.137 166.23C360.227 166.406 360.35 166.545 360.506 166.646C360.662 166.748 360.865 166.799 361.115 166.799ZM367.859 161.66V162.855H364.168V161.66H367.859ZM365.082 160.096H366.77V166.09C366.77 166.273 366.793 166.414 366.84 166.512C366.891 166.609 366.965 166.678 367.062 166.717C367.16 166.752 367.283 166.77 367.432 166.77C367.537 166.77 367.631 166.766 367.713 166.758C367.799 166.746 367.871 166.734 367.93 166.723L367.936 167.965C367.791 168.012 367.635 168.049 367.467 168.076C367.299 168.104 367.113 168.117 366.91 168.117C366.539 168.117 366.215 168.057 365.938 167.936C365.664 167.811 365.453 167.611 365.305 167.338C365.156 167.064 365.082 166.705 365.082 166.26V160.096ZM372.248 166.248C372.248 166.127 372.213 166.018 372.143 165.92C372.072 165.822 371.941 165.732 371.75 165.65C371.562 165.564 371.291 165.486 370.936 165.416C370.615 165.346 370.316 165.258 370.039 165.152C369.766 165.043 369.527 164.912 369.324 164.76C369.125 164.607 368.969 164.428 368.855 164.221C368.742 164.01 368.686 163.77 368.686 163.5C368.686 163.234 368.742 162.984 368.855 162.75C368.973 162.516 369.139 162.309 369.354 162.129C369.572 161.945 369.838 161.803 370.15 161.701C370.467 161.596 370.822 161.543 371.217 161.543C371.768 161.543 372.24 161.631 372.635 161.807C373.033 161.982 373.338 162.225 373.549 162.533C373.764 162.838 373.871 163.186 373.871 163.576H372.184C372.184 163.412 372.148 163.266 372.078 163.137C372.012 163.004 371.906 162.9 371.762 162.826C371.621 162.748 371.438 162.709 371.211 162.709C371.023 162.709 370.861 162.742 370.725 162.809C370.588 162.871 370.482 162.957 370.408 163.066C370.338 163.172 370.303 163.289 370.303 163.418C370.303 163.516 370.322 163.604 370.361 163.682C370.404 163.756 370.473 163.824 370.566 163.887C370.66 163.949 370.781 164.008 370.93 164.062C371.082 164.113 371.27 164.16 371.492 164.203C371.949 164.297 372.357 164.42 372.717 164.572C373.076 164.721 373.361 164.924 373.572 165.182C373.783 165.436 373.889 165.77 373.889 166.184C373.889 166.465 373.826 166.723 373.701 166.957C373.576 167.191 373.396 167.396 373.162 167.572C372.928 167.744 372.646 167.879 372.318 167.977C371.994 168.07 371.629 168.117 371.223 168.117C370.633 168.117 370.133 168.012 369.723 167.801C369.316 167.59 369.008 167.322 368.797 166.998C368.59 166.67 368.486 166.334 368.486 165.99H370.086C370.094 166.221 370.152 166.406 370.262 166.547C370.375 166.688 370.518 166.789 370.689 166.852C370.865 166.914 371.055 166.945 371.258 166.945C371.477 166.945 371.658 166.916 371.803 166.857C371.947 166.795 372.057 166.713 372.131 166.611C372.209 166.506 372.248 166.385 372.248 166.248Z" fill="black"/>
<path d="M65.2461 166.629V168H60.9512V166.629H65.2461ZM61.5195 159.469V168H59.7617V159.469H61.5195ZM72.875 163.535V163.939C72.875 164.588 72.7871 165.17 72.6113 165.686C72.4355 166.201 72.1875 166.641 71.8672 167.004C71.5469 167.363 71.1641 167.639 70.7188 167.83C70.2773 168.021 69.7871 168.117 69.248 168.117C68.7129 168.117 68.2227 168.021 67.7773 167.83C67.3359 167.639 66.9531 167.363 66.6289 167.004C66.3047 166.641 66.0527 166.201 65.873 165.686C65.6973 165.17 65.6094 164.588 65.6094 163.939V163.535C65.6094 162.883 65.6973 162.301 65.873 161.789C66.0488 161.273 66.2969 160.834 66.6172 160.471C66.9414 160.107 67.3242 159.83 67.7656 159.639C68.2109 159.447 68.7012 159.352 69.2363 159.352C69.7754 159.352 70.2656 159.447 70.707 159.639C71.1523 159.83 71.5352 160.107 71.8555 160.471C72.1797 160.834 72.4297 161.273 72.6055 161.789C72.7852 162.301 72.875 162.883 72.875 163.535ZM71.0996 163.939V163.523C71.0996 163.07 71.0586 162.672 70.9766 162.328C70.8945 161.984 70.7734 161.695 70.6133 161.461C70.4531 161.227 70.2578 161.051 70.0273 160.934C69.7969 160.812 69.5332 160.752 69.2363 160.752C68.9395 160.752 68.6758 160.812 68.4453 160.934C68.2188 161.051 68.0254 161.227 67.8652 161.461C67.709 161.695 67.5898 161.984 67.5078 162.328C67.4258 162.672 67.3848 163.07 67.3848 163.523V163.939C67.3848 164.389 67.4258 164.787 67.5078 165.135C67.5898 165.479 67.7109 165.77 67.8711 166.008C68.0312 166.242 68.2266 166.42 68.457 166.541C68.6875 166.662 68.9512 166.723 69.248 166.723C69.5449 166.723 69.8086 166.662 70.0391 166.541C70.2695 166.42 70.4629 166.242 70.6191 166.008C70.7754 165.77 70.8945 165.479 70.9766 165.135C71.0586 164.787 71.0996 164.389 71.0996 163.939ZM80.9023 163.541V166.922C80.7695 167.082 80.5645 167.256 80.2871 167.443C80.0098 167.627 79.6523 167.785 79.2148 167.918C78.7773 168.051 78.248 168.117 77.627 168.117C77.0762 168.117 76.5742 168.027 76.1211 167.848C75.668 167.664 75.2773 167.396 74.9492 167.045C74.625 166.693 74.375 166.264 74.1992 165.756C74.0234 165.244 73.9355 164.66 73.9355 164.004V163.471C73.9355 162.814 74.0195 162.23 74.1875 161.719C74.3594 161.207 74.6035 160.775 74.9199 160.424C75.2363 160.072 75.6133 159.805 76.0508 159.621C76.4883 159.438 76.9746 159.346 77.5098 159.346C78.252 159.346 78.8613 159.467 79.3379 159.709C79.8145 159.947 80.1777 160.279 80.4277 160.705C80.6816 161.127 80.8379 161.611 80.8965 162.158H79.1914C79.1484 161.869 79.0664 161.617 78.9453 161.402C78.8242 161.188 78.6504 161.02 78.4238 160.898C78.2012 160.777 77.9121 160.717 77.5566 160.717C77.2637 160.717 77.002 160.777 76.7715 160.898C76.5449 161.016 76.3535 161.189 76.1973 161.42C76.041 161.65 75.9219 161.936 75.8398 162.275C75.7578 162.615 75.7168 163.01 75.7168 163.459V164.004C75.7168 164.449 75.7598 164.844 75.8457 165.188C75.9316 165.527 76.0586 165.814 76.2266 166.049C76.3984 166.279 76.6094 166.453 76.8594 166.57C77.1094 166.688 77.4004 166.746 77.7324 166.746C78.0098 166.746 78.2402 166.723 78.4238 166.676C78.6113 166.629 78.7617 166.572 78.875 166.506C78.9922 166.436 79.082 166.369 79.1445 166.307V164.795H77.5391V163.541H80.9023ZM89.3281 163.535V163.939C89.3281 164.588 89.2402 165.17 89.0645 165.686C88.8887 166.201 88.6406 166.641 88.3203 167.004C88 167.363 87.6172 167.639 87.1719 167.83C86.7305 168.021 86.2402 168.117 85.7012 168.117C85.166 168.117 84.6758 168.021 84.2305 167.83C83.7891 167.639 83.4062 167.363 83.082 167.004C82.7578 166.641 82.5059 166.201 82.3262 165.686C82.1504 165.17 82.0625 164.588 82.0625 163.939V163.535C82.0625 162.883 82.1504 162.301 82.3262 161.789C82.502 161.273 82.75 160.834 83.0703 160.471C83.3945 160.107 83.7773 159.83 84.2188 159.639C84.6641 159.447 85.1543 159.352 85.6895 159.352C86.2285 159.352 86.7188 159.447 87.1602 159.639C87.6055 159.83 87.9883 160.107 88.3086 160.471C88.6328 160.834 88.8828 161.273 89.0586 161.789C89.2383 162.301 89.3281 162.883 89.3281 163.535ZM87.5527 163.939V163.523C87.5527 163.07 87.5117 162.672 87.4297 162.328C87.3477 161.984 87.2266 161.695 87.0664 161.461C86.9062 161.227 86.7109 161.051 86.4805 160.934C86.25 160.812 85.9863 160.752 85.6895 160.752C85.3926 160.752 85.1289 160.812 84.8984 160.934C84.6719 161.051 84.4785 161.227 84.3184 161.461C84.1621 161.695 84.043 161.984 83.9609 162.328C83.8789 162.672 83.8379 163.07 83.8379 163.523V163.939C83.8379 164.389 83.8789 164.787 83.9609 165.135C84.043 165.479 84.1641 165.77 84.3242 166.008C84.4844 166.242 84.6797 166.42 84.9102 166.541C85.1406 166.662 85.4043 166.723 85.7012 166.723C85.998 166.723 86.2617 166.662 86.4922 166.541C86.7227 166.42 86.916 166.242 87.0723 166.008C87.2285 165.77 87.3477 165.479 87.4297 165.135C87.5117 164.787 87.5527 164.389 87.5527 163.939Z" fill="black"/>
<path d="M83.9844 239.516V245H66.8047V239.516H83.9844ZM69.0781 210.875V245H62.0469V210.875H69.0781ZM102.359 216.711L93.0781 245H85.6016L98.2812 210.875H103.039L102.359 216.711ZM110.07 245L100.766 216.711L100.016 210.875H104.82L117.57 245H110.07ZM109.648 232.297V237.805H91.625V232.297H109.648ZM148.508 210.875V245H141.477L127.766 222.125V245H120.734V210.875H127.766L141.5 233.773V210.875H148.508ZM165.102 245H157.672L157.719 239.516H165.102C166.945 239.516 168.5 239.102 169.766 238.273C171.031 237.43 171.984 236.203 172.625 234.594C173.281 232.984 173.609 231.039 173.609 228.758V227.094C173.609 225.344 173.422 223.805 173.047 222.477C172.688 221.148 172.148 220.031 171.43 219.125C170.711 218.219 169.828 217.539 168.781 217.086C167.734 216.617 166.531 216.383 165.172 216.383H157.531V210.875H165.172C167.453 210.875 169.539 211.266 171.43 212.047C173.336 212.812 174.984 213.914 176.375 215.352C177.766 216.789 178.836 218.508 179.586 220.508C180.352 222.492 180.734 224.703 180.734 227.141V228.758C180.734 231.18 180.352 233.391 179.586 235.391C178.836 237.391 177.766 239.109 176.375 240.547C175 241.969 173.352 243.07 171.43 243.852C169.523 244.617 167.414 245 165.102 245ZM161.656 210.875V245H154.625V210.875H161.656ZM193.32 210.875V245H186.312V210.875H193.32ZM227.68 210.875V245H220.648L206.938 222.125V245H199.906V210.875H206.938L220.672 233.773V210.875H227.68ZM260.844 227.164V240.688C260.312 241.328 259.492 242.023 258.383 242.773C257.273 243.508 255.844 244.141 254.094 244.672C252.344 245.203 250.227 245.469 247.742 245.469C245.539 245.469 243.531 245.109 241.719 244.391C239.906 243.656 238.344 242.586 237.031 241.18C235.734 239.773 234.734 238.055 234.031 236.023C233.328 233.977 232.977 231.641 232.977 229.016V226.883C232.977 224.258 233.312 221.922 233.984 219.875C234.672 217.828 235.648 216.102 236.914 214.695C238.18 213.289 239.688 212.219 241.438 211.484C243.188 210.75 245.133 210.383 247.273 210.383C250.242 210.383 252.68 210.867 254.586 211.836C256.492 212.789 257.945 214.117 258.945 215.82C259.961 217.508 260.586 219.445 260.82 221.633H254C253.828 220.477 253.5 219.469 253.016 218.609C252.531 217.75 251.836 217.078 250.93 216.594C250.039 216.109 248.883 215.867 247.461 215.867C246.289 215.867 245.242 216.109 244.32 216.594C243.414 217.062 242.648 217.758 242.023 218.68C241.398 219.602 240.922 220.742 240.594 222.102C240.266 223.461 240.102 225.039 240.102 226.836V229.016C240.102 230.797 240.273 232.375 240.617 233.75C240.961 235.109 241.469 236.258 242.141 237.195C242.828 238.117 243.672 238.812 244.672 239.281C245.672 239.75 246.836 239.984 248.164 239.984C249.273 239.984 250.195 239.891 250.93 239.703C251.68 239.516 252.281 239.289 252.734 239.023C253.203 238.742 253.562 238.477 253.812 238.227V232.18H247.391V227.164H260.844ZM75.3359 288.836H66.6406V283.352H75.3359C76.6797 283.352 77.7734 283.133 78.6172 282.695C79.4609 282.242 80.0781 281.617 80.4688 280.82C80.8594 280.023 81.0547 279.125 81.0547 278.125C81.0547 277.109 80.8594 276.164 80.4688 275.289C80.0781 274.414 79.4609 273.711 78.6172 273.18C77.7734 272.648 76.6797 272.383 75.3359 272.383H69.0781V301H62.0469V266.875H75.3359C78.0078 266.875 80.2969 267.359 82.2031 268.328C84.125 269.281 85.5938 270.602 86.6094 272.289C87.625 273.977 88.1328 275.906 88.1328 278.078C88.1328 280.281 87.625 282.188 86.6094 283.797C85.5938 285.406 84.125 286.648 82.2031 287.523C80.2969 288.398 78.0078 288.836 75.3359 288.836ZM102.969 272.711L93.6875 301H86.2109L98.8906 266.875H103.648L102.969 272.711ZM110.68 301L101.375 272.711L100.625 266.875H105.43L118.18 301H110.68ZM110.258 288.297V293.805H92.2344V288.297H110.258ZM147.969 283.164V296.688C147.438 297.328 146.617 298.023 145.508 298.773C144.398 299.508 142.969 300.141 141.219 300.672C139.469 301.203 137.352 301.469 134.867 301.469C132.664 301.469 130.656 301.109 128.844 300.391C127.031 299.656 125.469 298.586 124.156 297.18C122.859 295.773 121.859 294.055 121.156 292.023C120.453 289.977 120.102 287.641 120.102 285.016V282.883C120.102 280.258 120.438 277.922 121.109 275.875C121.797 273.828 122.773 272.102 124.039 270.695C125.305 269.289 126.812 268.219 128.562 267.484C130.312 266.75 132.258 266.383 134.398 266.383C137.367 266.383 139.805 266.867 141.711 267.836C143.617 268.789 145.07 270.117 146.07 271.82C147.086 273.508 147.711 275.445 147.945 277.633H141.125C140.953 276.477 140.625 275.469 140.141 274.609C139.656 273.75 138.961 273.078 138.055 272.594C137.164 272.109 136.008 271.867 134.586 271.867C133.414 271.867 132.367 272.109 131.445 272.594C130.539 273.062 129.773 273.758 129.148 274.68C128.523 275.602 128.047 276.742 127.719 278.102C127.391 279.461 127.227 281.039 127.227 282.836V285.016C127.227 286.797 127.398 288.375 127.742 289.75C128.086 291.109 128.594 292.258 129.266 293.195C129.953 294.117 130.797 294.812 131.797 295.281C132.797 295.75 133.961 295.984 135.289 295.984C136.398 295.984 137.32 295.891 138.055 295.703C138.805 295.516 139.406 295.289 139.859 295.023C140.328 294.742 140.688 294.477 140.938 294.227V288.18H134.516V283.164H147.969ZM176.539 295.516V301H158.375V295.516H176.539ZM160.672 266.875V301H153.641V266.875H160.672ZM174.172 280.773V286.117H158.375V280.773H174.172ZM176.516 266.875V272.383H158.375V266.875H176.516Z" fill="black"/>
<rect x="297" y="211" width="236" height="164" fill="#BEEBC5"/>
<rect x="44" y="465" width="136" height="59" fill="#59877C"/>
<rect x="44" y="535" width="63" height="7" fill="#232121"/>
<rect x="44" y="553" width="46" height="4" fill="#232121"/>
<rect x="101" y="553" width="46" height="4" fill="#232121"/>
<rect x="157" y="553" width="23" height="4" fill="#232121"/>
<rect x="44" y="562" width="63" height="4" fill="#232121"/>
<rect x="115" y="580" width="64" height="4" fill="#232121"/>
<rect x="43" y="571" width="46" height="4" fill="#232121"/>
<rect x="100" y="571" width="46" height="4" fill="#232121"/>
<rect x="156" y="571" width="23" height="4" fill="#232121"/>
<rect x="43" y="580" width="63" height="4" fill="#232121"/>
<rect x="291" y="562" width="64" height="4" fill="#232121"/>
<rect x="219" y="465" width="136" height="59" fill="#397D6D"/>
<rect x="219" y="535" width="63" height="7" fill="#232121"/>
<rect x="219" y="553" width="46" height="4" fill="#232121"/>
<rect x="276" y="553" width="46" height="4" fill="#232121"/>
<rect x="332" y="553" width="23" height="4" fill="#232121"/>
<rect x="219" y="562" width="63" height="4" fill="#232121"/>
<rect x="290" y="580" width="64" height="4" fill="#232121"/>
<rect x="218" y="571" width="46" height="4" fill="#232121"/>
<rect x="275" y="571" width="46" height="4" fill="#232121"/>
<rect x="331" y="571" width="23" height="4" fill="#232121"/>
<rect x="218" y="580" width="63" height="4" fill="#232121"/>
<rect x="468" y="560" width="64" height="4" fill="#232121"/>
<rect x="396" y="463" width="136" height="59" fill="#1D9578"/>
<rect x="396" y="533" width="63" height="7" fill="#232121"/>
<rect x="396" y="551" width="46" height="4" fill="#232121"/>
<rect x="453" y="551" width="46" height="4" fill="#232121"/>
<rect x="509" y="551" width="23" height="4" fill="#232121"/>
<rect x="396" y="560" width="63" height="4" fill="#232121"/>
<rect x="467" y="578" width="64" height="4" fill="#232121"/>
<rect x="395" y="569" width="46" height="4" fill="#232121"/>
<rect x="452" y="569" width="46" height="4" fill="#232121"/>
<rect x="508" y="569" width="23" height="4" fill="#232121"/>
<rect x="395" y="578" width="63" height="4" fill="#232121"/>
<rect x="73" y="640" width="126" height="60" fill="#5AC7DF"/>
<g filter="url(#filter1_d_20_103)">
<rect x="75" y="705" width="57" height="65" fill="#449FB3"/>
</g>
<g filter="url(#filter2_d_20_103)">
<rect x="140" y="705" width="53" height="65" fill="#5AC7DF"/>
</g>
<g filter="url(#filter3_d_20_103)">
<rect x="206" y="636" width="76" height="134" fill="#14414A"/>
</g>
<rect x="292" y="642" width="83" height="58" fill="#5AC7DF"/>
<g filter="url(#filter4_d_20_103)">
<rect x="290" y="708" width="83" height="58" fill="#5AC7DF"/>
</g>
<rect x="384" y="642" width="151" height="92" fill="#1D4650"/>
<g filter="url(#filter5_d_20_103)">
<rect x="382" y="739" width="153" height="51" fill="#5AC7DF"/>
</g>
<path d="M61.1289 322.938H64.1055L68.4883 335.465L72.8711 322.938H75.8477L69.6836 340H67.293L61.1289 322.938ZM59.5234 322.938H62.4883L63.0273 335.148V340H59.5234V322.938ZM74.4883 322.938H77.4648V340H73.9492V335.148L74.4883 322.938ZM79.7969 333.789V333.543C79.7969 332.613 79.9297 331.758 80.1953 330.977C80.4609 330.188 80.8477 329.504 81.3555 328.926C81.8633 328.348 82.4883 327.898 83.2305 327.578C83.9727 327.25 84.8242 327.086 85.7852 327.086C86.7461 327.086 87.6016 327.25 88.3516 327.578C89.1016 327.898 89.7305 328.348 90.2383 328.926C90.7539 329.504 91.1445 330.188 91.4102 330.977C91.6758 331.758 91.8086 332.613 91.8086 333.543V333.789C91.8086 334.711 91.6758 335.566 91.4102 336.355C91.1445 337.137 90.7539 337.82 90.2383 338.406C89.7305 338.984 89.1055 339.434 88.3633 339.754C87.6211 340.074 86.7695 340.234 85.8086 340.234C84.8477 340.234 83.9922 340.074 83.2422 339.754C82.5 339.434 81.8711 338.984 81.3555 338.406C80.8477 337.82 80.4609 337.137 80.1953 336.355C79.9297 335.566 79.7969 334.711 79.7969 333.789ZM83.1719 333.543V333.789C83.1719 334.32 83.2188 334.816 83.3125 335.277C83.4062 335.738 83.5547 336.145 83.7578 336.496C83.9688 336.84 84.2422 337.109 84.5781 337.305C84.9141 337.5 85.3242 337.598 85.8086 337.598C86.2773 337.598 86.6797 337.5 87.0156 337.305C87.3516 337.109 87.6211 336.84 87.8242 336.496C88.0273 336.145 88.1758 335.738 88.2695 335.277C88.3711 334.816 88.4219 334.32 88.4219 333.789V333.543C88.4219 333.027 88.3711 332.543 88.2695 332.09C88.1758 331.629 88.0234 331.223 87.8125 330.871C87.6094 330.512 87.3398 330.23 87.0039 330.027C86.668 329.824 86.2617 329.723 85.7852 329.723C85.3086 329.723 84.9023 329.824 84.5664 330.027C84.2383 330.23 83.9688 330.512 83.7578 330.871C83.5547 331.223 83.4062 331.629 83.3125 332.09C83.2188 332.543 83.1719 333.027 83.1719 333.543ZM97.2578 330.086V340H93.8828V327.32H97.0586L97.2578 330.086ZM101.078 327.238L101.02 330.367C100.855 330.344 100.656 330.324 100.422 330.309C100.195 330.285 99.9883 330.273 99.8008 330.273C99.3242 330.273 98.9102 330.336 98.5586 330.461C98.2148 330.578 97.9258 330.754 97.6914 330.988C97.4648 331.223 97.293 331.508 97.1758 331.844C97.0664 332.18 97.0039 332.562 96.9883 332.992L96.3086 332.781C96.3086 331.961 96.3906 331.207 96.5547 330.52C96.7188 329.824 96.957 329.219 97.2695 328.703C97.5898 328.188 97.9805 327.789 98.4414 327.508C98.9023 327.227 99.4297 327.086 100.023 327.086C100.211 327.086 100.402 327.102 100.598 327.133C100.793 327.156 100.953 327.191 101.078 327.238ZM108.273 340.234C107.289 340.234 106.406 340.078 105.625 339.766C104.844 339.445 104.18 339.004 103.633 338.441C103.094 337.879 102.68 337.227 102.391 336.484C102.102 335.734 101.957 334.938 101.957 334.094V333.625C101.957 332.664 102.094 331.785 102.367 330.988C102.641 330.191 103.031 329.5 103.539 328.914C104.055 328.328 104.68 327.879 105.414 327.566C106.148 327.246 106.977 327.086 107.898 327.086C108.797 327.086 109.594 327.234 110.289 327.531C110.984 327.828 111.566 328.25 112.035 328.797C112.512 329.344 112.871 330 113.113 330.766C113.355 331.523 113.477 332.367 113.477 333.297V334.703H103.398V332.453H110.16V332.195C110.16 331.727 110.074 331.309 109.902 330.941C109.738 330.566 109.488 330.27 109.152 330.051C108.816 329.832 108.387 329.723 107.863 329.723C107.418 329.723 107.035 329.82 106.715 330.016C106.395 330.211 106.133 330.484 105.93 330.836C105.734 331.188 105.586 331.602 105.484 332.078C105.391 332.547 105.344 333.062 105.344 333.625V334.094C105.344 334.602 105.414 335.07 105.555 335.5C105.703 335.93 105.91 336.301 106.176 336.613C106.449 336.926 106.777 337.168 107.16 337.34C107.551 337.512 107.992 337.598 108.484 337.598C109.094 337.598 109.66 337.48 110.184 337.246C110.715 337.004 111.172 336.641 111.555 336.156L113.195 337.938C112.93 338.32 112.566 338.688 112.105 339.039C111.652 339.391 111.105 339.68 110.465 339.906C109.824 340.125 109.094 340.234 108.273 340.234ZM128.219 337.141V331.492C128.219 331.086 128.152 330.738 128.02 330.449C127.887 330.152 127.68 329.922 127.398 329.758C127.125 329.594 126.77 329.512 126.332 329.512C125.957 329.512 125.633 329.578 125.359 329.711C125.086 329.836 124.875 330.02 124.727 330.262C124.578 330.496 124.504 330.773 124.504 331.094H121.129C121.129 330.555 121.254 330.043 121.504 329.559C121.754 329.074 122.117 328.648 122.594 328.281C123.07 327.906 123.637 327.613 124.293 327.402C124.957 327.191 125.699 327.086 126.52 327.086C127.504 327.086 128.379 327.25 129.145 327.578C129.91 327.906 130.512 328.398 130.949 329.055C131.395 329.711 131.617 330.531 131.617 331.516V336.941C131.617 337.637 131.66 338.207 131.746 338.652C131.832 339.09 131.957 339.473 132.121 339.801V340H128.711C128.547 339.656 128.422 339.227 128.336 338.711C128.258 338.188 128.219 337.664 128.219 337.141ZM128.664 332.277L128.688 334.188H126.801C126.355 334.188 125.969 334.238 125.641 334.34C125.312 334.441 125.043 334.586 124.832 334.773C124.621 334.953 124.465 335.164 124.363 335.406C124.27 335.648 124.223 335.914 124.223 336.203C124.223 336.492 124.289 336.754 124.422 336.988C124.555 337.215 124.746 337.395 124.996 337.527C125.246 337.652 125.539 337.715 125.875 337.715C126.383 337.715 126.824 337.613 127.199 337.41C127.574 337.207 127.863 336.957 128.066 336.66C128.277 336.363 128.387 336.082 128.395 335.816L129.285 337.246C129.16 337.566 128.988 337.898 128.77 338.242C128.559 338.586 128.289 338.91 127.961 339.215C127.633 339.512 127.238 339.758 126.777 339.953C126.316 340.141 125.77 340.234 125.137 340.234C124.332 340.234 123.602 340.074 122.945 339.754C122.297 339.426 121.781 338.977 121.398 338.406C121.023 337.828 120.836 337.172 120.836 336.438C120.836 335.773 120.961 335.184 121.211 334.668C121.461 334.152 121.828 333.719 122.312 333.367C122.805 333.008 123.418 332.738 124.152 332.559C124.887 332.371 125.738 332.277 126.707 332.277H128.664ZM134.219 322H137.594V337.094L137.254 340H134.219V322ZM145.621 333.531V333.777C145.621 334.723 145.52 335.59 145.316 336.379C145.121 337.168 144.816 337.852 144.402 338.43C143.988 339 143.473 339.445 142.855 339.766C142.246 340.078 141.527 340.234 140.699 340.234C139.926 340.234 139.254 340.078 138.684 339.766C138.121 339.453 137.648 339.012 137.266 338.441C136.883 337.871 136.574 337.203 136.34 336.438C136.105 335.672 135.93 334.836 135.812 333.93V333.391C135.93 332.484 136.105 331.648 136.34 330.883C136.574 330.117 136.883 329.449 137.266 328.879C137.648 328.309 138.121 327.867 138.684 327.555C139.246 327.242 139.91 327.086 140.676 327.086C141.512 327.086 142.238 327.246 142.855 327.566C143.48 327.879 143.996 328.324 144.402 328.902C144.816 329.473 145.121 330.152 145.316 330.941C145.52 331.723 145.621 332.586 145.621 333.531ZM142.246 333.777V333.531C142.246 333.016 142.207 332.531 142.129 332.078C142.059 331.617 141.934 331.215 141.754 330.871C141.574 330.52 141.328 330.242 141.016 330.039C140.711 329.836 140.316 329.734 139.832 329.734C139.371 329.734 138.98 329.812 138.66 329.969C138.34 330.125 138.074 330.344 137.863 330.625C137.66 330.906 137.508 331.242 137.406 331.633C137.305 332.016 137.242 332.438 137.219 332.898V334.434C137.242 335.051 137.344 335.598 137.523 336.074C137.711 336.543 137.992 336.914 138.367 337.188C138.75 337.453 139.246 337.586 139.855 337.586C140.332 337.586 140.727 337.492 141.039 337.305C141.352 337.117 141.594 336.852 141.766 336.508C141.945 336.164 142.07 335.762 142.141 335.301C142.211 334.832 142.246 334.324 142.246 333.777ZM147.18 333.789V333.543C147.18 332.613 147.312 331.758 147.578 330.977C147.844 330.188 148.23 329.504 148.738 328.926C149.246 328.348 149.871 327.898 150.613 327.578C151.355 327.25 152.207 327.086 153.168 327.086C154.129 327.086 154.984 327.25 155.734 327.578C156.484 327.898 157.113 328.348 157.621 328.926C158.137 329.504 158.527 330.188 158.793 330.977C159.059 331.758 159.191 332.613 159.191 333.543V333.789C159.191 334.711 159.059 335.566 158.793 336.355C158.527 337.137 158.137 337.82 157.621 338.406C157.113 338.984 156.488 339.434 155.746 339.754C155.004 340.074 154.152 340.234 153.191 340.234C152.23 340.234 151.375 340.074 150.625 339.754C149.883 339.434 149.254 338.984 148.738 338.406C148.23 337.82 147.844 337.137 147.578 336.355C147.312 335.566 147.18 334.711 147.18 333.789ZM150.555 333.543V333.789C150.555 334.32 150.602 334.816 150.695 335.277C150.789 335.738 150.938 336.145 151.141 336.496C151.352 336.84 151.625 337.109 151.961 337.305C152.297 337.5 152.707 337.598 153.191 337.598C153.66 337.598 154.062 337.5 154.398 337.305C154.734 337.109 155.004 336.84 155.207 336.496C155.41 336.145 155.559 335.738 155.652 335.277C155.754 334.816 155.805 334.32 155.805 333.789V333.543C155.805 333.027 155.754 332.543 155.652 332.09C155.559 331.629 155.406 331.223 155.195 330.871C154.992 330.512 154.723 330.23 154.387 330.027C154.051 329.824 153.645 329.723 153.168 329.723C152.691 329.723 152.285 329.824 151.949 330.027C151.621 330.23 151.352 330.512 151.141 330.871C150.938 331.223 150.789 331.629 150.695 332.09C150.602 332.543 150.555 333.027 150.555 333.543ZM168.766 336.965V327.32H172.141V340H168.965L168.766 336.965ZM169.141 334.363L170.137 334.34C170.137 335.184 170.039 335.969 169.844 336.695C169.648 337.414 169.355 338.039 168.965 338.57C168.574 339.094 168.082 339.504 167.488 339.801C166.895 340.09 166.195 340.234 165.391 340.234C164.773 340.234 164.203 340.148 163.68 339.977C163.164 339.797 162.719 339.52 162.344 339.145C161.977 338.762 161.688 338.273 161.477 337.68C161.273 337.078 161.172 336.355 161.172 335.512V327.32H164.547V335.535C164.547 335.91 164.59 336.227 164.676 336.484C164.77 336.742 164.898 336.953 165.062 337.117C165.227 337.281 165.418 337.398 165.637 337.469C165.863 337.539 166.113 337.574 166.387 337.574C167.082 337.574 167.629 337.434 168.027 337.152C168.434 336.871 168.719 336.488 168.883 336.004C169.055 335.512 169.141 334.965 169.141 334.363ZM180.93 327.32V329.711H173.547V327.32H180.93ZM175.375 324.191H178.75V336.18C178.75 336.547 178.797 336.828 178.891 337.023C178.992 337.219 179.141 337.355 179.336 337.434C179.531 337.504 179.777 337.539 180.074 337.539C180.285 337.539 180.473 337.531 180.637 337.516C180.809 337.492 180.953 337.469 181.07 337.445L181.082 339.93C180.793 340.023 180.48 340.098 180.145 340.152C179.809 340.207 179.438 340.234 179.031 340.234C178.289 340.234 177.641 340.113 177.086 339.871C176.539 339.621 176.117 339.223 175.82 338.676C175.523 338.129 175.375 337.41 175.375 336.52V324.191ZM196.328 336.965V327.32H199.703V340H196.527L196.328 336.965ZM196.703 334.363L197.699 334.34C197.699 335.184 197.602 335.969 197.406 336.695C197.211 337.414 196.918 338.039 196.527 338.57C196.137 339.094 195.645 339.504 195.051 339.801C194.457 340.09 193.758 340.234 192.953 340.234C192.336 340.234 191.766 340.148 191.242 339.977C190.727 339.797 190.281 339.52 189.906 339.145C189.539 338.762 189.25 338.273 189.039 337.68C188.836 337.078 188.734 336.355 188.734 335.512V327.32H192.109V335.535C192.109 335.91 192.152 336.227 192.238 336.484C192.332 336.742 192.461 336.953 192.625 337.117C192.789 337.281 192.98 337.398 193.199 337.469C193.426 337.539 193.676 337.574 193.949 337.574C194.645 337.574 195.191 337.434 195.59 337.152C195.996 336.871 196.281 336.488 196.445 336.004C196.617 335.512 196.703 334.965 196.703 334.363ZM209.137 336.496C209.137 336.254 209.066 336.035 208.926 335.84C208.785 335.645 208.523 335.465 208.141 335.301C207.766 335.129 207.223 334.973 206.512 334.832C205.871 334.691 205.273 334.516 204.719 334.305C204.172 334.086 203.695 333.824 203.289 333.52C202.891 333.215 202.578 332.855 202.352 332.441C202.125 332.02 202.012 331.539 202.012 331C202.012 330.469 202.125 329.969 202.352 329.5C202.586 329.031 202.918 328.617 203.348 328.258C203.785 327.891 204.316 327.605 204.941 327.402C205.574 327.191 206.285 327.086 207.074 327.086C208.176 327.086 209.121 327.262 209.91 327.613C210.707 327.965 211.316 328.449 211.738 329.066C212.168 329.676 212.383 330.371 212.383 331.152H209.008C209.008 330.824 208.938 330.531 208.797 330.273C208.664 330.008 208.453 329.801 208.164 329.652C207.883 329.496 207.516 329.418 207.062 329.418C206.688 329.418 206.363 329.484 206.09 329.617C205.816 329.742 205.605 329.914 205.457 330.133C205.316 330.344 205.246 330.578 205.246 330.836C205.246 331.031 205.285 331.207 205.363 331.363C205.449 331.512 205.586 331.648 205.773 331.773C205.961 331.898 206.203 332.016 206.5 332.125C206.805 332.227 207.18 332.32 207.625 332.406C208.539 332.594 209.355 332.84 210.074 333.145C210.793 333.441 211.363 333.848 211.785 334.363C212.207 334.871 212.418 335.539 212.418 336.367C212.418 336.93 212.293 337.445 212.043 337.914C211.793 338.383 211.434 338.793 210.965 339.145C210.496 339.488 209.934 339.758 209.277 339.953C208.629 340.141 207.898 340.234 207.086 340.234C205.906 340.234 204.906 340.023 204.086 339.602C203.273 339.18 202.656 338.645 202.234 337.996C201.82 337.34 201.613 336.668 201.613 335.98H204.812C204.828 336.441 204.945 336.812 205.164 337.094C205.391 337.375 205.676 337.578 206.02 337.703C206.371 337.828 206.75 337.891 207.156 337.891C207.594 337.891 207.957 337.832 208.246 337.715C208.535 337.59 208.754 337.426 208.902 337.223C209.059 337.012 209.137 336.77 209.137 336.496Z" fill="black"/>
<rect x="58" y="356" width="88" height="23" fill="#EE7A3A"/>
<path d="M67.7734 368.789V368.543C67.7734 367.613 67.9062 366.758 68.1719 365.977C68.4375 365.188 68.8242 364.504 69.332 363.926C69.8398 363.348 70.4648 362.898 71.207 362.578C71.9492 362.25 72.8008 362.086 73.7617 362.086C74.7227 362.086 75.5781 362.25 76.3281 362.578C77.0781 362.898 77.707 363.348 78.2148 363.926C78.7305 364.504 79.1211 365.188 79.3867 365.977C79.6523 366.758 79.7852 367.613 79.7852 368.543V368.789C79.7852 369.711 79.6523 370.566 79.3867 371.355C79.1211 372.137 78.7305 372.82 78.2148 373.406C77.707 373.984 77.082 374.434 76.3398 374.754C75.5977 375.074 74.7461 375.234 73.7852 375.234C72.8242 375.234 71.9688 375.074 71.2188 374.754C70.4766 374.434 69.8477 373.984 69.332 373.406C68.8242 372.82 68.4375 372.137 68.1719 371.355C67.9062 370.566 67.7734 369.711 67.7734 368.789ZM71.1484 368.543V368.789C71.1484 369.32 71.1953 369.816 71.2891 370.277C71.3828 370.738 71.5312 371.145 71.7344 371.496C71.9453 371.84 72.2188 372.109 72.5547 372.305C72.8906 372.5 73.3008 372.598 73.7852 372.598C74.2539 372.598 74.6562 372.5 74.9922 372.305C75.3281 372.109 75.5977 371.84 75.8008 371.496C76.0039 371.145 76.1523 370.738 76.2461 370.277C76.3477 369.816 76.3984 369.32 76.3984 368.789V368.543C76.3984 368.027 76.3477 367.543 76.2461 367.09C76.1523 366.629 76 366.223 75.7891 365.871C75.5859 365.512 75.3164 365.23 74.9805 365.027C74.6445 364.824 74.2383 364.723 73.7617 364.723C73.2852 364.723 72.8789 364.824 72.543 365.027C72.2148 365.23 71.9453 365.512 71.7344 365.871C71.5312 366.223 71.3828 366.629 71.2891 367.09C71.1953 367.543 71.1484 368.027 71.1484 368.543ZM85.2344 365.086V375H81.8594V362.32H85.0352L85.2344 365.086ZM89.0547 362.238L88.9961 365.367C88.832 365.344 88.6328 365.324 88.3984 365.309C88.1719 365.285 87.9648 365.273 87.7773 365.273C87.3008 365.273 86.8867 365.336 86.5352 365.461C86.1914 365.578 85.9023 365.754 85.668 365.988C85.4414 366.223 85.2695 366.508 85.1523 366.844C85.043 367.18 84.9805 367.562 84.9648 367.992L84.2852 367.781C84.2852 366.961 84.3672 366.207 84.5312 365.52C84.6953 364.824 84.9336 364.219 85.2461 363.703C85.5664 363.188 85.957 362.789 86.418 362.508C86.8789 362.227 87.4062 362.086 88 362.086C88.1875 362.086 88.3789 362.102 88.5742 362.133C88.7695 362.156 88.9297 362.191 89.0547 362.238ZM97.9023 372.234V357H101.301V375H98.2422L97.9023 372.234ZM89.8867 368.812V368.566C89.8867 367.598 89.9961 366.719 90.2148 365.93C90.4336 365.133 90.7539 364.449 91.1758 363.879C91.5977 363.309 92.1172 362.867 92.7344 362.555C93.3516 362.242 94.0547 362.086 94.8438 362.086C95.5859 362.086 96.2344 362.242 96.7891 362.555C97.3516 362.867 97.8281 363.312 98.2188 363.891C98.6172 364.461 98.9375 365.137 99.1797 365.918C99.4219 366.691 99.5977 367.539 99.707 368.461V369C99.5977 369.883 99.4219 370.703 99.1797 371.461C98.9375 372.219 98.6172 372.883 98.2188 373.453C97.8281 374.016 97.3516 374.453 96.7891 374.766C96.2266 375.078 95.5703 375.234 94.8203 375.234C94.0312 375.234 93.3281 375.074 92.7109 374.754C92.1016 374.434 91.5859 373.984 91.1641 373.406C90.75 372.828 90.4336 372.148 90.2148 371.367C89.9961 370.586 89.8867 369.734 89.8867 368.812ZM93.2617 368.566V368.812C93.2617 369.336 93.3008 369.824 93.3789 370.277C93.4648 370.73 93.6016 371.133 93.7891 371.484C93.9844 371.828 94.2344 372.098 94.5391 372.293C94.8516 372.48 95.2305 372.574 95.6758 372.574C96.2539 372.574 96.7305 372.445 97.1055 372.188C97.4805 371.922 97.7656 371.559 97.9609 371.098C98.1641 370.637 98.2812 370.105 98.3125 369.504V367.969C98.2891 367.477 98.2188 367.035 98.1016 366.645C97.9922 366.246 97.8281 365.906 97.6094 365.625C97.3984 365.344 97.1328 365.125 96.8125 364.969C96.5 364.812 96.1289 364.734 95.6992 364.734C95.2617 364.734 94.8867 364.836 94.5742 365.039C94.2617 365.234 94.0078 365.504 93.8125 365.848C93.625 366.191 93.4844 366.598 93.3906 367.066C93.3047 367.527 93.2617 368.027 93.2617 368.566ZM109.773 375.234C108.789 375.234 107.906 375.078 107.125 374.766C106.344 374.445 105.68 374.004 105.133 373.441C104.594 372.879 104.18 372.227 103.891 371.484C103.602 370.734 103.457 369.938 103.457 369.094V368.625C103.457 367.664 103.594 366.785 103.867 365.988C104.141 365.191 104.531 364.5 105.039 363.914C105.555 363.328 106.18 362.879 106.914 362.566C107.648 362.246 108.477 362.086 109.398 362.086C110.297 362.086 111.094 362.234 111.789 362.531C112.484 362.828 113.066 363.25 113.535 363.797C114.012 364.344 114.371 365 114.613 365.766C114.855 366.523 114.977 367.367 114.977 368.297V369.703H104.898V367.453H111.66V367.195C111.66 366.727 111.574 366.309 111.402 365.941C111.238 365.566 110.988 365.27 110.652 365.051C110.316 364.832 109.887 364.723 109.363 364.723C108.918 364.723 108.535 364.82 108.215 365.016C107.895 365.211 107.633 365.484 107.43 365.836C107.234 366.188 107.086 366.602 106.984 367.078C106.891 367.547 106.844 368.062 106.844 368.625V369.094C106.844 369.602 106.914 370.07 107.055 370.5C107.203 370.93 107.41 371.301 107.676 371.613C107.949 371.926 108.277 372.168 108.66 372.34C109.051 372.512 109.492 372.598 109.984 372.598C110.594 372.598 111.16 372.48 111.684 372.246C112.215 372.004 112.672 371.641 113.055 371.156L114.695 372.938C114.43 373.32 114.066 373.688 113.605 374.039C113.152 374.391 112.605 374.68 111.965 374.906C111.324 375.125 110.594 375.234 109.773 375.234ZM120.273 365.086V375H116.898V362.32H120.074L120.273 365.086ZM124.094 362.238L124.035 365.367C123.871 365.344 123.672 365.324 123.438 365.309C123.211 365.285 123.004 365.273 122.816 365.273C122.34 365.273 121.926 365.336 121.574 365.461C121.23 365.578 120.941 365.754 120.707 365.988C120.48 366.223 120.309 366.508 120.191 366.844C120.082 367.18 120.02 367.562 120.004 367.992L119.324 367.781C119.324 366.961 119.406 366.207 119.57 365.52C119.734 364.824 119.973 364.219 120.285 363.703C120.605 363.188 120.996 362.789 121.457 362.508C121.918 362.227 122.445 362.086 123.039 362.086C123.227 362.086 123.418 362.102 123.613 362.133C123.809 362.156 123.969 362.191 124.094 362.238Z" fill="white"/>
<defs>
<filter id="filter0_d_20_103" x="7" y="29" width="552" height="725" filterUnits="userSpaceOnUse" color-interpolation-filters="sRGB">
<feFlood flood-opacity="0" result="BackgroundImageFix"/>
<feColorMatrix in="SourceAlpha" type="matrix" values="0 0 0 0 0 0 0 0 0 0 0 0 0 0 0 0 0 0 127 0" result="hardAlpha"/>
<feOffset dx="-4" dy="-4"/>
<feGaussianBlur stdDeviation="2"/>
<feComposite in2="hardAlpha" operator="out"/>
<feColorMatrix type="matrix" values="0 0 0 0 0 0 0 0 0 0 0 0 0 0 0 0 0 0 0.25 0"/>
<feBlend mode="normal" in2="BackgroundImageFix" result="effect1_dropShadow_20_103"/>
<feBlend mode="normal" in="SourceGraphic" in2="effect1_dropShadow_20_103" result="shape"/>
</filter>
<filter id="filter1_d_20_103" x="73" y="705" width="61" height="69" filterUnits="userSpaceOnUse" color-interpolation-filters="sRGB">
<feFlood flood-opacity="0" result="BackgroundImageFix"/>
<feColorMatrix in="SourceAlpha" type="matrix" values="0 0 0 0 0 0 0 0 0 0 0 0 0 0 0 0 0 0 127 0" result="hardAlpha"/>
<feOffset dy="2"/>
<feGaussianBlur stdDeviation="1"/>
<feComposite in2="hardAlpha" operator="out"/>
<feColorMatrix type="matrix" values="0 0 0 0 0 0 0 0 0 0 0 0 0 0 0 0 0 0 0.1 0"/>
<feBlend mode="normal" in2="BackgroundImageFix" result="effect1_dropShadow_20_103"/>
<feBlend mode="normal" in="SourceGraphic" in2="effect1_dropShadow_20_103" result="shape"/>
</filter>
<filter id="filter2_d_20_103" x="136" y="705" width="61" height="73" filterUnits="userSpaceOnUse" color-interpolation-filters="sRGB">
<feFlood flood-opacity="0" result="BackgroundImageFix"/>
<feColorMatrix in="SourceAlpha" type="matrix" values="0 0 0 0 0 0 0 0 0 0 0 0 0 0 0 0 0 0 127 0" result="hardAlpha"/>
<feOffset dy="4"/>
<feGaussianBlur stdDeviation="2"/>
<feComposite in2="hardAlpha" operator="out"/>
<feColorMatrix type="matrix" values="0 0 0 0 0 0 0 0 0 0 0 0 0 0 0 0 0 0 0.25 0"/>
<feBlend mode="normal" in2="BackgroundImageFix" result="effect1_dropShadow_20_103"/>
<feBlend mode="normal" in="SourceGraphic" in2="effect1_dropShadow_20_103" result="shape"/>
</filter>
<filter id="filter3_d_20_103" x="202" y="636" width="84" height="142" filterUnits="userSpaceOnUse" color-interpolation-filters="sRGB">
<feFlood flood-opacity="0" result="BackgroundImageFix"/>
<feColorMatrix in="SourceAlpha" type="matrix" values="0 0 0 0 0 0 0 0 0 0 0 0 0 0 0 0 0 0 127 0" result="hardAlpha"/>
<feOffset dy="4"/>
<feGaussianBlur stdDeviation="2"/>
<feComposite in2="hardAlpha" operator="out"/>
<feColorMatrix type="matrix" values="0 0 0 0 0 0 0 0 0 0 0 0 0 0 0 0 0 0 0.25 0"/>
<feBlend mode="normal" in2="BackgroundImageFix" result="effect1_dropShadow_20_103"/>
<feBlend mode="normal" in="SourceGraphic" in2="effect1_dropShadow_20_103" result="shape"/>
</filter>
<filter id="filter4_d_20_103" x="286" y="708" width="91" height="66" filterUnits="userSpaceOnUse" color-interpolation-filters="sRGB">
<feFlood flood-opacity="0" result="BackgroundImageFix"/>
<feColorMatrix in="SourceAlpha" type="matrix" values="0 0 0 0 0 0 0 0 0 0 0 0 0 0 0 0 0 0 127 0" result="hardAlpha"/>
<feOffset dy="4"/>
<feGaussianBlur stdDeviation="2"/>
<feComposite in2="hardAlpha" operator="out"/>
<feColorMatrix type="matrix" values="0 0 0 0 0 0 0 0 0 0 0 0 0 0 0 0 0 0 0.25 0"/>
<feBlend mode="normal" in2="BackgroundImageFix" result="effect1_dropShadow_20_103"/>
<feBlend mode="normal" in="SourceGraphic" in2="effect1_dropShadow_20_103" result="shape"/>
</filter>
<filter id="filter5_d_20_103" x="378" y="739" width="161" height="59" filterUnits="userSpaceOnUse" color-interpolation-filters="sRGB">
<feFlood flood-opacity="0" result="BackgroundImageFix"/>
<feColorMatrix in="SourceAlpha" type="matrix" values="0 0 0 0 0 0 0 0 0 0 0 0 0 0 0 0 0 0 127 0" result="hardAlpha"/>
<feOffset dy="4"/>
<feGaussianBlur stdDeviation="2"/>
<feComposite in2="hardAlpha" operator="out"/>
<feColorMatrix type="matrix" values="0 0 0 0 0 0 0 0 0 0 0 0 0 0 0 0 0 0 0.25 0"/>
<feBlend mode="normal" in2="BackgroundImageFix" result="effect1_dropShadow_20_103"/>
<feBlend mode="normal" in="SourceGraphic" in2="effect1_dropShadow_20_103" result="shape"/>
</filter>
<linearGradient id="paint0_linear_20_103" x1="287" y1="128" x2="287" y2="754" gradientUnits="userSpaceOnUse">
<stop offset="0.507987" stop-color="#D2BDBD"/>
<stop offset="1" stop-color="#D2BDBD" stop-opacity="0"/>
</linearGradient>
</defs>
</svg>
